<?xml version="1.0" standalone="no"?>
<!DOCTYPE svg PUBLIC "-//W3C//DTD SVG 1.1//EN" "http://www.w3.org/Graphics/SVG/1.1/DTD/svg11.dtd" >
<svg xmlns="http://www.w3.org/2000/svg" xmlns:xlink="http://www.w3.org/1999/xlink" version="1.1">
<metadata>
Created by FontForge 20161013 at Mon Nov 25 03:55:09 2013
 By ,,,
Copyright (c) 2012 by Toni Hurme. All rights reserved.
</metadata>
<defs>
<font id="HurmeGeometricSans1-BoldObl" horiz-adv-x="631" >
  <font-face 
    font-family="Hurme Geometric Sans 1"
    font-weight="700"
    font-style="italic"
    font-stretch="normal"
    units-per-em="1000"
    panose-1="2 11 8 0 2 0 0 0 0 0"
    ascent="765"
    descent="-235"
    x-height="504"
    cap-height="697"
    bbox="-158 -232 1255 1052"
    underline-thickness="50"
    underline-position="-290"
    slope="-11.5"
    unicode-range="U+000D-FB04"
  />
<missing-glyph horiz-adv-x="712" 
d="M641 0h-712l142 697h712zM152 602l-103 -507h511l103 507h-511zM342 278l-167 -139l-56 70l167 139l-111 139l85 70l110 -139l167 139l56 -70l-167 -139l110 -139l-84 -70z" />
    <glyph glyph-name="ff" unicode="ff" horiz-adv-x="699" 
d="M185 0h-149l75 368h-83l28 136h83l14 63q15 70 69 107t135 37q44 0 73 -8l-24 -121q-28 5 -45 5q-33 0 -49.5 -12.5t-23.5 -44.5l-5 -26h179l14 63q15 70 68.5 107t135.5 37q50 0 79 -8l-23 -121q-33 5 -52 5q-33 0 -49.5 -12.5t-23.5 -44.5l-5 -26h101l-28 -136h-96
l-75 -368h-149l75 368h-174z" />
    <glyph glyph-name="fi" unicode="fi" horiz-adv-x="624" 
d="M185 0h-149l75 368h-83l28 136h83l14 63q17 70 79.5 107t156.5 37q71 0 111 -8l-23 -121q-52 5 -84 5q-48 0 -71.5 -12.5t-33.5 -44.5l-5 -26h323l-103 -504h-150l75 368h-168z" />
    <glyph glyph-name="fl" unicode="fl" horiz-adv-x="625" 
d="M185 0h-149l75 368h-83l28 136h83l14 63q15 70 69 107t135 37q47 0 79 -9l-24 -121q-21 6 -51 6q-33 0 -49.5 -12.5t-23.5 -44.5l-5 -26h101l-28 -136h-96zM504 0h-150l142 697h150z" />
    <glyph glyph-name="ffi" unicode="ffi" horiz-adv-x="940" 
d="M185 0h-149l75 368h-83l28 136h83l14 63q15 70 69 107t135 37q44 0 73 -8l-24 -121q-28 5 -45 5q-34 0 -50.5 -12.5t-22.5 -44.5l-5 -26h173l13 63q18 70 80 107t156 37q72 0 112 -8l-24 -121q-52 5 -84 5q-49 0 -74 -13.5t-31 -43.5l-5 -26h323l-103 -504h-150l76 368
h-169l-75 -368h-148l75 368h-168z" />
    <glyph glyph-name="ffl" unicode="ffl" horiz-adv-x="941" 
d="M185 0h-149l75 368h-83l28 136h83l14 63q15 70 69 107t135 37q44 0 73 -8l-24 -121q-28 5 -45 5q-33 0 -49.5 -12.5t-23.5 -44.5l-5 -26h179l14 63q15 70 68.5 107t135.5 37q50 0 79 -8l-23 -121q-33 5 -52 5q-33 0 -49.5 -12.5t-23.5 -44.5l-5 -26h101l-28 -136h-96
l-75 -368h-149l75 368h-174zM820 0h-143l142 697h143z" />
    <glyph glyph-name="fj" unicode="fj" horiz-adv-x="621" 
d="M185 0h-149l75 368h-83l28 136h83l14 63q17 70 79.5 107t156.5 37q71 0 111 -8l-23 -121q-52 5 -84 5q-48 0 -71.5 -12.5t-33.5 -44.5l-5 -26h323l-112 -547q-34 -174 -196 -174q-48 0 -80 5l27 129q30 -2 35 -2q31 0 46.5 14.5t22.5 49.5l80 389h-169z" />
    <glyph glyph-name="ffj" unicode="ffj" horiz-adv-x="937" 
d="M185 0h-149l75 368h-83l28 136h83l14 63q15 70 69 107t135 37q44 0 73 -8l-24 -121q-28 5 -45 5q-34 0 -50.5 -12.5t-22.5 -44.5l-5 -26h173l13 63q18 70 80 107t156 37q72 0 112 -8l-24 -121q-52 5 -84 5q-49 0 -73.5 -13t-31.5 -44l-5 -26h323l-111 -547
q-36 -174 -197 -174q-49 0 -79 5l26 129q30 -2 35 -2q31 0 46.5 14.5t22.5 49.5l80 389h-169l-75 -368h-148l75 368h-168z" />
    <glyph glyph-name=".notdef" horiz-adv-x="712" 
d="M641 0h-712l142 697h712zM152 602l-103 -507h511l103 507h-511zM342 278l-167 -139l-56 70l167 139l-111 139l85 70l110 -139l167 139l56 -70l-167 -139l110 -139l-84 -70z" />
    <glyph glyph-name=".null" horiz-adv-x="0" 
 />
    <glyph glyph-name="nonmarkingreturn" horiz-adv-x="333" 
 />
    <glyph glyph-name="NULL" horiz-adv-x="0" 
 />
    <glyph glyph-name="NULL" horiz-adv-x="0" 
 />
    <glyph glyph-name="CR.001" unicode="&#xd;" horiz-adv-x="0" 
 />
    <glyph glyph-name="space" unicode=" " horiz-adv-x="404" 
 />
    <glyph glyph-name="exclam" unicode="!" horiz-adv-x="289" 
d="M176 190h-129l79 507h178zM4 60q0 36 27 63.5t64 27.5q34 0 55 -20.5t21 -52.5q0 -37 -26.5 -63.5t-64.5 -26.5q-33 0 -54.5 20.5t-21.5 51.5z" />
    <glyph glyph-name="quotedbl" unicode="&#x22;" horiz-adv-x="396" 
d="M362 445h-99l32 252h137zM172 445h-98l32 252h137z" />
    <glyph glyph-name="numbersign" unicode="#" horiz-adv-x="652" 
d="M165 80h-129l43 95h-84l25 126h116l39 87h-84l25 126h116l42 92h128l-42 -92h87l42 92h129l-43 -92h82l-25 -126h-113l-40 -87h82l-25 -126h-113l-44 -95h-128l43 95h-86zM304 388l-40 -87h86l40 87h-86z" />
    <glyph glyph-name="dollar" unicode="$" horiz-adv-x="585" 
d="M-25 155l126 77q28 -85 119 -103l36 174q-172 60 -172 188q0 87 71 152t186 66l20 98h74l-22 -108q53 -14 93.5 -46t58.5 -71l-119 -78q-18 44 -63 60l-30 -147q183 -68 183 -196q0 -96 -73 -162q-71 -65 -198 -70l-19 -95h-75l21 100q-83 12 -141 56t-76 105zM288 443
l27 131q-36 -4 -59.5 -23.5t-23.5 -44.5q0 -39 56 -63zM322 276l-31 -150q41 5 68 27.5t27 51.5q0 40 -64 71z" />
    <glyph glyph-name="percent" unicode="%" horiz-adv-x="762" 
d="M213 401q-66 0 -107 38t-41 97q0 69 52 121t124 52q65 0 106.5 -39t41.5 -99q0 -67 -51 -119q-51 -51 -125 -51zM150 0h-147l608 697h147zM223 502q23 0 39.5 18t16.5 40q0 21 -13.5 34.5t-34.5 13.5q-23 0 -39 -18t-16 -42q0 -20 13 -33t34 -13zM373 123q0 68 52 120
q53 53 124 53q65 0 106.5 -39t41.5 -99q0 -66 -51 -119q-51 -51 -125 -51q-65 0 -106.5 38t-41.5 97zM484 135q0 -21 13 -33.5t34 -12.5q23 0 39.5 18t16.5 40q0 21 -13 34.5t-34 13.5q-23 0 -39.5 -18t-16.5 -42z" />
    <glyph glyph-name="ampersand" unicode="&#x26;" horiz-adv-x="829" 
d="M3 198q0 85 51.5 153t137.5 99q-6 18 -6 49q0 88 70 151t173 63q86 0 139 -43q54 -42 54 -107q0 -43 -29 -72h244l-28 -135h-126q-21 -156 -93 -231l99 -125h-189l-32 41q-86 -56 -200 -56q-123 0 -194 58q-71 59 -71 155zM368 390l126 -168q36 45 49 134h-134l18 92
q28 6 47 28.5t19 51.5t-21 47.5t-54 18.5q-37 0 -63 -28.5t-26 -66.5q0 -58 39 -109zM153 210q0 -42 33 -67t89 -25q55 0 101 26q-115 146 -134 178q-89 -30 -89 -112z" />
    <glyph glyph-name="quotesingle" unicode="'" horiz-adv-x="207" 
d="M172 445h-98l32 252h137z" />
    <glyph glyph-name="parenleft" unicode="(" horiz-adv-x="327" 
d="M148 210q0 -185 103 -315l-81 -71q-74 74 -114 175t-40 216q0 171 88 322q90 154 242 253l54 -77q-122 -99 -187 -228t-65 -275z" />
    <glyph glyph-name="parenright" unicode=")" horiz-adv-x="327" 
d="M-36 -176l-54 77q122 99 187 228t65 275q0 184 -103 314l81 72q153 -153 153 -391q0 -171 -88 -323q-89 -152 -241 -252z" />
    <glyph glyph-name="asterisk" unicode="*" horiz-adv-x="373" 
d="M215 477l-70 -87l-69 67l86 72l-95 31l47 88l83 -49l12 98h100l-34 -106l102 38l14 -94l-105 -18l52 -79l-86 -50z" />
    <glyph glyph-name="plus" unicode="+" horiz-adv-x="524" 
d="M288 128h-142l32 156h-148l26 129h148l32 157h142l-32 -157h148l-26 -129h-148z" />
    <glyph glyph-name="comma" unicode="," horiz-adv-x="242" 
d="M-124 -128l137 239h148l-175 -239h-110z" />
    <glyph glyph-name="hyphen" unicode="-" horiz-adv-x="436" 
d="M370 215h-358l25 128h359z" />
    <glyph glyph-name="period" unicode="." horiz-adv-x="214" 
d="M43 -9q-33 0 -54.5 20t-21.5 51q0 36 27 63.5t64 27.5q34 0 55 -20t21 -52q0 -37 -26.5 -63.5t-64.5 -26.5z" />
    <glyph glyph-name="slash" unicode="/" horiz-adv-x="454" 
d="M517 723l-500 -859h-140l499 859h141z" />
    <glyph glyph-name="zero" unicode="0" horiz-adv-x="593" 
d="M12 197q0 25 17 110l34 166q24 116 101 175q76 60 181 60t170 -60q66 -60 66 -149q0 -34 -16 -111l-11 -51l-24 -114q-23 -111 -96.5 -173t-184.5 -62q-107 0 -172 59q-65 60 -65 150zM162 210q0 -36 26.5 -59t73.5 -23q45 0 77 27t44 77l37 180q11 63 11 72
q0 37 -27 60.5t-72 23.5t-77 -27t-44 -77l-17 -82q-16 -79 -21 -98q-11 -55 -11 -74z" />
    <glyph glyph-name="one" unicode="1" horiz-adv-x="359" 
d="M218 0h-155l113 557h-100l28 140h256z" />
    <glyph glyph-name="two" unicode="2" horiz-adv-x="541" 
d="M444 0h-522l376 381l16 16q24 25 31 32q7 8 22 33q10 16 10 37q0 31 -21 51t-53 20q-35 0 -59.5 -25t-31.5 -70h-150q20 114 88 174t166 60q94 0 153 -56q60 -56 60 -142q0 -94 -95 -189l-184 -182h223z" />
    <glyph glyph-name="three" unicode="3" horiz-adv-x="566" 
d="M-36 142l133 73q27 -85 129 -85q60 0 97 33q39 35 39 82q0 43 -37.5 70t-100.5 27q-68 0 -113 -12l202 227h-207l29 140h474l-236 -256l-1 -1q65 -13 105 -62.5t40 -119.5q0 -110 -85 -189q-83 -79 -216 -79q-87 0 -158 41q-68 42 -94 111z" />
    <glyph glyph-name="four" unicode="4" horiz-adv-x="619" 
d="M361 130h-387l365 567h165l-276 -431h161l26 131h150l-81 -397h-150z" />
    <glyph glyph-name="five" unicode="5" horiz-adv-x="558" 
d="M-30 135l134 73q16 -37 49.5 -57.5t76.5 -20.5q54 0 89.5 34t35.5 83q0 42 -37 69.5t-96 27.5q-98 0 -162 -24l136 377h354l-29 -140h-232l-35 -91q6 3 22 3q102 0 167 -60q66 -59 66 -152q0 -111 -82 -189q-83 -78 -212 -78q-88 0 -155 40q-68 40 -90 105z" />
    <glyph glyph-name="six" unicode="6" horiz-adv-x="575" 
d="M-2 222q0 52 26 113q10 21 36 55q24 32 42 52q2 2 21 23.5t35 38.5l174 193h177l-190 -213q4 1 13 1q91 -2 147 -62q57 -60 57 -152q0 -109 -84 -193q-83 -83 -208 -83q-109 0 -177 64q-69 65 -69 163zM152 235q0 -44 29 -72t76 -28q52 0 88 37q37 37 37 85
q0 44 -29.5 72t-77.5 28q-51 0 -87 -37q-36 -38 -36 -85z" />
    <glyph glyph-name="seven" unicode="7" horiz-adv-x="554" 
d="M174 0h-168l364 557h-301l28 140h531z" />
    <glyph glyph-name="eight" unicode="8" horiz-adv-x="575" 
d="M2 207q0 64 38 120q39 56 101 83q-32 38 -32 87q2 86 68 148q67 63 162 63q86 0 140 -51q54 -50 54 -128q0 -42 -20 -79.5t-55 -59.5q66 -56 66 -143q0 -105 -79 -181t-201 -76q-107 0 -174 61q-68 62 -68 156zM315 439q33 0 56 23.5t23 54.5q0 27 -19 44t-49 17
q-33 0 -56.5 -22.5t-23.5 -52.5q0 -29 19 -46.5t50 -17.5zM156 220q0 -40 27.5 -65t71.5 -25q48 0 81.5 32.5t33.5 75.5q0 39 -28 64.5t-71 25.5q-47 0 -81 -33q-34 -31 -34 -75z" />
    <glyph glyph-name="nine" unicode="9" horiz-adv-x="576" 
d="M236 0h-175l200 221q-6 -2 -15 -2q-74 0 -138 60t-64 153q0 113 83 194t205 81q108 0 175 -63q69 -63 69 -161q0 -73 -28 -122q-26 -47 -107 -136zM302 348q53 0 87.5 35t34.5 86q0 43 -29 71t-74 28q-51 0 -87 -36q-35 -35 -35 -84q0 -44 28.5 -72t74.5 -28z" />
    <glyph glyph-name="colon" unicode=":" horiz-adv-x="227" 
d="M113 305q-33 0 -54 20t-21 52q0 36 27 63.5t63 27.5q34 0 55.5 -20.5t21.5 -52.5q0 -37 -26.5 -63.5t-65.5 -26.5zM59 39q-33 0 -54 20t-21 51q0 36 27 63.5t63 27.5q34 0 55.5 -20t21.5 -52q0 -37 -26.5 -63.5t-65.5 -26.5z" />
    <glyph glyph-name="semicolon" unicode=";" horiz-adv-x="254" 
d="M129 304q-33 0 -54 20t-21 51q0 36 27 63.5t63 27.5q34 0 55.5 -20t21.5 -52q0 -36 -26.5 -63t-65.5 -27zM-116 -123l134 234h147l-171 -234h-110z" />
    <glyph glyph-name="less" unicode="&#x3c;" horiz-adv-x="469" 
d="M394 222l-27 -135l-358 269l468 269l-33 -156l-208 -121z" />
    <glyph glyph-name="equal" unicode="=" horiz-adv-x="544" 
d="M508 395h-452l25 128h452zM463 177h-452l26 128h452z" />
    <glyph glyph-name="greater" unicode="&#x3e;" horiz-adv-x="469" 
d="M462 356l-468 -269l33 156l208 121l-158 126l27 135z" />
    <glyph glyph-name="question" unicode="?" horiz-adv-x="437" 
d="M214 172q-67 0 -109 36t-42 93q0 58 33 98t104 74q14 7 58 27q37 17 37 38q0 14 -16.5 23.5t-43.5 9.5q-74 0 -158 -48l29 142q64 44 147 44q85 0 140 -41q55 -40 55 -104q0 -63 -35 -104q-34 -38 -120 -79q-6 -3 -19 -9t-18.5 -8.5t-15 -8t-14 -9t-9.5 -8.5t-7 -10.5
t-2 -11.5q0 -27 45 -27q33 0 72 13l-23 -113q-36 -17 -88 -17zM73 52q0 35 26 61.5t62 26.5q33 0 54 -19.5t21 -50.5q0 -34 -26 -60t-63 -26q-33 0 -53.5 19t-20.5 49z" />
    <glyph glyph-name="at" unicode="@" horiz-adv-x="803" 
d="M14 257q0 78 32.5 151t86.5 128t130 88t159 33q152 0 250 -89q97 -88 97 -227q0 -99 -62 -178q-62 -77 -152 -77q-64 0 -95 42q-13 19 -13 41q-30 -46 -100 -46q-57 0 -97 40t-40 106q0 75 54 129t124 54q72 0 86 -35l6 30h109l-45 -223q-1 -3 -1 -12q0 -12 7.5 -19.5
t20.5 -7.5q36 0 60 44q25 44 25 102q0 94 -68 156t-176 62q-116 0 -200 -86q-83 -86 -83 -196q0 -101 66 -166q68 -65 174 -65q48 0 87 16l25 -99q-49 -25 -121 -25q-152 0 -250 92q-96 93 -96 237zM325 282q0 -26 16 -41.5t42 -15.5q30 0 50.5 21t20.5 49q0 25 -16 41
t-43 16q-29 0 -49.5 -21t-20.5 -49z" />
    <glyph glyph-name="A" unicode="A" horiz-adv-x="740" 
d="M178 111l-76 -111h-167l513 737l213 -737h-153l-30 111h-300zM395 427l-129 -185h179z" />
    <glyph glyph-name="B" unicode="B" horiz-adv-x="628" 
d="M344 0h-347l142 697h271q76 0 124 -45q48 -44 48 -112q0 -54 -31 -101q-33 -48 -83 -64q49 -15 75 -53.5t26 -90.5q0 -95 -61 -163q-62 -68 -164 -68zM267 565l-29 -146h108q36 0 61.5 25t25.5 58q0 28 -19.5 45.5t-51.5 17.5h-95zM213 300l-34 -167h139q40 0 69 29
t29 66q0 32 -23 52t-60 20h-120z" />
    <glyph glyph-name="C" unicode="C" horiz-adv-x="670" 
d="M27 308q0 160 122 280q123 120 293 120q148 0 233 -77l-31 -152q-82 90 -212 90q-104 0 -178 -75q-73 -74 -73 -173q0 -85 57 -140q58 -54 150 -54q109 0 196 63l-31 -154q-65 -47 -178 -47q-153 0 -251 89q-97 90 -97 230z" />
    <glyph glyph-name="D" unicode="D" horiz-adv-x="738" 
d="M326 0h-329l142 697h246q144 0 235 -88t91 -225q0 -150 -111 -267t-274 -117zM265 556l-85 -416h149q95 0 159 69q66 71 66 159q0 82 -51 135q-50 53 -133 53h-105z" />
    <glyph glyph-name="E" unicode="E" horiz-adv-x="597" 
d="M480 0h-483l142 697h476l-29 -140h-321l-27 -131h300l-27 -137h-300l-30 -149h328z" />
    <glyph glyph-name="F" unicode="F" horiz-adv-x="566" 
d="M152 0h-155l142 697h459l-28 -140h-305l-29 -143h277l-29 -137h-275z" />
    <glyph glyph-name="G" unicode="G" horiz-adv-x="750" 
d="M27 305q0 105 54 196q54 93 151 150q98 57 211 57q151 0 236 -81l-30 -152q-40 43 -98 68.5t-122 25.5q-101 0 -175 -75q-73 -73 -73 -172q0 -87 57 -141q58 -54 150 -54q73 0 140 42l22 108h-186l27 136h327l-63 -319q-119 -105 -280 -105q-154 0 -251 90t-97 226z" />
    <glyph glyph-name="H" unicode="H" horiz-adv-x="747" 
d="M152 0h-155l142 697h155l-52 -259h301l52 259h154l-142 -697h-154l60 298h-301z" />
    <glyph glyph-name="I" unicode="I" horiz-adv-x="299" 
d="M156 0h-155l142 697h155z" />
    <glyph glyph-name="J" unicode="J" horiz-adv-x="365" 
d="M-64 4l29 136q24 -12 69 -12q40 0 62 24t32 74l97 471h154l-95 -467q-24 -122 -79 -181q-54 -60 -166 -60q-69 0 -103 15z" />
    <glyph glyph-name="K" unicode="K" horiz-adv-x="668" 
d="M151 0h-154l142 697h154l-61 -295l302 295h194l-353 -349l222 -348h-177l-203 318z" />
    <glyph glyph-name="L" unicode="L" horiz-adv-x="520" 
d="M423 0h-426l142 697h155l-114 -557h272z" />
    <glyph glyph-name="M" unicode="M" horiz-adv-x="872" 
d="M146 0h-149l147 722l275 -403l462 409l-148 -728h-150l69 339l-263 -232l-170 252z" />
    <glyph glyph-name="N" unicode="N" horiz-adv-x="756" 
d="M150 0h-153l148 724l378 -431l83 404h153l-148 -724l-380 430z" />
    <glyph glyph-name="O" unicode="O" horiz-adv-x="826" 
d="M28 309q0 103 54 195q57 93 151 148q98 56 210 56q154 0 255 -92q100 -91 100 -234q0 -155 -119 -276q-119 -120 -296 -120q-155 0 -255 90q-100 91 -100 233zM181 321q0 -87 58 -142q59 -54 153 -54q105 0 179 74q74 76 74 170q0 88 -59 144t-152 56q-103 0 -178 -75
t-75 -173z" />
    <glyph glyph-name="P" unicode="P" horiz-adv-x="626" 
d="M152 0h-155l142 697h262q99 0 161 -60q62 -59 62 -152q0 -102 -76 -181t-188 -79h-162zM265 557l-39 -192h141q43 0 73 33q31 34 31 76q0 36 -24 59.5t-63 23.5h-119z" />
    <glyph glyph-name="Q" unicode="Q" horiz-adv-x="825" 
d="M29 309q0 76 32 149t87 128q56 56 134 89t161 33q155 0 255 -92q100 -91 100 -234q0 -76 -30.5 -147.5t-86.5 -126.5l87 -108h-170l-28 34q-80 -48 -193 -48q-153 0 -250 90q-98 92 -98 233zM182 321q0 -87 58 -142q58 -54 153 -54q41 0 80 16l-130 165h174l68 -87
q60 71 60 150q0 88 -59 144t-151 56q-103 0 -178 -75t-75 -173z" />
    <glyph glyph-name="R" unicode="R" horiz-adv-x="656" 
d="M152 0h-155l142 697h268q95 0 157 -59t62 -148q0 -75 -45 -141t-118 -94l111 -255h-167l-98 232h-110zM265 557l-39 -191h130q47 0 81 32q33 33 33 74q0 37 -25 61t-64 24h-116z" />
    <glyph glyph-name="S" unicode="S" horiz-adv-x="576" 
d="M-23 77l32 149q93 -98 231 -98q61 0 95 21.5t34 53.5q0 20 -19 38q-20 19 -43 30q-20 11 -77 36q-151 66 -151 191q0 86 72 148q74 62 184 62q140 0 214 -71l-30 -145q-35 36 -85.5 55.5t-98.5 19.5q-45 0 -73 -17t-28 -42q0 -24 35 -52q5 -3 49 -27q9 -3 32 -13.5
t25 -11.5q149 -69 149 -193q0 -92 -74 -157t-209 -65q-84 0 -154 24t-110 64z" />
    <glyph glyph-name="T" unicode="T" horiz-adv-x="555" 
d="M285 0h-155l114 557h-189l29 140h529l-29 -140h-186z" />
    <glyph glyph-name="U" unicode="U" horiz-adv-x="715" 
d="M40 243q0 40 10 91l74 363h155l-85 -413q-2 -18 -2 -35q0 -56 34.5 -88t97.5 -32q130 0 161 151l85 417h154l-86 -424q-29 -144 -109.5 -214t-217.5 -70q-96 0 -177 52q-43 29 -68.5 81.5t-25.5 120.5z" />
    <glyph glyph-name="V" unicode="V" horiz-adv-x="737" 
d="M796 697l-508 -731l-208 731h156l110 -401l274 401h176z" />
    <glyph glyph-name="W" unicode="W" horiz-adv-x="978" 
d="M505 395l-313 -423l-105 725h150l54 -360l270 365l104 -355l200 350h166l-411 -727z" />
    <glyph glyph-name="X" unicode="X" horiz-adv-x="676" 
d="M122 0h-181l303 365l-150 332h166l98 -216l180 216h181l-288 -348l159 -349h-166l-105 234z" />
    <glyph glyph-name="Y" unicode="Y" horiz-adv-x="683" 
d="M346 0h-153l52 258l-168 439h161l107 -284l219 284h180l-349 -452z" />
    <glyph glyph-name="Z" unicode="Z" horiz-adv-x="647" 
d="M545 0h-608l468 557h-284l28 140h553l-466 -557h337z" />
    <glyph glyph-name="bracketleft" unicode="[" horiz-adv-x="376" 
d="M253 568l-137 -671h164l-26 -129h-307l189 929h307l-26 -129h-164z" />
    <glyph glyph-name="backslash" unicode="\" horiz-adv-x="454" 
d="M373 -136h-129l-157 859h130z" />
    <glyph glyph-name="bracketright" unicode="]" horiz-adv-x="376" 
d="M-88 -103h163l137 671h-164l26 129h308l-190 -929h-307z" />
    <glyph glyph-name="asciicircum" unicode="^" horiz-adv-x="531" 
d="M168 350h-157l331 374l178 -374h-138l-74 159z" />
    <glyph glyph-name="underscore" unicode="_" horiz-adv-x="422" 
d="M-115 -175l23 115h440l-24 -115h-439z" />
    <glyph glyph-name="grave" unicode="`" horiz-adv-x="519" 
d="M380 552h-106l-71 145h154z" />
    <glyph glyph-name="a" unicode="a" 
d="M2 222q0 118 87 204q89 87 202 87q61 0 106.5 -20t57.5 -49l13 60h147l-103 -504h-145l13 62q-46 -70 -151 -70q-94 0 -161 64q-66 64 -66 166zM152 237q0 -49 34 -80t90 -31q61 0 105 41q44 42 44 104q0 48 -34.5 78t-89.5 30q-63 0 -106 -43t-43 -99z" />
    <glyph glyph-name="b" unicode="b" horiz-adv-x="626" 
d="M125 0h-146l142 697h146l-49 -243q45 59 141 59q93 0 160 -65q66 -64 66 -167q0 -114 -85 -202q-86 -87 -201 -87q-60 0 -104.5 19.5t-56.5 50.5zM168 238q0 -49 32.5 -80.5t85.5 -31.5q62 0 106 42q45 42 45 97q0 51 -35 82.5t-92 31.5q-61 0 -101 -43q-41 -44 -41 -98z
" />
    <glyph glyph-name="c" unicode="c" horiz-adv-x="502" 
d="M2 224q0 119 91 207q92 89 218 89q112 0 177 -56l-28 -136q-63 51 -145 51q-67 0 -116 -44q-48 -43 -48 -98q0 -49 37.5 -80t98.5 -31q80 0 141 43l-30 -146q-46 -36 -138 -36q-112 0 -186 66q-72 67 -72 171z" />
    <glyph glyph-name="d" unicode="d" 
d="M2 222q0 118 87 204q89 87 202 87q61 0 106.5 -20t57.5 -49l52 253h147l-142 -697h-145l13 62q-46 -70 -151 -70q-94 0 -161 64q-66 64 -66 166zM152 237q0 -49 34 -80t90 -31q61 0 105 41q44 42 44 104q0 48 -34.5 78t-89.5 30q-63 0 -106 -43t-43 -99z" />
    <glyph glyph-name="e" unicode="e" horiz-adv-x="577" 
d="M1 216q0 120 87 210t214 90q108 0 172 -63q65 -62 65 -159q0 -40 -15 -82h-373q-1 -2 -1 -8q0 -41 34 -65.5t91 -24.5q92 0 171 41l-30 -132q-68 -36 -165 -36q-115 0 -182 63q-68 63 -68 166zM163 309h233v5q0 34 -27.5 56t-72.5 22q-42 0 -79.5 -21.5t-53.5 -61.5z" />
    <glyph glyph-name="f" unicode="f" horiz-adv-x="376" 
d="M185 0h-149l75 368h-83l28 136h83l14 63q15 70 69 107t135 37q47 0 79 -9l-24 -121q-21 6 -51 6q-33 0 -49.5 -12.5t-23.5 -44.5l-5 -26h101l-28 -136h-96z" />
    <glyph glyph-name="g" unicode="g" 
d="M-29 -149l26 132q36 -37 91.5 -57.5t115.5 -20.5q144 0 172 123l7 30q-43 -63 -153 -63q-94 0 -162 62q-66 63 -66 165q0 118 87 204q89 87 203 87q61 0 106.5 -20t57.5 -49l12 60h148l-92 -448q-19 -88 -53 -146q-23 -40 -54 -66q-73 -64 -200 -64q-166 0 -246 71z
M151 237q0 -49 34 -80t90 -31q63 0 107 41q44 42 44 104q0 47 -35 77t-90 30q-64 0 -107 -43q-43 -42 -43 -98z" />
    <glyph glyph-name="h" unicode="h" horiz-adv-x="574" 
d="M129 0h-150l142 697h150l-54 -260q53 78 144 78q77 0 120.5 -44.5t43.5 -122.5q0 -22 -5 -50l-62 -298h-150l58 286q0 3 1.5 13.5t1.5 12.5q0 34 -19.5 52.5t-55.5 18.5q-41 0 -70.5 -28.5t-38.5 -74.5z" />
    <glyph glyph-name="i" unicode="i" horiz-adv-x="250" 
d="M174 547q-35 0 -57 21t-22 54q0 37 28 65q29 29 66 29q35 0 57.5 -22t22.5 -55q0 -37 -28 -64.5t-67 -27.5zM129 0h-150l103 504h150z" />
    <glyph glyph-name="j" unicode="j" horiz-adv-x="245" 
d="M173 546q-34 0 -56.5 21.5t-22.5 54.5q0 37 28 65t67 28q35 0 57 -21.5t22 -55.5q0 -37 -28 -64.5t-67 -27.5zM-27 -21l108 525h149l-112 -547q-34 -174 -196 -174q-48 0 -80 5l27 129q30 -2 35 -2q31 0 46.5 14.5t22.5 49.5z" />
    <glyph glyph-name="k" unicode="k" horiz-adv-x="526" 
d="M129 0h-150l142 697h149l-76 -376l178 183h176l-232 -242l141 -262h-162l-120 228z" />
    <glyph glyph-name="l" unicode="l" horiz-adv-x="250" 
d="M129 0h-150l142 697h150z" />
    <glyph glyph-name="m" unicode="m" horiz-adv-x="859" 
d="M129 0h-150l103 504h150l-14 -66q48 77 130 77q105 0 137 -82q64 82 173 82q72 0 113 -44.5t41 -120.5q0 -21 -5 -49l-63 -301h-150l59 289q3 13 3 26q0 68 -66 68q-36 0 -61.5 -24.5t-33.5 -66.5l-60 -292h-150l59 291q2 22 2 25q0 67 -64 67q-36 0 -61.5 -25.5
t-34.5 -69.5z" />
    <glyph glyph-name="n" unicode="n" horiz-adv-x="584" 
d="M128 0h-149l102 504h150l-14 -67q54 78 147 78q79 0 126 -45.5t47 -124.5q0 -23 -5 -51l-61 -294h-150l57 281q3 15 3 28q0 35 -21.5 54.5t-61.5 19.5q-42 0 -73 -28.5t-41 -74.5z" />
    <glyph glyph-name="o" unicode="o" horiz-adv-x="616" 
d="M2 225q0 116 92 205t219 89q113 0 187 -69q73 -67 73 -173q0 -115 -90 -204q-88 -88 -220 -88q-115 0 -188 67t-73 173zM151 237q0 -51 34.5 -83t90.5 -32q62 0 105 43t43 99q0 52 -34.5 85t-89.5 33q-62 0 -106 -44q-43 -43 -43 -101z" />
    <glyph glyph-name="p" unicode="p" horiz-adv-x="626" 
d="M138 62l-52 -255h-146l142 697h146l-10 -50q45 59 141 59q93 0 160 -65q66 -64 66 -167q0 -114 -85 -202q-86 -87 -201 -87q-60 0 -104.5 19.5t-56.5 50.5zM168 238q0 -49 32.5 -80.5t85.5 -31.5q62 0 106 42q45 42 45 97q0 51 -35 82.5t-92 31.5q-61 0 -101 -43
q-41 -44 -41 -98z" />
    <glyph glyph-name="q" unicode="q" horiz-adv-x="628" 
d="M2 222q0 118 87 204q89 87 202 87q61 0 106.5 -20t57.5 -49l13 60h147l-142 -697h-147l53 254q-48 -69 -150 -69q-94 0 -161 64q-66 64 -66 166zM152 237q0 -49 34 -80t90 -31q61 0 105 41q44 42 44 104q0 48 -34.5 78t-89.5 30q-63 0 -106 -43t-43 -99z" />
    <glyph glyph-name="r" unicode="r" horiz-adv-x="409" 
d="M129 0h-150l103 504h150l-15 -67q54 78 147 78q23 0 53 -5l-27 -138q-25 5 -59 5q-59 0 -100 -40t-56 -111z" />
    <glyph glyph-name="s" unicode="s" horiz-adv-x="467" 
d="M-26 51l26 133q77 -70 189 -70q37 0 57.5 10.5t20.5 26.5t-22.5 27t-83.5 31q-62 22 -89.5 53.5t-27.5 84.5q0 71 62 121q63 51 154 51q104 0 159 -42l-25 -128q-56 41 -144 41q-31 0 -49 -9.5t-18 -24.5q0 -13 21 -23l21 -9l58 -19q66 -23 97 -56.5t31 -91.5
q0 -76 -62.5 -123t-166.5 -47q-125 0 -208 64z" />
    <glyph glyph-name="t" unicode="t" horiz-adv-x="354" 
d="M161 0h-149l75 369h-67l28 135h67l39 193h149l-39 -193h107l-28 -135h-107z" />
    <glyph glyph-name="u" unicode="u" horiz-adv-x="577" 
d="M11 188q0 32 9 73l50 243h151l-55 -276q-3 -15 -3 -32q0 -32 23 -52.5t64 -20.5q86 0 105 96l59 285h150l-59 -292q-24 -120 -97 -173q-74 -53 -170 -53q-104 0 -166 57q-61 58 -61 145z" />
    <glyph glyph-name="v" unicode="v" horiz-adv-x="569" 
d="M606 504l-398 -534l-181 534h149l80 -248l183 248h167z" />
    <glyph glyph-name="w" unicode="w" horiz-adv-x="749" 
d="M363 257l-215 -287l-113 534h141l48 -228l176 226l88 -230l143 232h147l-316 -534z" />
    <glyph glyph-name="x" unicode="x" horiz-adv-x="554" 
d="M244 153l-140 -153h-172l242 266l-120 238h156l67 -134l120 134h168l-219 -249l135 -255h-156z" />
    <glyph glyph-name="y" unicode="y" horiz-adv-x="594" 
d="M20 -194l125 199l-108 499h147l65 -333l208 333h160l-439 -698h-158z" />
    <glyph glyph-name="z" unicode="z" horiz-adv-x="532" 
d="M443 0h-523l344 373h-218l27 131h487l-343 -373h253z" />
    <glyph glyph-name="braceleft" unicode="{" horiz-adv-x="367" 
d="M27 -47l37 180q0 1 1.5 11.5t1.5 15.5q0 28 -20 46t-50 18l15 71q85 3 102 86l41 201q22 115 133 115h113l-25 -120h-38q-48 0 -58 -52l-28 -140q-23 -111 -123 -127q35 -7 54.5 -31.5t19.5 -58.5q0 -23 -4 -39l-27 -131q0 -4 -0.5 -8t-1 -6t-0.5 -3q0 -17 12.5 -28
t33.5 -11h32l-25 -120h-94q-48 0 -77 27.5t-29 69.5q0 17 4 34z" />
    <glyph glyph-name="bar" unicode="|" horiz-adv-x="281" 
d="M135 -27h-142l153 751h142z" />
    <glyph glyph-name="braceright" unicode="}" horiz-adv-x="367" 
d="M50 -6l29 140q23 110 122 127q-35 7 -54.5 31.5t-19.5 58.5q0 14 5 39l27 132q0 3 0.5 5.5t1 4.5t0.5 3.5v2.5q0 17 -13 28t-34 11h-31l25 120h93q48 0 77.5 -27t29.5 -70q0 -17 -4 -34l-37 -180q-3 -15 -3 -26q0 -29 19.5 -46.5t50.5 -18.5l-15 -71q-85 -3 -103 -86
l-41 -201q-22 -115 -133 -115h-113l25 120h39q47 0 57 52z" />
    <glyph glyph-name="asciitilde" unicode="~" horiz-adv-x="468" 
d="M93 279l-79 12q16 65 56 104.5t91 39.5q41 0 89 -21q49 -21 73 -21q35 0 55 41l80 -12q-40 -150 -152 -150q-42 0 -90 21t-73 21q-36 0 -50 -35z" />
    <glyph glyph-name="exclamdown" unicode="&#xa1;" horiz-adv-x="289" 
d="M154 351q-33 0 -54.5 20t-21.5 51q0 36 27 63.5t64 27.5q34 0 55 -20.5t21 -52.5q0 -36 -26.5 -62.5t-64.5 -26.5zM122 -196h-177l126 507h130z" />
    <glyph glyph-name="cent" unicode="&#xa2;" horiz-adv-x="536" 
d="M202 0h-82l45 110q-66 29 -104 86t-38 129q0 117 90 206q92 89 217 89q5 0 37 -2l32 79h81l-38 -96q64 -26 108 -86l-115 -86q-19 26 -46 39l-99 -244q3 -1 14 -1q58 1 100 45l90 -95q-86 -87 -208 -87q-26 0 -48 3zM220 245l96 236q-1 1 -6 1q-59 -5 -101 -48
q-42 -44 -42 -97q0 -60 53 -92z" />
    <glyph glyph-name="sterling" unicode="&#xa3;" horiz-adv-x="598" 
d="M499 0h-540l23 108h9q87 0 137 41q51 41 51 87q0 21 -8 47h-114l21 103h63q-23 48 -23 105q0 86 74 154q73 67 175 67q91 0 147 -52q57 -53 57 -133q0 -15 -3 -30h-132q1 2 1 8q0 29 -23 48t-60 19t-64 -28t-27 -63q0 -36 24 -95h165l-21 -103h-111q9 -23 9 -45
q0 -74 -66 -112h262z" />
    <glyph glyph-name="currency" unicode="&#xa4;" horiz-adv-x="667" 
d="M176 130l-84 -79l-81 99l88 64q-20 43 -20 91q0 98 67 172l-73 78l99 83l66 -91q58 26 114 26q80 0 136 -38l84 81l82 -99l-91 -66q21 -42 21 -93q0 -94 -66 -168l71 -76l-99 -81q-58 80 -64 87q-54 -25 -118 -25q-76 0 -132 35zM321 220q52 0 88 38t36 87q0 45 -29 73.5
t-75 28.5q-51 0 -88 -39q-36 -38 -36 -89q0 -43 29 -71t75 -28z" />
    <glyph glyph-name="yen" unicode="&#xa5;" horiz-adv-x="683" 
d="M348 0h-153l31 155h-212l22 105h211l-30 78h-166l22 104h104l-98 255h161l109 -285l218 285h179l-196 -255h99l-21 -104h-159l-59 -78h203l-22 -105h-211z" />
    <glyph glyph-name="brokenbar" unicode="&#xa6;" horiz-adv-x="281" 
d="M224 415h-142l58 282h142zM140 0h-142l60 294h142z" />
    <glyph glyph-name="section" unicode="&#xa7;" horiz-adv-x="556" 
d="M-16 -1h144q-1 -2 -1 -15q0 -30 19 -49t49 -19q33 0 56 21.5t23 49.5q0 34 -38 60q-14 11 -63 35l-26 13l-20 10t-9 5q-108 51 -108 146q0 94 105 156q-27 33 -27 91q0 83 70 146t166 63q93 0 151 -49q59 -48 59 -123q0 -10 -4 -35h-145l1 7v8q0 29 -19 48.5t-49 19.5
q-32 0 -55.5 -22.5t-23.5 -51.5q0 -34 38 -60q17 -14 64 -36q48 -22 54 -27q108 -49 108 -143q0 -96 -106 -156q27 -33 27 -92q0 -81 -68 -144q-67 -64 -167 -64q-94 0 -152 49q-58 48 -58 123q0 20 5 35zM229 194l42 -19q20 -8 30 -14q27 10 40.5 30.5t13.5 41.5
q0 35 -38 57q-30 19 -76 39q-16 6 -28 13q-27 -11 -41 -30.5t-14 -40.5q0 -35 37 -58q20 -13 34 -19z" />
    <glyph glyph-name="dieresis" unicode="&#xa8;" horiz-adv-x="541" 
d="M424 555q-30 0 -48.5 17t-18.5 44q0 31 23.5 54.5t56.5 23.5q30 0 49 -17.5t19 -45.5q0 -30 -24 -53t-57 -23zM215 555q-30 0 -48.5 17t-18.5 44q0 31 23.5 54.5t56.5 23.5q30 0 49 -17.5t19 -45.5q0 -30 -24 -53t-57 -23z" />
    <glyph glyph-name="copyright" unicode="&#xa9;" horiz-adv-x="809" 
d="M25 304q0 166 120 289t290 123q153 0 250 -93t97 -237q0 -106 -52 -198q-51 -92 -147 -150q-95 -58 -214 -58q-151 0 -248 91q-96 91 -96 233zM127 313q0 -103 70 -167q71 -65 182 -65q127 0 213 89q87 88 87 204q0 105 -70 172q-70 68 -181 68q-123 0 -212 -92t-89 -209
zM201 324q0 87 66 151q67 66 160 66q105 0 161 -77l-92 -70q-28 36 -72 36q-40 0 -72 -29q-30 -29 -30 -66q0 -34 23 -55.5t61 -21.5q42 0 70 31l74 -77q-64 -64 -154 -64q-86 0 -141 49q-54 49 -54 127z" />
    <glyph glyph-name="ordfeminine" unicode="&#xaa;" horiz-adv-x="467" 
d="M189 311q-59 0 -96 29.5t-37 75.5q0 66 48.5 97.5t148.5 40.5q48 3 62 8t14 22q0 11 -13.5 18t-34.5 7q-52 0 -99 -44l-63 62q64 76 170 76q73 0 114 -29.5t41 -82.5q0 -15 -3 -31l-28 -134q0 -3 -0.5 -5.5t-0.5 -4.5l-1 -1q0 -17 16 -17q6 0 9 1l-16 -76q-18 -9 -41 -9
q-36 0 -51 17q-13 7 -19 24q-38 -44 -120 -44zM221 406q74 0 88 71l2 14q-7 -6 -26 -8q-3 0 -21 -2.5t-25 -3.5q-17 -3 -42 -10q-24 -7 -24 -29q0 -32 48 -32z" />
    <glyph glyph-name="guillemotleft" unicode="&#xab;" horiz-adv-x="570" 
d="M473 66h-142l-83 187l159 187h156l-170 -196zM236 66h-142l-83 187l160 187h155l-169 -196z" />
    <glyph glyph-name="logicalnot" unicode="&#xac;" horiz-adv-x="632" 
d="M452 387h-399l26 128h541l-63 -309h-142z" />
    <glyph glyph-name="registered" unicode="&#xae;" horiz-adv-x="414" 
d="M229 363q-74 0 -120 43q-47 44 -47 111q0 77 59 136t140 59q74 0 121 -44q48 -44 48 -113q0 -76 -58 -134t-143 -58zM234 423q56 0 94 38q38 40 38 89q0 45 -31 74t-80 29q-53 0 -92 -39q-38 -40 -38 -91q0 -44 30.5 -72t78.5 -28zM216 462h-47l32 157h63q22 0 37 -14
t15 -35q0 -35 -35 -50l26 -58h-51l-19 47h-12zM239 578l-7 -33h21q8 0 13.5 5.5t5.5 12.5q0 15 -16 15h-17z" />
    <glyph glyph-name="overscore" unicode="&#xaf;" horiz-adv-x="545" 
d="M478 580h-317l19 96h317z" />
    <glyph glyph-name="degree" unicode="&#xb0;" horiz-adv-x="417" 
d="M231 374q-69 0 -113 40.5t-44 103.5q0 74 54 128q55 55 133 55q70 0 114.5 -41.5t44.5 -105.5q0 -70 -54 -126q-54 -54 -135 -54zM241 473q29 0 50 21.5t21 49.5q0 25 -16.5 41t-43.5 16q-29 0 -49.5 -22t-20.5 -50q0 -24 16.5 -40t42.5 -16z" />
    <glyph glyph-name="plusminus" unicode="&#xb1;" horiz-adv-x="531" 
d="M305 193h-142l32 157h-148l26 128h148l32 158h142l-32 -158h148l-26 -128h-148zM414 0h-439l26 128h439z" />
    <glyph glyph-name="twosuperior" unicode="&#xb2;" horiz-adv-x="335" 
d="M309 328h-302l219 207q30 29 30 49q0 13 -10.5 21.5t-25.5 8.5q-38 0 -47 -46h-96q12 69 51 102.5t96 33.5q56 0 91.5 -32t35.5 -82q0 -56 -52 -105l-63 -59h94z" />
    <glyph glyph-name="threesuperior" unicode="&#xb3;" horiz-adv-x="337" 
d="M167 322q-47 0 -86.5 20.5t-55.5 54.5l91 54q15 -34 55 -34q25 0 41 13t16 32q0 39 -69 39q-41 0 -59 -7l101 107h-108l20 96h271l-130 -137v-1q36 -8 58.5 -34t22.5 -61q0 -60 -47 -101t-121 -41z" />
    <glyph glyph-name="acute" unicode="&#xb4;" horiz-adv-x="519" 
d="M330 552h-116l80 145h165z" />
    <glyph glyph-name="mu" unicode="&#xb5;" horiz-adv-x="575" 
d="M126 39l-55 -271h-142l151 736h141l-59 -288q0 -4 -0.5 -15t-0.5 -13q0 -33 23 -53.5t66 -20.5q42 0 70.5 24t38.5 69l61 297h142l-63 -310q-42 -206 -245 -206q-86 0 -128 51z" />
    <glyph glyph-name="paragraph" unicode="&#xb6;" horiz-adv-x="715" 
d="M334 0h-153l44 220q-90 16 -140 72.5t-50 140.5q0 104 80 184q82 80 193 80h467l-29 -140h-67l-114 -557h-152l114 557h-80z" />
    <glyph glyph-name="middot" unicode="&#xb7;" horiz-adv-x="215" 
d="M79 171q-33 0 -54 20t-21 52q0 36 27 63.5t63 27.5q34 0 55 -20.5t21 -52.5q0 -37 -26.5 -63.5t-64.5 -26.5z" />
    <glyph glyph-name="cedilla" unicode="&#xb8;" horiz-adv-x="516" 
d="M113 -77h-1l48 77h84l-31 -46h1q21 -2 36.5 -20.5t15.5 -44.5q0 -46 -36 -76.5t-93 -30.5q-73 0 -101 31l41 61q19 -16 48 -16q17 0 29 10.5t12 24.5q0 30 -53 30z" />
    <glyph glyph-name="onesuperior" unicode="&#xb9;" horiz-adv-x="240" 
d="M186 328h-108l55 273h-55l19 96h164z" />
    <glyph glyph-name="ordmasculine" unicode="&#xba;" horiz-adv-x="468" 
d="M247 314q-85 0 -139 48q-53 50 -53 125q0 87 68 153q67 67 161 67q84 0 139 -50q54 -50 54 -127q0 -85 -67 -151q-67 -65 -163 -65zM259 438q36 0 60 23.5t24 56.5q0 28 -19.5 46.5t-51.5 18.5q-35 0 -60 -24.5t-25 -57.5q0 -27 20 -45t52 -18z" />
    <glyph glyph-name="guillemotright" unicode="&#xbb;" horiz-adv-x="570" 
d="M360 66h-156l170 196l-79 178h141l83 -187zM123 66h-155l169 196l-79 178h142l83 -187z" />
    <glyph glyph-name="onequarter" unicode="&#xbc;" horiz-adv-x="736" 
d="M123 0h-142l589 697h142zM193 328h-109l55 273h-55l20 96h164zM541 63h-214l188 307h106l-136 -222h72l16 75h96l-45 -223h-96z" />
    <glyph glyph-name="onehalf" unicode="&#xbd;" horiz-adv-x="732" 
d="M107 0h-142l589 697h142zM193 328h-109l55 273h-55l20 96h164zM632 0h-302l219 207q30 29 30 49q0 13 -10.5 21.5t-25.5 8.5q-38 0 -47 -46h-96q12 69 51 102.5t96 33.5q56 0 91.5 -32t35.5 -82q0 -56 -52 -105l-63 -59h94z" />
    <glyph glyph-name="threequarters" unicode="&#xbe;" horiz-adv-x="777" 
d="M184 0h-142l589 697h142zM28 397l91 54q15 -34 55 -34q25 0 41 13t16 32q0 39 -69 39q-41 0 -59 -7l101 107h-108l20 96h271l-130 -137v-1q36 -8 58.5 -34t22.5 -61q0 -60 -47 -101t-121 -41q-47 0 -86.5 20.5t-55.5 54.5zM582 63h-214l188 307h106l-136 -222h72l16 75
h96l-45 -223h-96z" />
    <glyph glyph-name="questiondown" unicode="&#xbf;" horiz-adv-x="437" 
d="M230 357q-33 0 -53.5 19.5t-20.5 50.5q0 35 26 60.5t63 25.5q32 0 53 -19t21 -49q0 -35 -26.5 -61.5t-62.5 -26.5zM97 -41q0 -14 16.5 -23.5t43.5 -9.5q74 0 158 48l-29 -142q-64 -44 -147 -44q-85 0 -140 41q-55 40 -55 104q0 63 35 103q33 39 120 80q6 3 19 9t18.5 8.5
t15 8t14 9t9.5 8.5t7 10.5t2 11.5q0 27 -45 27q-33 0 -72 -13l23 113q36 17 88 17q67 0 109 -36t42 -93q0 -58 -33 -98t-104 -74q-29 -14 -59 -27q-36 -18 -36 -38z" />
    <glyph glyph-name="Agrave" unicode="&#xc0;" horiz-adv-x="740" 
d="M178 111l-76 -111h-167l513 737l213 -737h-153l-30 111h-300zM395 427l-129 -185h179zM503 745h-106l-71 145h154z" />
    <glyph glyph-name="Aacute" unicode="&#xc1;" horiz-adv-x="740" 
d="M178 111l-76 -111h-167l513 737l213 -737h-153l-30 111h-300zM395 427l-129 -185h179zM504 745h-116l80 145h165z" />
    <glyph glyph-name="Acircumflex" unicode="&#xc2;" horiz-adv-x="740" 
d="M178 111l-76 -111h-167l513 737l213 -737h-153l-30 111h-300zM395 427l-129 -185h179zM393 753h-145l225 155l161 -155h-131l-44 59z" />
    <glyph glyph-name="Atilde" unicode="&#xc3;" horiz-adv-x="740" 
d="M178 111l-76 -111h-167l513 737l213 -737h-153l-30 111h-300zM395 427l-129 -185h179zM319 751l-80 12q14 57 52.5 91.5t89.5 34.5q36 0 79 -22q44 -21 67 -21q34 0 53 43l81 -12q-31 -133 -145 -133q-39 0 -82 22t-66 22q-36 0 -49 -37z" />
    <glyph glyph-name="Adieresis" unicode="&#xc4;" horiz-adv-x="740" 
d="M572 704q-30 0 -48.5 17t-18.5 44q0 31 23.5 54.5t56.5 23.5q30 0 49 -17.5t19 -44.5q0 -30 -24 -53.5t-57 -23.5zM309 704q-30 0 -48.5 17t-18.5 44q0 31 23.5 54.5t56.5 23.5q30 0 49 -17.5t19 -44.5q0 -31 -23.5 -54t-57.5 -23zM178 111l-76 -111h-167l513 737
l213 -737h-153l-30 111h-300zM395 427l-129 -185h179z" />
    <glyph glyph-name="Aring" unicode="&#xc5;" horiz-adv-x="740" 
d="M178 111l-76 -111h-167l443 636q-56 27 -56 90q0 52 39 91q41 39 96 39q49 0 81 -29.5t32 -75.5q0 -39 -25.5 -72t-66.5 -47l183 -632h-153l-30 111h-300zM442 702q18 0 30.5 13t12.5 29q0 15 -9.5 24.5t-25.5 9.5q-18 0 -30.5 -12.5t-12.5 -29.5q0 -15 10 -24.5t25 -9.5
zM395 427l-129 -185h179z" />
    <glyph glyph-name="AE" unicode="&#xc6;" horiz-adv-x="938" 
d="M204 117l-115 -117h-196l680 697h383l-29 -140h-245l-28 -131h227l-27 -137h-227l-30 -149h254l-29 -140h-407l25 117h-236zM505 440l-188 -200h147z" />
    <glyph glyph-name="Ccedilla" unicode="&#xc7;" horiz-adv-x="670" 
d="M168 -187l41 61q19 -16 48 -16q17 0 28.5 10.5t11.5 24.5q0 30 -52 30h-1l45 75q-119 23 -191 107q-71 86 -71 203q0 160 122 280q123 120 293 120q148 0 233 -77l-31 -152q-82 90 -212 90q-104 0 -178 -75q-73 -74 -73 -173q0 -85 57 -140q58 -54 150 -54q109 0 196 63
l-31 -154q-65 -47 -178 -47h-7l-23 -35q22 -2 37.5 -20.5t15.5 -44.5q0 -46 -36 -76.5t-93 -30.5q-73 0 -101 31z" />
    <glyph glyph-name="Egrave" unicode="&#xc8;" horiz-adv-x="597" 
d="M480 0h-483l142 697h476l-29 -140h-321l-27 -131h300l-27 -137h-300l-30 -149h328zM453 745h-106l-71 145h154z" />
    <glyph glyph-name="Eacute" unicode="&#xc9;" horiz-adv-x="597" 
d="M480 0h-483l142 697h476l-29 -140h-321l-27 -131h300l-27 -137h-300l-30 -149h328zM429 745h-116l80 145h165z" />
    <glyph glyph-name="Ecircumflex" unicode="&#xca;" horiz-adv-x="597" 
d="M480 0h-483l142 697h476l-29 -140h-321l-27 -131h300l-27 -137h-300l-30 -149h328zM338 753h-145l225 155l161 -155h-131l-44 59z" />
    <glyph glyph-name="Edieresis" unicode="&#xcb;" horiz-adv-x="597" 
d="M494 743q-30 0 -49 17t-19 44q0 31 24 54.5t57 23.5q30 0 49 -17.5t19 -45.5q0 -30 -24 -53t-57 -23zM285 743q-30 0 -48.5 17t-18.5 44q0 31 23.5 54.5t56.5 23.5q30 0 49 -17.5t19 -45.5q0 -30 -24 -53t-57 -23zM480 0h-483l142 697h476l-29 -140h-321l-27 -131h300
l-27 -137h-300l-30 -149h328z" />
    <glyph glyph-name="Igrave" unicode="&#xcc;" horiz-adv-x="299" 
d="M156 0h-155l142 697h155zM300 745h-106l-71 145h154z" />
    <glyph glyph-name="Iacute" unicode="&#xcd;" horiz-adv-x="299" 
d="M156 0h-155l142 697h155zM271 745h-116l80 145h165z" />
    <glyph glyph-name="Icircumflex" unicode="&#xce;" horiz-adv-x="299" 
d="M156 0h-155l142 697h155zM184 753h-145l225 155l161 -155h-131l-44 59z" />
    <glyph glyph-name="Idieresis" unicode="&#xcf;" horiz-adv-x="299" 
d="M335 743q-29 0 -48 17t-19 44q0 31 24 54.5t57 23.5q30 0 49 -17.5t19 -45.5q0 -31 -23.5 -53.5t-58.5 -22.5zM133 743q-30 0 -48.5 17t-18.5 44q0 31 23.5 54.5t56.5 23.5q30 0 49 -17.5t19 -45.5q0 -30 -24 -53t-57 -23zM156 0h-155l142 697h155z" />
    <glyph glyph-name="Eth" unicode="&#xd0;" horiz-adv-x="738" 
d="M335 0h-329l57 281h-70l28 139h70l57 277h246q144 0 235 -88t91 -225q0 -150 -111 -267t-274 -117zM218 281l-29 -141h149q94 0 159 69q66 71 66 159q0 82 -51 135q-50 53 -133 53h-105l-28 -136h135l-28 -139h-135z" />
    <glyph glyph-name="Ntilde" unicode="&#xd1;" horiz-adv-x="756" 
d="M330 751l-80 12q14 57 52.5 91.5t89.5 34.5q36 0 79 -22q44 -21 67 -21q34 0 53 43l81 -12q-31 -133 -145 -133q-38 0 -81 22t-67 22q-36 0 -49 -37zM150 0h-153l148 724l378 -431l83 404h153l-148 -724l-380 430z" />
    <glyph glyph-name="Ograve" unicode="&#xd2;" horiz-adv-x="826" 
d="M28 309q0 103 54 195q57 93 151 148q98 56 210 56q154 0 255 -92q100 -91 100 -234q0 -155 -119 -276q-119 -120 -296 -120q-155 0 -255 90q-100 91 -100 233zM181 321q0 -87 58 -142q59 -54 153 -54q105 0 179 74q74 76 74 170q0 88 -59 144t-152 56q-103 0 -178 -75
t-75 -173zM537 745h-106l-71 145h154z" />
    <glyph glyph-name="Oacute" unicode="&#xd3;" horiz-adv-x="826" 
d="M28 309q0 103 54 195q57 93 151 148q98 56 210 56q154 0 255 -92q100 -91 100 -234q0 -155 -119 -276q-119 -120 -296 -120q-155 0 -255 90q-100 91 -100 233zM181 321q0 -87 58 -142q59 -54 153 -54q105 0 179 74q74 76 74 170q0 88 -59 144t-152 56q-103 0 -178 -75
t-75 -173zM532 745h-116l80 145h165z" />
    <glyph glyph-name="Ocircumflex" unicode="&#xd4;" horiz-adv-x="826" 
d="M28 309q0 103 54 195q57 93 151 148q98 56 210 56q154 0 255 -92q100 -91 100 -234q0 -155 -119 -276q-119 -120 -296 -120q-155 0 -255 90q-100 91 -100 233zM181 321q0 -87 58 -142q59 -54 153 -54q105 0 179 74q74 76 74 170q0 88 -59 144t-152 56q-103 0 -178 -75
t-75 -173zM431 753h-145l225 155l161 -155h-131l-44 59z" />
    <glyph glyph-name="Otilde" unicode="&#xd5;" horiz-adv-x="826" 
d="M362 751l-80 12q14 57 52.5 91.5t89.5 34.5q36 0 79 -22q43 -21 67 -21q34 0 53 43l81 -12q-31 -133 -145 -133q-38 0 -81 22t-67 22q-36 0 -49 -37zM28 309q0 103 54 195q57 93 151 148q98 56 210 56q154 0 255 -92q100 -91 100 -234q0 -155 -119 -276
q-119 -120 -296 -120q-155 0 -255 90q-100 91 -100 233zM181 321q0 -87 58 -142q59 -54 153 -54q105 0 179 74q74 76 74 170q0 88 -59 144t-152 56q-103 0 -178 -75t-75 -173z" />
    <glyph glyph-name="Odieresis" unicode="&#xd6;" horiz-adv-x="826" 
d="M581 737q-30 0 -48.5 17t-18.5 44q0 31 23.5 54.5t56.5 23.5q30 0 49.5 -18t19.5 -45q0 -31 -23.5 -53.5t-58.5 -22.5zM372 737q-30 0 -48.5 17t-18.5 44q0 31 23.5 54.5t56.5 23.5q30 0 49 -18t19 -45q0 -31 -23 -53.5t-58 -22.5zM28 309q0 103 54 195q57 93 151 148
q98 56 210 56q154 0 255 -92q100 -91 100 -234q0 -155 -119 -276q-119 -120 -296 -120q-155 0 -255 90q-100 91 -100 233zM181 321q0 -87 58 -142q59 -54 153 -54q105 0 179 74q74 76 74 170q0 88 -59 144t-152 56q-103 0 -178 -75t-75 -173z" />
    <glyph glyph-name="multiply" unicode="&#xd7;" horiz-adv-x="467" 
d="M216 241l-128 -107l-82 99l133 112l-88 112l103 81l88 -112l125 105l83 -99l-131 -110l86 -108l-102 -82z" />
    <glyph glyph-name="Oslash" unicode="&#xd8;" horiz-adv-x="825" 
d="M101 -58l-86 79l84 85q-71 86 -71 203q0 103 54 195q57 93 151 148q98 56 210 56q110 0 196 -50l89 90l85 -79l-84 -86q69 -87 69 -201q0 -155 -119 -276q-119 -120 -296 -120q-108 0 -194 47zM213 222l316 325q-40 22 -95 22q-103 0 -178 -75t-75 -173q0 -53 32 -99z
M614 467l-315 -323q37 -19 93 -19q105 0 179 74q74 76 74 170q0 57 -31 98z" />
    <glyph glyph-name="Ugrave" unicode="&#xd9;" horiz-adv-x="715" 
d="M40 243q0 40 10 91l74 363h155l-85 -413q-2 -18 -2 -35q0 -56 34.5 -88t97.5 -32q130 0 161 151l85 417h154l-86 -424q-29 -144 -109.5 -214t-217.5 -70q-96 0 -177 52q-43 29 -68.5 81.5t-25.5 120.5zM503 745h-106l-71 145h154z" />
    <glyph glyph-name="Uacute" unicode="&#xda;" horiz-adv-x="715" 
d="M40 243q0 40 10 91l74 363h155l-85 -413q-2 -18 -2 -35q0 -56 34.5 -88t97.5 -32q130 0 161 151l85 417h154l-86 -424q-29 -144 -109.5 -214t-217.5 -70q-96 0 -177 52q-43 29 -68.5 81.5t-25.5 120.5zM466 745h-116l80 145h165z" />
    <glyph glyph-name="Ucircumflex" unicode="&#xdb;" horiz-adv-x="715" 
d="M40 243q0 40 10 91l74 363h155l-85 -413q-2 -18 -2 -35q0 -56 34.5 -88t97.5 -32q130 0 161 151l85 417h154l-86 -424q-29 -144 -109.5 -214t-217.5 -70q-96 0 -177 52q-43 29 -68.5 81.5t-25.5 120.5zM382 753h-145l225 155l161 -155h-131l-44 59z" />
    <glyph glyph-name="Udieresis" unicode="&#xdc;" horiz-adv-x="715" 
d="M538 737q-30 0 -49 17t-19 44q0 31 24 54.5t57 23.5q30 0 49 -18t19 -45q0 -30 -24 -53t-57 -23zM329 737q-30 0 -48.5 17t-18.5 44q0 31 23.5 54.5t56.5 23.5q30 0 49 -18t19 -45q0 -30 -24 -53t-57 -23zM40 243q0 40 10 91l74 363h155l-85 -413q-2 -18 -2 -35
q0 -56 34.5 -88t97.5 -32q130 0 161 151l85 417h154l-86 -424q-29 -144 -109.5 -214t-217.5 -70q-96 0 -177 52q-43 29 -68.5 81.5t-25.5 120.5z" />
    <glyph glyph-name="Yacute" unicode="&#xdd;" horiz-adv-x="683" 
d="M346 0h-153l52 258l-168 439h161l107 -284l219 284h180l-349 -452zM460 745h-116l80 145h165z" />
    <glyph glyph-name="Thorn" unicode="&#xde;" horiz-adv-x="553" 
d="M152 0h-155l142 697h155l-26 -125h34q100 0 163 -57q64 -57 64 -146q0 -97 -76 -172q-75 -75 -186 -75h-90zM240 433l-35 -172h72q41 0 69.5 29t28.5 68q0 32 -24 53.5t-61 21.5h-50z" />
    <glyph glyph-name="germandbls" unicode="&#xdf;" horiz-adv-x="597" 
d="M129 0h-151l107 524q18 92 75.5 140t142.5 48q84 0 137 -47t53 -119q0 -59 -48 -100q51 -25 80.5 -73.5t29.5 -108.5q0 -112 -80 -195q-79 -82 -207 -82q-53 0 -90 8l27 133q22 -5 64 -5q57 0 98 39q40 39 40 90q0 47 -33 77t-86 30q-12 0 -37 -5l20 97q83 12 83 71
q0 24 -16 39t-42 15q-23 0 -40.5 -17.5t-22.5 -44.5z" />
    <glyph glyph-name="agrave" unicode="&#xe0;" 
d="M2 222q0 118 87 204q89 87 202 87q61 0 106.5 -20t57.5 -49l13 60h147l-103 -504h-145l13 62q-46 -70 -151 -70q-94 0 -161 64q-66 64 -66 166zM152 237q0 -49 34 -80t90 -31q61 0 105 41q44 42 44 104q0 48 -34.5 78t-89.5 30q-63 0 -106 -43t-43 -99zM427 552h-106
l-71 145h154z" />
    <glyph glyph-name="aacute" unicode="&#xe1;" 
d="M2 222q0 118 87 204q89 87 202 87q61 0 106.5 -20t57.5 -49l13 60h147l-103 -504h-145l13 62q-46 -70 -151 -70q-94 0 -161 64q-66 64 -66 166zM152 237q0 -49 34 -80t90 -31q61 0 105 41q44 42 44 104q0 48 -34.5 78t-89.5 30q-63 0 -106 -43t-43 -99zM409 552h-116
l80 145h165z" />
    <glyph glyph-name="acircumflex" unicode="&#xe2;" 
d="M2 222q0 118 87 204q89 87 202 87q61 0 106.5 -20t57.5 -49l13 60h147l-103 -504h-145l13 62q-46 -70 -151 -70q-94 0 -161 64q-66 64 -66 166zM152 237q0 -49 34 -80t90 -31q61 0 105 41q44 42 44 104q0 48 -34.5 78t-89.5 30q-63 0 -106 -43t-43 -99zM316 560h-145
l225 155l161 -155h-131l-44 59z" />
    <glyph glyph-name="atilde" unicode="&#xe3;" 
d="M2 222q0 118 87 204q89 87 202 87q61 0 106.5 -20t57.5 -49l13 60h147l-103 -504h-145l13 62q-46 -70 -151 -70q-94 0 -161 64q-66 64 -66 166zM152 237q0 -49 34 -80t90 -31q61 0 105 41q44 42 44 104q0 48 -34.5 78t-89.5 30q-63 0 -106 -43t-43 -99zM241 569l-80 12
q14 57 52.5 91.5t89.5 34.5q36 0 79 -22q43 -21 67 -21q34 0 53 43l81 -12q-31 -133 -145 -133q-39 0 -82 22t-66 22q-36 0 -49 -37z" />
    <glyph glyph-name="adieresis" unicode="&#xe4;" 
d="M2 222q0 118 87 204q89 87 202 87q61 0 106.5 -20t57.5 -49l13 60h147l-103 -504h-145l13 62q-46 -70 -151 -70q-94 0 -161 64q-66 64 -66 166zM152 237q0 -49 34 -80t90 -31q61 0 105 41q44 42 44 104q0 48 -34.5 78t-89.5 30q-63 0 -106 -43t-43 -99zM473 555
q-30 0 -48.5 17t-18.5 44q0 31 23.5 54.5t56.5 23.5q30 0 49 -17.5t19 -45.5q0 -30 -24 -53t-57 -23zM264 555q-30 0 -48.5 17t-18.5 44q0 31 23.5 54.5t56.5 23.5q30 0 49 -17.5t19 -45.5q0 -30 -24 -53t-57 -23z" />
    <glyph glyph-name="aring" unicode="&#xe5;" 
d="M2 222q0 118 87 204q89 87 202 87q61 0 106.5 -20t57.5 -49l13 60h147l-103 -504h-145l13 62q-46 -70 -151 -70q-94 0 -161 64q-66 64 -66 166zM152 237q0 -49 34 -80t90 -31q61 0 105 41q44 42 44 104q0 48 -34.5 78t-89.5 30q-63 0 -106 -43t-43 -99zM376 547
q-49 0 -80.5 28.5t-31.5 72.5q0 52 39 91q41 39 95 39q50 0 82 -29.5t32 -75.5q0 -49 -40 -88q-40 -38 -96 -38zM384 624q18 0 31.5 13t13.5 29q0 15 -10.5 24.5t-26.5 9.5q-18 0 -31 -12.5t-13 -29.5q0 -15 10 -24.5t26 -9.5z" />
    <glyph glyph-name="ae" unicode="&#xe6;" horiz-adv-x="870" 
d="M-16 127q0 101 80 143q66 33 182 44l54 5q37 4 49 11q15 10 15 29q0 18 -21 29.5t-55 11.5q-74 0 -138 -64l-79 79q84 105 224 105q115 0 159 -62q64 58 160 58q99 0 160 -64t61 -164q0 -37 -12 -76h-346q-1 -1 -1 -8q0 -42 30 -67t82 -25q70 0 117 47l72 -83
q-87 -90 -213 -90q-120 0 -177 75q-59 -74 -215 -74q-84 0 -136 39q-52 40 -52 101zM487 312h205v3q0 34 -24.5 56.5t-63.5 22.5q-41 0 -72.5 -22.5t-44.5 -59.5zM128 155q0 -20 21.5 -31.5t58.5 -11.5q98 0 130 71v29l2 24q-18 -11 -44 -13q-35 -2 -67 -8q-40 -6 -65 -14
q-36 -12 -36 -46z" />
    <glyph glyph-name="ccedilla" unicode="&#xe7;" horiz-adv-x="502" 
d="M58 -187l41 61q19 -16 48 -16q17 0 29 10.5t12 24.5q0 30 -53 30h-1l46 74q-82 21 -130 82t-48 145q0 119 91 207q92 89 218 89q112 0 177 -56l-28 -136q-63 51 -145 51q-67 0 -116 -44q-48 -43 -48 -98q0 -49 37.5 -80t98.5 -31q80 0 141 43l-30 -146q-46 -36 -138 -36
h-3l-22 -33q21 -2 37 -20.5t16 -44.5q0 -46 -36 -76.5t-93 -30.5q-73 0 -101 31z" />
    <glyph glyph-name="egrave" unicode="&#xe8;" horiz-adv-x="577" 
d="M1 216q0 120 87 210t214 90q108 0 172 -63q65 -62 65 -159q0 -40 -15 -82h-373q-1 -2 -1 -8q0 -41 34 -65.5t91 -24.5q92 0 171 41l-30 -132q-68 -36 -165 -36q-115 0 -182 63q-68 63 -68 166zM163 309h233v5q0 34 -27.5 56t-72.5 22q-42 0 -79.5 -21.5t-53.5 -61.5z
M386 552h-106l-71 145h154z" />
    <glyph glyph-name="eacute" unicode="&#xe9;" horiz-adv-x="577" 
d="M1 216q0 120 87 210t214 90q108 0 172 -63q65 -62 65 -159q0 -40 -15 -82h-373q-1 -2 -1 -8q0 -41 34 -65.5t91 -24.5q92 0 171 41l-30 -132q-68 -36 -165 -36q-115 0 -182 63q-68 63 -68 166zM163 309h233v5q0 34 -27.5 56t-72.5 22q-42 0 -79.5 -21.5t-53.5 -61.5z
M370 552h-116l80 145h165z" />
    <glyph glyph-name="ecircumflex" unicode="&#xea;" horiz-adv-x="577" 
d="M1 216q0 120 87 210t214 90q108 0 172 -63q65 -62 65 -159q0 -40 -15 -82h-373q-1 -2 -1 -8q0 -41 34 -65.5t91 -24.5q92 0 171 41l-30 -132q-68 -36 -165 -36q-115 0 -182 63q-68 63 -68 166zM163 309h233v5q0 34 -27.5 56t-72.5 22q-42 0 -79.5 -21.5t-53.5 -61.5z
M273 560h-145l225 155l161 -155h-131l-44 59z" />
    <glyph glyph-name="edieresis" unicode="&#xeb;" horiz-adv-x="577" 
d="M1 216q0 120 87 210t214 90q108 0 172 -63q65 -62 65 -159q0 -40 -15 -82h-373q-1 -2 -1 -8q0 -41 34 -65.5t91 -24.5q92 0 171 41l-30 -132q-68 -36 -165 -36q-115 0 -182 63q-68 63 -68 166zM163 309h233v5q0 34 -27.5 56t-72.5 22q-42 0 -79.5 -21.5t-53.5 -61.5z
M438 555q-30 0 -48.5 17t-18.5 44q0 31 23.5 54.5t56.5 23.5q30 0 49 -17.5t19 -45.5q0 -30 -24 -53t-57 -23zM229 555q-30 0 -48.5 17t-18.5 44q0 31 23.5 54.5t56.5 23.5q30 0 49 -17.5t19 -45.5q0 -30 -24 -53t-57 -23z" />
    <glyph glyph-name="igrave" unicode="&#xec;" horiz-adv-x="242" 
d="M130 0h-150l103 504h150zM229 552h-106l-71 145h154z" />
    <glyph glyph-name="iacute" unicode="&#xed;" horiz-adv-x="242" 
d="M130 0h-150l103 504h150zM206 552h-116l80 145h165z" />
    <glyph glyph-name="icircumflex" unicode="&#xee;" horiz-adv-x="294" 
d="M156 560h-138l200 155l136 -155h-128l-23 57zM151 0h-150l103 504h150z" />
    <glyph glyph-name="idieresis" unicode="&#xef;" horiz-adv-x="285" 
d="M277 559q-29 0 -47.5 16.5t-18.5 42.5q0 30 23 53t55 23q29 0 47.5 -17t18.5 -43q0 -30 -22.5 -52.5t-55.5 -22.5zM104 559q-29 0 -47 16.5t-18 42.5q0 30 23 53t55 23q28 0 47 -17t19 -43q0 -30 -23 -52.5t-56 -22.5zM146 0h-149l103 504h149z" />
    <glyph glyph-name="eth" unicode="&#xf0;" horiz-adv-x="543" 
d="M-3 197q0 97 74 173q73 75 177 75q83 0 130 -50h1q-14 69 -64 121l-70 -60l-71 76l61 55q-43 28 -96 41l56 109q75 -18 140 -62l83 74l71 -78l-76 -67q96 -110 96 -274v-1q0 -141 -81 -241q-81 -99 -207 -99q-100 0 -162 58q-62 59 -62 150zM142 211q0 -38 27 -62.5
t70 -24.5q45 0 77 32q32 34 32 75q0 38 -26 62t-68 24q-46 0 -79 -33q-33 -32 -33 -73z" />
    <glyph glyph-name="ntilde" unicode="&#xf1;" horiz-adv-x="584" 
d="M128 0h-149l102 504h150l-14 -67q54 78 147 78q79 0 126 -45.5t47 -124.5q0 -23 -5 -51l-61 -294h-150l57 281q3 15 3 28q0 35 -21.5 54.5t-61.5 19.5q-42 0 -73 -28.5t-41 -74.5zM215 569l-80 12q14 57 52.5 91.5t89.5 34.5q36 0 79 -22q43 -21 67 -21q34 0 53 43
l81 -12q-31 -133 -145 -133q-39 0 -82 22t-66 22q-36 0 -49 -37z" />
    <glyph glyph-name="ograve" unicode="&#xf2;" horiz-adv-x="616" 
d="M2 225q0 116 92 205t219 89q113 0 187 -69q73 -67 73 -173q0 -115 -90 -204q-88 -88 -220 -88q-115 0 -188 67t-73 173zM151 237q0 -51 34.5 -83t90.5 -32q62 0 105 43t43 99q0 52 -34.5 85t-89.5 33q-62 0 -106 -44q-43 -43 -43 -101zM405 552h-106l-71 145h154z" />
    <glyph glyph-name="oacute" unicode="&#xf3;" horiz-adv-x="616" 
d="M2 225q0 116 92 205t219 89q113 0 187 -69q73 -67 73 -173q0 -115 -90 -204q-88 -88 -220 -88q-115 0 -188 67t-73 173zM151 237q0 -51 34.5 -83t90.5 -32q62 0 105 43t43 99q0 52 -34.5 85t-89.5 33q-62 0 -106 -44q-43 -43 -43 -101zM385 552h-116l80 145h165z" />
    <glyph glyph-name="ocircumflex" unicode="&#xf4;" horiz-adv-x="616" 
d="M2 225q0 116 92 205t219 89q113 0 187 -69q73 -67 73 -173q0 -115 -90 -204q-88 -88 -220 -88q-115 0 -188 67t-73 173zM151 237q0 -51 34.5 -83t90.5 -32q62 0 105 43t43 99q0 52 -34.5 85t-89.5 33q-62 0 -106 -44q-43 -43 -43 -101zM284 560h-145l225 155l161 -155
h-131l-44 59z" />
    <glyph glyph-name="otilde" unicode="&#xf5;" horiz-adv-x="616" 
d="M2 225q0 116 92 205t219 89q113 0 187 -69q73 -67 73 -173q0 -115 -90 -204q-88 -88 -220 -88q-115 0 -188 67t-73 173zM151 237q0 -51 34.5 -83t90.5 -32q62 0 105 43t43 99q0 52 -34.5 85t-89.5 33q-62 0 -106 -44q-43 -43 -43 -101zM219 569l-80 12q14 57 52.5 91.5
t89.5 34.5q36 0 79 -22q43 -21 67 -21q34 0 53 43l81 -12q-31 -133 -145 -133q-39 0 -82 22t-66 22q-36 0 -49 -37z" />
    <glyph glyph-name="odieresis" unicode="&#xf6;" horiz-adv-x="616" 
d="M2 225q0 116 92 205t219 89q113 0 187 -69q73 -67 73 -173q0 -115 -90 -204q-88 -88 -220 -88q-115 0 -188 67t-73 173zM151 237q0 -51 34.5 -83t90.5 -32q62 0 105 43t43 99q0 52 -34.5 85t-89.5 33q-62 0 -106 -44q-43 -43 -43 -101zM449 555q-30 0 -48.5 17t-18.5 44
q0 31 23.5 54.5t56.5 23.5q30 0 49 -17.5t19 -45.5q0 -30 -24 -53t-57 -23zM240 555q-30 0 -48.5 17t-18.5 44q0 31 23.5 54.5t56.5 23.5q30 0 49 -17.5t19 -45.5q0 -30 -24 -53t-57 -23z" />
    <glyph glyph-name="divide" unicode="&#xf7;" horiz-adv-x="537" 
d="M298 450q-33 0 -54 20t-21 51q0 37 26.5 64.5t63.5 27.5q34 0 55 -20.5t21 -52.5q0 -37 -26.5 -63.5t-64.5 -26.5zM482 284h-452l26 129h452zM223 84q-33 0 -54 20t-21 51q0 36 27 64t63 28q34 0 55 -20.5t21 -52.5q0 -37 -26.5 -63.5t-64.5 -26.5z" />
    <glyph glyph-name="oslash" unicode="&#xf8;" horiz-adv-x="616" 
d="M64 -54l-72 64l61 66q-51 65 -51 149q0 116 92 205t219 89q72 0 133 -31l60 63l72 -64l-57 -59q52 -64 52 -151q0 -115 -90 -204q-88 -88 -220 -88q-75 0 -133 30zM161 185l180 190q-17 9 -41 9q-64 0 -107 -45q-44 -44 -44 -102q0 -27 12 -52zM413 317l-180 -189
q18 -8 43 -8q62 0 106 44t44 100q0 30 -13 53z" />
    <glyph glyph-name="ugrave" unicode="&#xf9;" horiz-adv-x="577" 
d="M11 188q0 32 9 73l50 243h151l-55 -276q-3 -15 -3 -32q0 -32 23 -52.5t64 -20.5q86 0 105 96l59 285h150l-59 -292q-24 -120 -97 -173q-74 -53 -170 -53q-104 0 -166 57q-61 58 -61 145zM389 552h-106l-71 145h154z" />
    <glyph glyph-name="uacute" unicode="&#xfa;" horiz-adv-x="577" 
d="M11 188q0 32 9 73l50 243h151l-55 -276q-3 -15 -3 -32q0 -32 23 -52.5t64 -20.5q86 0 105 96l59 285h150l-59 -292q-24 -120 -97 -173q-74 -53 -170 -53q-104 0 -166 57q-61 58 -61 145zM363 552h-116l80 145h165z" />
    <glyph glyph-name="ucircumflex" unicode="&#xfb;" horiz-adv-x="577" 
d="M11 188q0 32 9 73l50 243h151l-55 -276q-3 -15 -3 -32q0 -32 23 -52.5t64 -20.5q86 0 105 96l59 285h150l-59 -292q-24 -120 -97 -173q-74 -53 -170 -53q-104 0 -166 57q-61 58 -61 145zM273 560h-145l225 155l161 -155h-131l-44 59z" />
    <glyph glyph-name="udieresis" unicode="&#xfc;" horiz-adv-x="577" 
d="M434 555q-30 0 -48.5 17t-18.5 44q0 31 23.5 54.5t56.5 23.5q30 0 49 -17.5t19 -45.5q0 -30 -24 -53t-57 -23zM227 555q-30 0 -48.5 17t-18.5 44q0 31 23.5 54.5t56.5 23.5q30 0 49 -17.5t19 -45.5q0 -30 -24 -53t-57 -23zM11 188q0 32 9 73l50 243h151l-55 -276
q-3 -15 -3 -32q0 -32 23 -52.5t64 -20.5q86 0 105 96l59 285h150l-59 -292q-24 -120 -97 -173q-74 -53 -170 -53q-104 0 -166 57q-61 58 -61 145z" />
    <glyph glyph-name="yacute" unicode="&#xfd;" horiz-adv-x="594" 
d="M20 -194l125 199l-108 499h147l65 -333l208 333h160l-439 -698h-158zM369 552h-116l80 145h165z" />
    <glyph glyph-name="thorn" unicode="&#xfe;" horiz-adv-x="626" 
d="M138 62l-52 -255h-146l181 890h146l-49 -243q45 59 141 59q93 0 160 -65q66 -64 66 -167q0 -114 -85 -202q-86 -87 -201 -87q-60 0 -104.5 19.5t-56.5 50.5zM168 238q0 -49 32.5 -80.5t85.5 -31.5q62 0 106 42q45 42 45 97q0 51 -35 82.5t-92 31.5q-61 0 -101 -43
q-41 -44 -41 -98z" />
    <glyph glyph-name="ydieresis" unicode="&#xff;" horiz-adv-x="594" 
d="M438 555q-30 0 -48.5 17t-18.5 44q0 31 23.5 54.5t56.5 23.5q31 0 49.5 -17.5t18.5 -45.5q0 -31 -23 -53.5t-58 -22.5zM230 555q-30 0 -48.5 17t-18.5 44q0 31 23.5 54.5t56.5 23.5q30 0 49 -17.5t19 -45.5q0 -30 -24 -53t-57 -23zM20 -194l125 199l-108 499h147l65 -333
l208 333h160l-439 -698h-158z" />
    <glyph glyph-name="Amacron" unicode="&#x100;" horiz-adv-x="740" 
d="M603 756h-318l20 96h317zM178 111l-76 -111h-167l513 737l213 -737h-153l-30 111h-300zM395 427l-129 -185h179z" />
    <glyph glyph-name="amacron" unicode="&#x101;" 
d="M2 222q0 118 87 204q89 87 202 87q61 0 106.5 -20t57.5 -49l13 60h147l-103 -504h-145l13 62q-46 -70 -151 -70q-94 0 -161 64q-66 64 -66 166zM152 237q0 -49 34 -80t90 -31q61 0 105 41q44 42 44 104q0 48 -34.5 78t-89.5 30q-63 0 -106 -43t-43 -99zM533 571h-317
l19 96h317z" />
    <glyph glyph-name="Abreve" unicode="&#x102;" horiz-adv-x="740" 
d="M178 111l-76 -111h-167l513 737l213 -737h-153l-30 111h-300zM395 427l-129 -185h179zM456 747q-76 0 -119 39.5t-43 104.5h106q6 -47 63 -47q56 0 77 47h106q-19 -65 -69 -104.5t-121 -39.5z" />
    <glyph glyph-name="abreve" unicode="&#x103;" 
d="M2 222q0 118 87 204q89 87 202 87q61 0 106.5 -20t57.5 -49l13 60h147l-103 -504h-145l13 62q-46 -70 -151 -70q-94 0 -161 64q-66 64 -66 166zM152 237q0 -49 34 -80t90 -31q61 0 105 41q44 42 44 104q0 48 -34.5 78t-89.5 30q-63 0 -106 -43t-43 -99zM380 554
q-76 0 -119 39.5t-43 104.5h106q6 -47 63 -47q56 0 77 47h106q-19 -65 -69 -104.5t-121 -39.5z" />
    <glyph glyph-name="Aogonek" unicode="&#x104;" horiz-adv-x="777" 
d="M178 111l-76 -111h-167l513 737l213 -737q-87 -50 -87 -91q0 -23 28.5 -29.5t74.5 5.5l-41 -95q-21 -8 -43 -8q-54 0 -88 28t-34 72q0 66 96 118h-59l-30 111h-300zM395 427l-129 -185h179z" />
    <glyph glyph-name="aogonek" unicode="&#x105;" 
d="M2 222q0 118 87 204q89 87 202 87q61 0 106.5 -20t57.5 -49l13 60h147l-103 -504q-87 -50 -87 -91q0 -23 27.5 -29.5t74.5 5.5l-41 -95q-19 -8 -43 -8q-53 0 -87 28t-34 72q0 66 97 118h-52l13 62q-46 -70 -151 -70q-94 0 -161 64q-66 64 -66 166zM152 237q0 -49 34 -80
t90 -31q61 0 105 41q44 42 44 104q0 48 -34.5 78t-89.5 30q-63 0 -106 -43t-43 -99z" />
    <glyph glyph-name="Cacute" unicode="&#x106;" horiz-adv-x="670" 
d="M27 308q0 160 122 280q123 120 293 120q148 0 233 -77l-31 -152q-82 90 -212 90q-104 0 -178 -75q-73 -74 -73 -173q0 -85 57 -140q58 -54 150 -54q109 0 196 63l-31 -154q-65 -47 -178 -47q-153 0 -251 89q-97 90 -97 230zM517 745h-116l80 145h165z" />
    <glyph glyph-name="cacute" unicode="&#x107;" horiz-adv-x="502" 
d="M2 224q0 119 91 207q92 89 218 89q112 0 177 -56l-28 -136q-63 51 -145 51q-67 0 -116 -44q-48 -43 -48 -98q0 -49 37.5 -80t98.5 -31q80 0 141 43l-30 -146q-46 -36 -138 -36q-112 0 -186 66q-72 67 -72 171zM374 552h-116l80 145h165z" />
    <glyph glyph-name="Ccircumflex" unicode="&#x108;" horiz-adv-x="670" 
d="M27 308q0 160 122 280q123 120 293 120q148 0 233 -77l-31 -152q-82 90 -212 90q-104 0 -178 -75q-73 -74 -73 -173q0 -85 57 -140q58 -54 150 -54q109 0 196 63l-31 -154q-65 -47 -178 -47q-153 0 -251 89q-97 90 -97 230zM422 753h-145l225 155l161 -155h-131l-44 59z
" />
    <glyph glyph-name="ccircumflex" unicode="&#x109;" horiz-adv-x="502" 
d="M2 224q0 119 91 207q92 89 218 89q112 0 177 -56l-28 -136q-63 51 -145 51q-67 0 -116 -44q-48 -43 -48 -98q0 -49 37.5 -80t98.5 -31q80 0 141 43l-30 -146q-46 -36 -138 -36q-112 0 -186 66q-72 67 -72 171zM282 560h-145l225 155l161 -155h-131l-44 59z" />
    <glyph glyph-name="Cdotaccent" unicode="&#x10a;" horiz-adv-x="670" 
d="M484 743q-30 0 -48.5 17.5t-18.5 44.5q0 32 24 56t57 24q30 0 49.5 -18t19.5 -46q0 -31 -24 -54.5t-59 -23.5zM27 308q0 160 122 280q123 120 293 120q148 0 233 -77l-31 -152q-82 90 -212 90q-104 0 -178 -75q-73 -74 -73 -173q0 -85 57 -140q58 -54 150 -54
q109 0 196 63l-31 -154q-65 -47 -178 -47q-153 0 -251 89q-97 90 -97 230z" />
    <glyph glyph-name="cdotaccent" unicode="&#x10b;" horiz-adv-x="502" 
d="M348 555q-30 0 -49 17.5t-19 44.5q0 32 24 56t57 24q30 0 49.5 -18t19.5 -45q0 -32 -24 -55.5t-58 -23.5zM2 224q0 119 91 207q92 89 218 89q112 0 177 -56l-28 -136q-63 51 -145 51q-67 0 -116 -44q-48 -43 -48 -98q0 -49 37.5 -80t98.5 -31q80 0 141 43l-30 -146
q-46 -36 -138 -36q-112 0 -186 66q-72 67 -72 171z" />
    <glyph glyph-name="Ccaron" unicode="&#x10c;" horiz-adv-x="670" 
d="M27 308q0 160 122 280q123 120 293 120q148 0 233 -77l-31 -152q-82 90 -212 90q-104 0 -178 -75q-73 -74 -73 -173q0 -85 57 -140q58 -54 150 -54q109 0 196 63l-31 -154q-65 -47 -178 -47q-153 0 -251 89q-97 90 -97 230zM695 890l-225 -155l-161 155h131l44 -59l66 59
h145z" />
    <glyph glyph-name="ccaron" unicode="&#x10d;" horiz-adv-x="502" 
d="M2 224q0 119 91 207q92 89 218 89q112 0 177 -56l-28 -136q-63 51 -145 51q-67 0 -116 -44q-48 -43 -48 -98q0 -49 37.5 -80t98.5 -31q80 0 141 43l-30 -146q-46 -36 -138 -36q-112 0 -186 66q-72 67 -72 171zM558 702l-225 -155l-161 155h131l44 -59l66 59h145z" />
    <glyph glyph-name="Dcaron" unicode="&#x10e;" horiz-adv-x="738" 
d="M326 0h-329l142 697h246q144 0 235 -88t91 -225q0 -150 -111 -267t-274 -117zM265 556l-85 -416h149q95 0 159 69q66 71 66 159q0 82 -51 135q-50 53 -133 53h-105zM644 890l-225 -155l-161 155h131l44 -59l66 59h145z" />
    <glyph glyph-name="dcaron" unicode="&#x10f;" horiz-adv-x="823" 
d="M2 222q0 118 87 204q89 87 202 87q61 0 106.5 -20t57.5 -49l52 253h147l-142 -697h-145l13 62q-46 -70 -151 -70q-94 0 -161 64q-66 64 -66 166zM152 237q0 -49 34 -80t90 -31q61 0 105 41q44 42 44 104q0 48 -34.5 78t-89.5 30q-63 0 -106 -43t-43 -99zM757 552h-116
l80 145h165z" />
    <glyph glyph-name="Dcroat" unicode="&#x110;" horiz-adv-x="738" 
d="M335 0h-329l57 281h-70l28 139h70l57 277h246q144 0 235 -88t91 -225q0 -150 -111 -267t-274 -117zM218 281l-29 -141h149q94 0 159 69q66 71 66 159q0 82 -51 135q-50 53 -133 53h-105l-28 -136h135l-28 -139h-135z" />
    <glyph glyph-name="dslash" unicode="&#x111;" horiz-adv-x="627" 
d="M2 222q0 118 87 204q89 87 202 87q61 0 106.5 -20t57.5 -49l21 105h-139l19 95h140l11 53h147l-11 -53h48l-19 -95h-48l-112 -549h-145l13 62q-46 -70 -151 -70q-94 0 -161 64q-66 64 -66 166zM152 237q0 -49 34 -80t90 -31q61 0 105 41q44 42 44 104q0 48 -34.5 78
t-89.5 30q-63 0 -106 -43t-43 -99z" />
    <glyph glyph-name="Emacron" unicode="&#x112;" horiz-adv-x="597" 
d="M541 756h-317l20 96h317zM480 0h-483l142 697h476l-29 -140h-321l-27 -131h300l-27 -137h-300l-30 -149h328z" />
    <glyph glyph-name="emacron" unicode="&#x113;" horiz-adv-x="577" 
d="M482 571h-317l20 96h317zM1 216q0 120 87 210t214 90q108 0 172 -63q65 -62 65 -159q0 -40 -15 -82h-373q-1 -2 -1 -8q0 -41 34 -65.5t91 -24.5q92 0 171 41l-30 -132q-68 -36 -165 -36q-115 0 -182 63q-68 63 -68 166zM163 309h233v5q0 34 -27.5 56t-72.5 22
q-42 0 -79.5 -21.5t-53.5 -61.5z" />
    <glyph glyph-name="Ebreve" unicode="&#x114;" horiz-adv-x="597" 
d="M393 747q-76 0 -119 39.5t-43 104.5h106q8 -47 63 -47q56 0 77 47h106q-19 -65 -69 -104.5t-121 -39.5zM480 0h-483l142 697h476l-29 -140h-321l-27 -131h300l-27 -137h-300l-30 -149h328z" />
    <glyph glyph-name="ebreve" unicode="&#x115;" horiz-adv-x="577" 
d="M1 216q0 120 87 210t214 90q108 0 172 -63q65 -62 65 -159q0 -40 -15 -82h-373q-1 -2 -1 -8q0 -41 34 -65.5t91 -24.5q92 0 171 41l-30 -132q-68 -36 -165 -36q-115 0 -182 63q-68 63 -68 166zM163 309h233v5q0 34 -27.5 56t-72.5 22q-42 0 -79.5 -21.5t-53.5 -61.5z
M338 554q-76 0 -119 39.5t-43 104.5h106q6 -47 63 -47q56 0 77 47h106q-19 -65 -69 -104.5t-121 -39.5z" />
    <glyph glyph-name="Edotaccent" unicode="&#x116;" horiz-adv-x="597" 
d="M381 743q-30 0 -48.5 17.5t-18.5 44.5q0 32 24 56t57 24q30 0 49.5 -18t19.5 -46q0 -31 -24 -54.5t-59 -23.5zM480 0h-483l142 697h476l-29 -140h-321l-27 -131h300l-27 -137h-300l-30 -149h328z" />
    <glyph glyph-name="edotaccent" unicode="&#x117;" horiz-adv-x="577" 
d="M330 555q-30 0 -49 17.5t-19 44.5q0 32 24.5 56t57.5 24q30 0 49 -18t19 -45q0 -32 -24 -55.5t-58 -23.5zM1 216q0 120 87 210t214 90q108 0 172 -63q65 -62 65 -159q0 -40 -15 -82h-373q-1 -2 -1 -8q0 -41 34 -65.5t91 -24.5q92 0 171 41l-30 -132q-68 -36 -165 -36
q-115 0 -182 63q-68 63 -68 166zM163 309h233v5q0 34 -27.5 56t-72.5 22q-42 0 -79.5 -21.5t-53.5 -61.5z" />
    <glyph glyph-name="Eogonek" unicode="&#x118;" horiz-adv-x="597" 
d="M388 0h-391l142 697h476l-29 -140h-321l-27 -131h300l-27 -137h-300l-30 -149h328l-29 -140q-87 -50 -87 -91q0 -23 28.5 -29.5t74.5 5.5l-41 -95q-21 -8 -43 -8q-54 0 -88 28t-34 72q0 65 98 118z" />
    <glyph glyph-name="eogonek" unicode="&#x119;" horiz-adv-x="577" 
d="M1 216q0 120 87 210t214 90q108 0 172 -63q65 -62 65 -159q0 -40 -15 -82h-373q-1 -2 -1 -8q0 -41 34 -65.5t91 -24.5q92 0 171 41l-30 -132q-19 -13 -62 -26q-94 -33 -94 -91q0 -23 28.5 -29.5t74.5 5.5l-41 -95q-19 -8 -43 -8q-53 0 -87 28t-34 72q0 35 27 64.5
t63 42.5h-4q-112 2 -177 64q-66 63 -66 166zM163 309h233v5q0 34 -27.5 56t-72.5 22q-42 0 -79.5 -21.5t-53.5 -61.5z" />
    <glyph glyph-name="Ecaron" unicode="&#x11a;" horiz-adv-x="597" 
d="M480 0h-483l142 697h476l-29 -140h-321l-27 -131h300l-27 -137h-300l-30 -149h328zM612 890l-225 -155l-161 155h131l44 -59l66 59h145z" />
    <glyph glyph-name="ecaron" unicode="&#x11b;" horiz-adv-x="577" 
d="M1 216q0 120 87 210t214 90q108 0 172 -63q65 -62 65 -159q0 -40 -15 -82h-373q-1 -2 -1 -8q0 -41 34 -65.5t91 -24.5q92 0 171 41l-30 -132q-68 -36 -165 -36q-115 0 -182 63q-68 63 -68 166zM163 309h233v5q0 34 -27.5 56t-72.5 22q-42 0 -79.5 -21.5t-53.5 -61.5z
M546 702l-225 -155l-161 155h131l44 -59l66 59h145z" />
    <glyph glyph-name="Gcircumflex" unicode="&#x11c;" horiz-adv-x="750" 
d="M27 305q0 105 54 196q54 93 151 150q98 57 211 57q151 0 236 -81l-30 -152q-40 43 -98 68.5t-122 25.5q-101 0 -175 -75q-73 -73 -73 -172q0 -87 57 -141q58 -54 150 -54q73 0 140 42l22 108h-186l27 136h327l-63 -319q-119 -105 -280 -105q-154 0 -251 90t-97 226z
M413 753h-145l225 155l161 -155h-131l-44 59z" />
    <glyph glyph-name="gcircumflex" unicode="&#x11d;" 
d="M-29 -149l26 132q36 -37 91.5 -57.5t115.5 -20.5q144 0 172 123l7 30q-43 -63 -153 -63q-94 0 -162 62q-66 63 -66 165q0 118 87 204q89 87 203 87q61 0 106.5 -20t57.5 -49l12 60h148l-92 -448q-19 -88 -53 -146q-23 -40 -54 -66q-73 -64 -200 -64q-166 0 -246 71z
M151 237q0 -49 34 -80t90 -31q63 0 107 41q44 42 44 104q0 47 -35 77t-90 30q-64 0 -107 -43q-43 -42 -43 -98zM310 560h-145l225 155l161 -155h-131l-44 59z" />
    <glyph glyph-name="Gbreve" unicode="&#x11e;" horiz-adv-x="750" 
d="M27 305q0 105 54 196q54 93 151 150q98 57 211 57q151 0 236 -81l-30 -152q-40 43 -98 68.5t-122 25.5q-101 0 -175 -75q-73 -73 -73 -172q0 -87 57 -141q58 -54 150 -54q73 0 140 42l22 108h-186l27 136h327l-63 -319q-119 -105 -280 -105q-154 0 -251 90t-97 226z
M481 747q-76 0 -119 39.5t-43 104.5h106q6 -47 63 -47q56 0 77 47h106q-19 -65 -69 -104.5t-121 -39.5z" />
    <glyph glyph-name="gbreve" unicode="&#x11f;" 
d="M374 554q-76 0 -119.5 40t-43.5 104h107q8 -47 62 -47q55 0 78 47h106q-19 -65 -69 -104.5t-121 -39.5zM-29 -149l26 132q36 -37 91.5 -57.5t115.5 -20.5q144 0 172 123l7 30q-43 -63 -153 -63q-94 0 -162 62q-66 63 -66 165q0 118 87 204q89 87 203 87q61 0 106.5 -20
t57.5 -49l12 60h148l-92 -448q-19 -88 -53 -146q-23 -40 -54 -66q-73 -64 -200 -64q-166 0 -246 71zM151 237q0 -49 34 -80t90 -31q63 0 107 41q44 42 44 104q0 47 -35 77t-90 30q-64 0 -107 -43q-43 -42 -43 -98z" />
    <glyph glyph-name="Gdotaccent" unicode="&#x120;" horiz-adv-x="750" 
d="M477 743q-30 0 -49 17.5t-19 44.5q0 32 24 56t57 24q31 0 50 -18t19 -46q0 -31 -24 -54.5t-58 -23.5zM27 305q0 105 54 196q54 93 151 150q98 57 211 57q151 0 236 -81l-30 -152q-40 43 -98 68.5t-122 25.5q-101 0 -175 -75q-73 -73 -73 -172q0 -87 57 -141
q58 -54 150 -54q73 0 140 42l22 108h-186l27 136h327l-63 -319q-119 -105 -280 -105q-154 0 -251 90t-97 226z" />
    <glyph glyph-name="gdotaccent" unicode="&#x121;" 
d="M365 555q-30 0 -49 17.5t-19 44.5q0 32 24.5 56t57.5 24q30 0 49.5 -18t19.5 -45q0 -31 -24 -55t-59 -24zM-29 -149l26 132q36 -37 91.5 -57.5t115.5 -20.5q144 0 172 123l7 30q-43 -63 -153 -63q-94 0 -162 62q-66 63 -66 165q0 118 87 204q89 87 203 87q61 0 106.5 -20
t57.5 -49l12 60h148l-92 -448q-19 -88 -53 -146q-23 -40 -54 -66q-73 -64 -200 -64q-166 0 -246 71zM151 237q0 -49 34 -80t90 -31q63 0 107 41q44 42 44 104q0 47 -35 77t-90 30q-64 0 -107 -43q-43 -42 -43 -98z" />
    <glyph glyph-name="Gcommaaccent" unicode="&#x122;" horiz-adv-x="750" 
d="M27 305q0 105 54 196q54 93 151 150q98 57 211 57q151 0 236 -81l-30 -152q-40 43 -98 68.5t-122 25.5q-101 0 -175 -75q-73 -73 -73 -172q0 -87 57 -141q58 -54 150 -54q73 0 140 42l22 108h-186l27 136h327l-63 -319q-119 -105 -280 -105q-154 0 -251 90t-97 226z
M296 -193h-116l80 145h165z" />
    <glyph glyph-name="gcommaaccent" unicode="&#x123;" 
d="M-29 -149l26 132q36 -37 91.5 -57.5t115.5 -20.5q144 0 172 123l7 30q-43 -63 -153 -63q-94 0 -162 62q-66 63 -66 165q0 118 87 204q89 87 203 87q61 0 106.5 -20t57.5 -49l12 60h148l-92 -448q-19 -88 -53 -146q-23 -40 -54 -66q-73 -64 -200 -64q-166 0 -246 71z
M151 237q0 -49 34 -80t90 -31q63 0 107 41q44 42 44 104q0 47 -35 77t-90 30q-64 0 -107 -43q-43 -42 -43 -98zM405 552h-116l80 145h165z" />
    <glyph glyph-name="Hcircumflex" unicode="&#x124;" horiz-adv-x="747" 
d="M152 0h-155l142 697h155l-52 -259h301l52 259h154l-142 -697h-154l60 298h-301zM403 753h-145l225 155l161 -155h-131l-44 59z" />
    <glyph glyph-name="hcircumflex" unicode="&#x125;" horiz-adv-x="574" 
d="M129 0h-150l142 697h150l-54 -260q53 78 144 78q77 0 120.5 -44.5t43.5 -122.5q0 -22 -5 -50l-62 -298h-150l58 286q0 3 1.5 13.5t1.5 12.5q0 34 -19.5 52.5t-55.5 18.5q-41 0 -70.5 -28.5t-38.5 -74.5zM149 737h-145l225 155l161 -155h-131l-44 59z" />
    <glyph glyph-name="Hbar" unicode="&#x126;" horiz-adv-x="753" 
d="M156 0h-155l102 501h-50l24 117h50l16 79h155l-16 -79h301l16 79h154l-16 -79h49l-24 -117h-49l-102 -501h-154l60 298h-301zM258 501l-12 -63h301l12 63h-301z" />
    <glyph glyph-name="hbar" unicode="&#x127;" horiz-adv-x="580" 
d="M135 0h-150l111 547h-51l19 96h52l11 54h150l-11 -54h126l-19 -96h-127l-23 -110q53 78 144 78q77 0 120.5 -44.5t43.5 -122.5q0 -22 -5 -50l-62 -298h-150l58 286q0 3 1.5 13.5t1.5 12.5q0 35 -19.5 54t-55.5 19q-41 0 -70.5 -28.5t-38.5 -76.5z" />
    <glyph glyph-name="Itilde" unicode="&#x128;" horiz-adv-x="299" 
d="M113 751l-80 12q14 57 52.5 91.5t89.5 34.5q36 0 79 -22q44 -21 67 -21q34 0 53 43l81 -12q-31 -133 -145 -133q-39 0 -82 22t-66 22q-36 0 -49 -37zM156 0h-155l142 697h155z" />
    <glyph glyph-name="itilde" unicode="&#x129;" horiz-adv-x="299" 
d="M98 569l-81 13q15 58 49 91.5t83 33.5q28 0 62 -22q34 -21 52 -21q29 0 47 44l80 -13q-31 -133 -135 -133q-29 0 -64 22q-34 22 -52 22q-28 0 -41 -37zM153 0h-150l103 504h150z" />
    <glyph glyph-name="Imacron" unicode="&#x12a;" horiz-adv-x="299" 
d="M385 756h-311l19 96h311zM156 0h-155l142 697h155z" />
    <glyph glyph-name="imacron" unicode="&#x12b;" horiz-adv-x="265" 
d="M307 571h-270l19 96h271zM136 0h-150l103 504h150z" />
    <glyph glyph-name="Ibreve" unicode="&#x12c;" horiz-adv-x="299" 
d="M156 0h-155l142 697h155zM245 747q-76 0 -119 39.5t-43 104.5h106q6 -47 63 -47q56 0 77 47h106q-19 -65 -69 -104.5t-121 -39.5z" />
    <glyph glyph-name="ibreve" unicode="&#x12d;" horiz-adv-x="278" 
d="M188 556q-71 0 -109.5 38t-38.5 104h107q0 -21 12.5 -33t34.5 -12q46 0 62 45h108q-18 -63 -64.5 -102.5t-111.5 -39.5zM143 0h-150l103 504h150z" />
    <glyph glyph-name="Iogonek" unicode="&#x12e;" horiz-adv-x="299" 
d="M59 -2h-58l142 699h155l-142 -697q-87 -50 -87 -91q0 -23 27.5 -29.5t74.5 5.5l-41 -95q-19 -8 -43 -8q-53 0 -87 28t-34 72q0 64 93 116z" />
    <glyph glyph-name="iogonek" unicode="&#x12f;" horiz-adv-x="250" 
d="M232 504l-103 -504q-87 -50 -87 -91q0 -23 28 -29.5t74 5.5l-41 -95q-19 -8 -43 -8q-53 0 -87 28t-34 72q0 64 95 117h-55l103 505h150zM174 547q-35 0 -57 21t-22 54q0 37 28 65q29 29 66 29q35 0 57.5 -22t22.5 -55q0 -37 -28 -64.5t-67 -27.5z" />
    <glyph glyph-name="Idot" unicode="&#x130;" horiz-adv-x="299" 
d="M236 743q-30 0 -49 17.5t-19 44.5q0 32 24.5 56t57.5 24q30 0 49.5 -18t19.5 -46q0 -31 -24 -54.5t-59 -23.5zM156 0h-155l142 697h155z" />
    <glyph glyph-name="dotlessi" unicode="&#x131;" horiz-adv-x="250" 
d="M129 0h-150l103 504h150z" />
    <glyph glyph-name="IJ" unicode="&#x132;" horiz-adv-x="534" 
d="M9 16l27 132q54 -20 137 -20q51 0 76 23.5t35 74.5l97 471h154l-95 -467q-25 -124 -85 -182.5t-176 -58.5q-107 0 -170 27zM199 189h-155l104 508h154z" />
    <glyph glyph-name="ij" unicode="&#x133;" horiz-adv-x="454" 
d="M385 550q-33 0 -54 20.5t-21 52.5q0 36 26.5 62.5t64.5 26.5q34 0 55 -21t21 -53q0 -36 -26.5 -62t-65.5 -26zM170 550q-33 0 -54 20.5t-21 52.5q0 36 26.5 62.5t64.5 26.5q33 0 54.5 -21t21.5 -53q0 -36 -26.5 -62t-65.5 -26zM-18 6l24 120q45 -12 110 -12q58 0 83.5 17
t34.5 64l63 309h142l-70 -343q-23 -108 -97 -144q-63 -30 -145 -30q-100 0 -145 19zM156 174h-142l68 330h142z" />
    <glyph glyph-name="Jcircumflex" unicode="&#x134;" horiz-adv-x="365" 
d="M-64 4l29 136q24 -12 69 -12q40 0 62 24t32 74l97 471h154l-95 -467q-24 -122 -79 -181q-54 -60 -166 -60q-69 0 -103 15zM255 753h-145l225 155l161 -155h-131l-44 59z" />
    <glyph glyph-name="jcircumflex" unicode="&#x135;" horiz-adv-x="272" 
d="M152 560h-138l204 155l140 -155h-128l-27 57zM-3 -21l108 525h149l-112 -547q-34 -174 -196 -174q-48 0 -80 5l27 129q30 -2 35 -2q31 0 46.5 14.5t22.5 49.5z" />
    <glyph glyph-name="Kcommaaccent" unicode="&#x136;" horiz-adv-x="668" 
d="M151 0h-154l142 697h154l-61 -295l302 295h194l-353 -349l222 -348h-177l-203 318zM128 -193l80 145h165l-129 -145h-116z" />
    <glyph glyph-name="kcommaaccent" unicode="&#x137;" horiz-adv-x="526" 
d="M129 0h-150l142 697h149l-76 -376l178 183h176l-232 -242l141 -262h-162l-120 228zM47 -193l80 145h165l-129 -145h-116z" />
    <glyph glyph-name="Lacute" unicode="&#x139;" horiz-adv-x="520" 
d="M423 0h-426l142 697h155l-114 -557h272zM271 745h-116l80 145h165z" />
    <glyph glyph-name="lacute" unicode="&#x13a;" horiz-adv-x="250" 
d="M129 0h-150l142 697h150zM242 722h-116l80 145h165z" />
    <glyph glyph-name="Lcommaaccent" unicode="&#x13b;" horiz-adv-x="520" 
d="M423 0h-426l142 697h155l-114 -557h272zM51 -193l80 145h165l-129 -145h-116z" />
    <glyph glyph-name="lcommaaccent" unicode="&#x13c;" horiz-adv-x="250" 
d="M129 0h-150l142 697h150zM-113 -193l80 145h165l-129 -145h-116z" />
    <glyph glyph-name="Lcaron" unicode="&#x13d;" horiz-adv-x="520" 
d="M423 0h-426l142 697h155l-114 -557h272zM429 552h-116l80 145h165z" />
    <glyph glyph-name="lcaron" unicode="&#x13e;" horiz-adv-x="425" 
d="M129 0h-150l142 697h150zM379 552h-116l80 145h165z" />
    <glyph glyph-name="Ldot" unicode="&#x13f;" horiz-adv-x="520" 
d="M423 0h-426l142 697h155l-114 -557h272zM377 333q-30 0 -49 17.5t-19 44.5q0 32 24 56t57 24q30 0 49.5 -18.5t19.5 -45.5q0 -31 -24 -54.5t-58 -23.5z" />
    <glyph glyph-name="ldot" unicode="&#x140;" horiz-adv-x="409" 
d="M129 0h-150l142 697h150zM299 292q-30 0 -49 17.5t-19 44.5q0 32 24 56t57 24q30 0 49.5 -18.5t19.5 -45.5q0 -31 -24 -54.5t-58 -23.5z" />
    <glyph glyph-name="Lslash" unicode="&#x141;" horiz-adv-x="536" 
d="M439 0h-426l47 235l-70 -31l29 144l71 32l65 317h155l-52 -252l149 68l-30 -144l-148 -66l-33 -163h272z" />
    <glyph glyph-name="lslash" unicode="&#x142;" horiz-adv-x="301" 
d="M147 0h-149l52 255l-76 -37l31 145l74 36l61 298h149l-46 -225l97 47l-32 -145l-94 -46z" />
    <glyph glyph-name="Nacute" unicode="&#x143;" horiz-adv-x="756" 
d="M150 0h-153l148 724l378 -431l83 404h153l-148 -724l-380 430zM480 745h-116l80 145h165z" />
    <glyph glyph-name="nacute" unicode="&#x144;" horiz-adv-x="584" 
d="M128 0h-149l102 504h150l-14 -67q54 78 147 78q79 0 126 -45.5t47 -124.5q0 -23 -5 -51l-61 -294h-150l57 281q3 15 3 28q0 35 -21.5 54.5t-61.5 19.5q-42 0 -73 -28.5t-41 -74.5zM364 552h-116l80 145h165z" />
    <glyph glyph-name="Ncommaaccent" unicode="&#x145;" horiz-adv-x="756" 
d="M150 0h-153l148 724l378 -431l83 404h153l-148 -724l-380 430zM295 -193h-116l80 145h165z" />
    <glyph glyph-name="ncommaaccent" unicode="&#x146;" horiz-adv-x="584" 
d="M128 0h-149l102 504h150l-14 -67q54 78 147 78q79 0 126 -45.5t47 -124.5q0 -23 -5 -51l-61 -294h-150l57 281q3 15 3 28q0 35 -21.5 54.5t-61.5 19.5q-42 0 -73 -28.5t-41 -74.5zM75 -193l80 145h165l-129 -145h-116z" />
    <glyph glyph-name="Ncaron" unicode="&#x147;" horiz-adv-x="756" 
d="M150 0h-153l148 724l378 -431l83 404h153l-148 -724l-380 430zM665 890l-225 -155l-161 155h131l44 -59l66 59h145z" />
    <glyph glyph-name="ncaron" unicode="&#x148;" horiz-adv-x="584" 
d="M128 0h-149l102 504h150l-14 -67q54 78 147 78q79 0 126 -45.5t47 -124.5q0 -23 -5 -51l-61 -294h-150l57 281q3 15 3 28q0 35 -21.5 54.5t-61.5 19.5q-42 0 -73 -28.5t-41 -74.5zM544 702l-225 -155l-161 155h131l44 -59l66 59h145z" />
    <glyph glyph-name="Eng" unicode="&#x14a;" horiz-adv-x="746" 
d="M146 0h-149l148 724l369 -497l95 470h150l-136 -663q-23 -115 -74 -175q-55 -67 -171 -67q-64 0 -102 15l28 136q32 -12 72 -12q42 0 65 24.5t33 73.5l1 5l-252 338z" />
    <glyph glyph-name="eng" unicode="&#x14b;" horiz-adv-x="581" 
d="M129 0h-150l103 504h150l-15 -67q54 78 147 78q80 0 124.5 -44.5t44.5 -122.5q0 -22 -5 -50l-71 -341q-36 -174 -196 -174q-65 0 -94 9l26 128q22 -5 49 -5q31 0 46.5 14.5t22.5 49.5l62 307q3 13 3 26q0 34 -20.5 52.5t-58.5 18.5q-43 0 -73 -28t-39 -75z" />
    <glyph glyph-name="Omacron" unicode="&#x14c;" horiz-adv-x="826" 
d="M636 756h-317l20 96h317zM28 309q0 103 54 195q57 93 151 148q98 56 210 56q154 0 255 -92q100 -91 100 -234q0 -155 -119 -276q-119 -120 -296 -120q-155 0 -255 90q-100 91 -100 233zM181 321q0 -87 58 -142q59 -54 153 -54q105 0 179 74q74 76 74 170q0 88 -59 144
t-152 56q-103 0 -178 -75t-75 -173z" />
    <glyph glyph-name="omacron" unicode="&#x14d;" horiz-adv-x="616" 
d="M498 571h-317l19 96h318zM2 225q0 116 92 205t219 89q113 0 187 -69q73 -67 73 -173q0 -115 -90 -204q-88 -88 -220 -88q-115 0 -188 67t-73 173zM151 237q0 -51 34.5 -83t90.5 -32q62 0 105 43t43 99q0 52 -34.5 85t-89.5 33q-62 0 -106 -44q-43 -43 -43 -101z" />
    <glyph glyph-name="Obreve" unicode="&#x14e;" horiz-adv-x="826" 
d="M28 309q0 103 54 195q57 93 151 148q98 56 210 56q154 0 255 -92q100 -91 100 -234q0 -155 -119 -276q-119 -120 -296 -120q-155 0 -255 90q-100 91 -100 233zM181 321q0 -87 58 -142q59 -54 153 -54q105 0 179 74q74 76 74 170q0 88 -59 144t-152 56q-103 0 -178 -75
t-75 -173zM490 747q-76 0 -119 39.5t-43 104.5h106q6 -47 63 -47q56 0 77 47h106q-19 -65 -69 -104.5t-121 -39.5z" />
    <glyph glyph-name="obreve" unicode="&#x14f;" horiz-adv-x="616" 
d="M2 225q0 116 92 205t219 89q113 0 187 -69q73 -67 73 -173q0 -115 -90 -204q-88 -88 -220 -88q-115 0 -188 67t-73 173zM151 237q0 -51 34.5 -83t90.5 -32q62 0 105 43t43 99q0 52 -34.5 85t-89.5 33q-62 0 -106 -44q-43 -43 -43 -101zM348 554q-76 0 -119 39.5
t-43 104.5h106q6 -47 63 -47q56 0 77 47h106q-19 -65 -69 -104.5t-121 -39.5z" />
    <glyph glyph-name="Ohungarumlaut" unicode="&#x150;" horiz-adv-x="826" 
d="M606 745h-105l99 145h154zM424 745h-105l100 145h153zM28 309q0 103 54 195q57 93 151 148q98 56 210 56q154 0 255 -92q100 -91 100 -234q0 -155 -119 -276q-119 -120 -296 -120q-155 0 -255 90q-100 91 -100 233zM181 321q0 -87 58 -142q59 -54 153 -54q105 0 179 74
q74 76 74 170q0 88 -59 144t-152 56q-103 0 -178 -75t-75 -173z" />
    <glyph glyph-name="ohungarumlaut" unicode="&#x151;" horiz-adv-x="616" 
d="M2 225q0 116 92 205t219 89q113 0 187 -69q73 -67 73 -173q0 -115 -90 -204q-88 -88 -220 -88q-115 0 -188 67t-73 173zM151 237q0 -51 34.5 -83t90.5 -32q62 0 105 43t43 99q0 52 -34.5 85t-89.5 33q-62 0 -106 -44q-43 -43 -43 -101zM471 552h-112l97 145h160zM289 552
h-112l97 145h160z" />
    <glyph glyph-name="OE" unicode="&#x152;" horiz-adv-x="1068" 
d="M28 309q-2 100 51.5 193.5t147.5 150.5t201 55q82 0 145.5 -26t96.5 -73l17 88h419l-28 -139h-267l-28 -136h246l-26 -129h-245l-32 -156h274l-28 -137h-418l13 64q-73 -75 -209 -75q-142 0 -237 90q-93 91 -93 230zM186 321q0 -87 57 -142q57 -54 149 -54q102 0 174 74
q73 74 73 170q0 89 -57 144q-58 56 -149 56q-101 0 -174 -75q-73 -74 -73 -173z" />
    <glyph glyph-name="oe" unicode="&#x153;" horiz-adv-x="979" 
d="M2 225q0 116 92 205t219 89q135 0 197 -95q75 94 203 94q104 0 169 -65t65 -165q0 -37 -12 -76h-376q-1 -1 -1 -8q0 -41 35 -66t94 -25q78 0 130 46l72 -83q-91 -91 -226 -91q-134 0 -191 90q-76 -90 -209 -90q-115 0 -188 67t-73 173zM152 237q0 -51 34.5 -84t89.5 -33
q60 0 104 44t44 100q0 53 -34.5 86.5t-89.5 33.5q-62 0 -105 -45q-43 -43 -43 -102zM569 309h235v3q0 36 -28.5 60.5t-72.5 24.5q-46 0 -82.5 -24.5t-51.5 -63.5z" />
    <glyph glyph-name="Racute" unicode="&#x154;" horiz-adv-x="656" 
d="M152 0h-155l142 697h268q95 0 157 -59t62 -148q0 -75 -45 -141t-118 -94l111 -255h-167l-98 232h-110zM265 557l-39 -191h130q47 0 81 32q33 33 33 74q0 37 -25 61t-64 24h-116zM422 745h-116l80 145h165z" />
    <glyph glyph-name="racute" unicode="&#x155;" horiz-adv-x="409" 
d="M129 0h-150l103 504h150l-15 -67q54 78 147 78q23 0 53 -5l-27 -138q-25 5 -59 5q-59 0 -100 -40t-56 -111zM281 552h-116l80 145h165z" />
    <glyph glyph-name="Rcommaaccent" unicode="&#x156;" horiz-adv-x="656" 
d="M152 0h-155l142 697h268q95 0 157 -59t62 -148q0 -75 -45 -141t-118 -94l111 -255h-167l-98 232h-110zM265 557l-39 -191h130q47 0 81 32q33 33 33 74q0 37 -25 61t-64 24h-116zM126 -193l80 145h165l-129 -145h-116z" />
    <glyph glyph-name="rcommaaccent" unicode="&#x157;" horiz-adv-x="409" 
d="M129 0h-150l103 504h150l-15 -67q54 78 147 78q23 0 53 -5l-27 -138q-25 5 -59 5q-59 0 -100 -40t-56 -111zM-113 -193l80 145h165l-129 -145h-116z" />
    <glyph glyph-name="Rcaron" unicode="&#x158;" horiz-adv-x="656" 
d="M152 0h-155l142 697h268q95 0 157 -59t62 -148q0 -75 -45 -141t-118 -94l111 -255h-167l-98 232h-110zM265 557l-39 -191h130q47 0 81 32q33 33 33 74q0 37 -25 61t-64 24h-116zM599 890l-225 -155l-161 155h131l44 -59l66 59h145z" />
    <glyph glyph-name="rcaron" unicode="&#x159;" horiz-adv-x="409" 
d="M129 0h-150l103 504h150l-15 -67q54 78 147 78q23 0 53 -5l-27 -138q-25 5 -59 5q-59 0 -100 -40t-56 -111zM471 702l-225 -155l-161 155h131l44 -59l66 59h145z" />
    <glyph glyph-name="Sacute" unicode="&#x15a;" horiz-adv-x="576" 
d="M-23 77l32 149q93 -98 231 -98q61 0 95 21.5t34 53.5q0 20 -19 38q-20 19 -43 30q-20 11 -77 36q-151 66 -151 191q0 86 72 148q74 62 184 62q140 0 214 -71l-30 -145q-35 36 -85.5 55.5t-98.5 19.5q-45 0 -73 -17t-28 -42q0 -24 35 -52q5 -3 49 -27q9 -3 32 -13.5
t25 -11.5q149 -69 149 -193q0 -92 -74 -157t-209 -65q-84 0 -154 24t-110 64zM409 745h-116l80 145h165z" />
    <glyph glyph-name="sacute" unicode="&#x15b;" horiz-adv-x="467" 
d="M-26 51l26 133q77 -70 189 -70q37 0 57.5 10.5t20.5 26.5t-22.5 27t-83.5 31q-62 22 -89.5 53.5t-27.5 84.5q0 71 62 121q63 51 154 51q104 0 159 -42l-25 -128q-56 41 -144 41q-31 0 -49 -9.5t-18 -24.5q0 -13 21 -23l21 -9l58 -19q66 -23 97 -56.5t31 -91.5
q0 -76 -62.5 -123t-166.5 -47q-125 0 -208 64zM312 552h-116l80 145h165z" />
    <glyph glyph-name="Scircumflex" unicode="&#x15c;" horiz-adv-x="576" 
d="M-23 77l32 149q93 -98 231 -98q61 0 95 21.5t34 53.5q0 20 -19 38q-20 19 -43 30q-20 11 -77 36q-151 66 -151 191q0 86 72 148q74 62 184 62q140 0 214 -71l-30 -145q-35 36 -85.5 55.5t-98.5 19.5q-45 0 -73 -17t-28 -42q0 -24 35 -52q5 -3 49 -27q9 -3 32 -13.5
t25 -11.5q149 -69 149 -193q0 -92 -74 -157t-209 -65q-84 0 -154 24t-110 64zM314 753h-145l225 155l161 -155h-131l-44 59z" />
    <glyph glyph-name="scircumflex" unicode="&#x15d;" horiz-adv-x="467" 
d="M-26 51l26 133q77 -70 189 -70q37 0 57.5 10.5t20.5 26.5t-22.5 27t-83.5 31q-62 22 -89.5 53.5t-27.5 84.5q0 71 62 121q63 51 154 51q104 0 159 -42l-25 -128q-56 41 -144 41q-31 0 -49 -9.5t-18 -24.5q0 -13 21 -23l21 -9l58 -19q66 -23 97 -56.5t31 -91.5
q0 -76 -62.5 -123t-166.5 -47q-125 0 -208 64zM222 560h-145l225 155l161 -155h-131l-44 59z" />
    <glyph glyph-name="Scedilla" unicode="&#x15e;" horiz-adv-x="576" 
d="M73 -187l41 61q19 -16 48 -16q17 0 29 10.5t12 24.5q0 30 -53 30h-1l42 68q-140 14 -214 86l32 149q93 -98 231 -98q61 0 95 21.5t34 53.5q0 20 -19 38q-20 19 -43 30q-20 11 -77 36q-151 66 -151 191q0 86 72 148q74 62 184 62q140 0 214 -71l-30 -145
q-35 36 -85.5 55.5t-98.5 19.5q-45 0 -73 -17t-28 -42q0 -24 35 -52q5 -3 49 -27q9 -3 32 -13.5t25 -11.5q149 -69 149 -193q0 -84 -65 -149q-65 -64 -185 -71l-24 -37q21 -2 37 -20.5t16 -44.5q0 -46 -36 -76.5t-93 -30.5q-73 0 -101 31z" />
    <glyph glyph-name="scedilla" unicode="&#x15f;" horiz-adv-x="467" 
d="M27 -187l41 61q19 -16 48 -16q17 0 29 10.5t12 24.5q0 30 -53 30h-1l41 66q-103 10 -170 62l26 133q77 -70 189 -70q37 0 57.5 10.5t20.5 26.5t-22.5 27t-83.5 31q-62 22 -89.5 53.5t-27.5 84.5q0 71 62 121q63 51 154 51q104 0 159 -42l-25 -128q-56 41 -144 41
q-31 0 -49 -9.5t-18 -24.5q0 -13 21 -23l21 -9l58 -19q66 -23 97 -56.5t31 -91.5q0 -66 -49.5 -111.5t-133.5 -55.5l-24 -36q21 -2 37 -20.5t16 -44.5q0 -46 -36 -76.5t-93 -30.5q-73 0 -101 31z" />
    <glyph glyph-name="Scaron" unicode="&#x160;" horiz-adv-x="576" 
d="M-23 77l32 149q93 -98 231 -98q61 0 95 21.5t34 53.5q0 20 -19 38q-20 19 -43 30q-20 11 -77 36q-151 66 -151 191q0 86 72 148q74 62 184 62q140 0 214 -71l-30 -145q-35 36 -85.5 55.5t-98.5 19.5q-45 0 -73 -17t-28 -42q0 -24 35 -52q5 -3 49 -27q9 -3 32 -13.5
t25 -11.5q149 -69 149 -193q0 -92 -74 -157t-209 -65q-84 0 -154 24t-110 64zM591 890l-225 -155l-161 155h131l44 -59l66 59h145z" />
    <glyph glyph-name="scaron" unicode="&#x161;" horiz-adv-x="467" 
d="M-26 51l26 133q77 -70 189 -70q37 0 57.5 10.5t20.5 26.5t-22.5 27t-83.5 31q-62 22 -89.5 53.5t-27.5 84.5q0 71 62 121q63 51 154 51q104 0 159 -42l-25 -128q-56 41 -144 41q-31 0 -49 -9.5t-18 -24.5q0 -13 21 -23l21 -9l58 -19q66 -23 97 -56.5t31 -91.5
q0 -76 -62.5 -123t-166.5 -47q-125 0 -208 64zM489 702l-225 -155l-161 155h131l44 -59l66 59h145z" />
    <glyph glyph-name="Tcommaaccent" unicode="&#x162;" horiz-adv-x="555" 
d="M285 0h-155l114 557h-189l29 140h529l-29 -140h-186zM34 -193l80 145h165l-129 -145h-116z" />
    <glyph glyph-name="tcommaaccent" unicode="&#x163;" horiz-adv-x="354" 
d="M161 0h-149l75 369h-67l28 135h67l39 193h149l-39 -193h107l-28 -135h-107zM-82 -193l80 145h165l-129 -145h-116z" />
    <glyph glyph-name="Tcaron" unicode="&#x164;" horiz-adv-x="555" 
d="M285 0h-155l114 557h-189l29 140h529l-29 -140h-186zM569 890l-225 -155l-161 155h131l44 -59l66 59h145z" />
    <glyph glyph-name="tcaron" unicode="&#x165;" horiz-adv-x="452" 
d="M161 0h-149l75 369h-67l28 135h67l39 193h149l-39 -193h107l-28 -135h-107zM408 552h-116l80 145h165z" />
    <glyph glyph-name="Tbar" unicode="&#x166;" horiz-adv-x="555" 
d="M285 0h-155l60 295h-98l25 128h99l28 134h-189l29 140h529l-29 -140h-186l-27 -134h108l-25 -128h-109z" />
    <glyph glyph-name="tbar" unicode="&#x167;" horiz-adv-x="354" 
d="M161 0h-149l44 215h-68l24 115h67l12 59h-67l24 115h67l39 193h149l-40 -193h101l-24 -115h-100l-12 -59h100l-24 -115h-99z" />
    <glyph glyph-name="Utilde" unicode="&#x168;" horiz-adv-x="715" 
d="M40 243q0 40 10 91l74 363h155l-85 -413q-2 -18 -2 -35q0 -56 34.5 -88t97.5 -32q130 0 161 151l85 417h154l-86 -424q-29 -144 -109.5 -214t-217.5 -70q-96 0 -177 52q-43 29 -68.5 81.5t-25.5 120.5zM309 751l-80 12q14 57 52.5 91.5t89.5 34.5q36 0 79 -22
q44 -21 67 -21q34 0 53 43l81 -12q-31 -133 -145 -133q-39 0 -82 22t-66 22q-36 0 -49 -37z" />
    <glyph glyph-name="utilde" unicode="&#x169;" horiz-adv-x="577" 
d="M206 569l-80 12q14 57 52.5 91.5t89.5 34.5q36 0 79 -22q43 -21 67 -21q34 0 53 43l81 -12q-31 -133 -145 -133q-38 0 -81 22t-67 22q-36 0 -49 -37zM11 188q0 32 9 73l50 243h151l-55 -276q-3 -15 -3 -32q0 -32 23 -52.5t64 -20.5q86 0 105 96l59 285h150l-59 -292
q-24 -120 -97 -173q-74 -53 -170 -53q-104 0 -166 57q-61 58 -61 145z" />
    <glyph glyph-name="Umacron" unicode="&#x16a;" horiz-adv-x="715" 
d="M589 756h-317l20 96h317zM40 243q0 40 10 91l74 363h155l-85 -413q-2 -18 -2 -35q0 -56 34.5 -88t97.5 -32q130 0 161 151l85 417h154l-86 -424q-29 -144 -109.5 -214t-217.5 -70q-96 0 -177 52q-43 29 -68.5 81.5t-25.5 120.5z" />
    <glyph glyph-name="umacron" unicode="&#x16b;" horiz-adv-x="577" 
d="M482 571h-317l20 96h317zM11 188q0 32 9 73l50 243h151l-55 -276q-3 -15 -3 -32q0 -32 23 -52.5t64 -20.5q86 0 105 96l59 285h150l-59 -292q-24 -120 -97 -173q-74 -53 -170 -53q-104 0 -166 57q-61 58 -61 145z" />
    <glyph glyph-name="Ubreve" unicode="&#x16c;" horiz-adv-x="715" 
d="M40 243q0 40 10 91l74 363h155l-85 -413q-2 -18 -2 -35q0 -56 34.5 -88t97.5 -32q130 0 161 151l85 417h154l-86 -424q-29 -144 -109.5 -214t-217.5 -70q-96 0 -177 52q-43 29 -68.5 81.5t-25.5 120.5zM434 747q-76 0 -119 39.5t-43 104.5h106q6 -47 63 -47q56 0 77 47
h106q-19 -65 -69 -104.5t-121 -39.5z" />
    <glyph glyph-name="ubreve" unicode="&#x16d;" horiz-adv-x="577" 
d="M11 188q0 32 9 73l50 243h151l-55 -276q-3 -15 -3 -32q0 -32 23 -52.5t64 -20.5q86 0 105 96l59 285h150l-59 -292q-24 -120 -97 -173q-74 -53 -170 -53q-104 0 -166 57q-61 58 -61 145zM334 554q-76 0 -119 39.5t-43 104.5h106q6 -47 63 -47q56 0 77 47h106
q-19 -65 -69 -104.5t-121 -39.5z" />
    <glyph glyph-name="Uring" unicode="&#x16e;" horiz-adv-x="715" 
d="M40 243q0 40 10 91l74 363h155l-85 -413q-2 -18 -2 -35q0 -56 34.5 -88t97.5 -32q130 0 161 151l85 417h154l-86 -424q-29 -144 -109.5 -214t-217.5 -70q-96 0 -177 52q-43 29 -68.5 81.5t-25.5 120.5zM429 711q-49 0 -80.5 28.5t-31.5 72.5q0 52 39 91q40 39 95 39
q50 0 82 -29.5t32 -75.5q0 -49 -40 -88q-40 -38 -96 -38zM437 788q18 0 31.5 13t13.5 29q0 15 -10.5 24.5t-26.5 9.5q-18 0 -31 -12.5t-13 -29.5q0 -15 10 -24.5t26 -9.5z" />
    <glyph glyph-name="uring" unicode="&#x16f;" horiz-adv-x="577" 
d="M11 188q0 32 9 73l50 243h151l-55 -276q-3 -15 -3 -32q0 -32 23 -52.5t64 -20.5q86 0 105 96l59 285h150l-59 -292q-24 -120 -97 -173q-74 -53 -170 -53q-104 0 -166 57q-61 58 -61 145zM325 535q-49 0 -80.5 28.5t-31.5 72.5q0 52 39 91q40 39 95 39q50 0 82 -29.5
t32 -75.5q0 -49 -40 -88q-40 -38 -96 -38zM333 612q18 0 31.5 13t13.5 29q0 15 -10.5 24.5t-26.5 9.5q-18 0 -31 -12.5t-13 -29.5q0 -15 10 -24.5t26 -9.5z" />
    <glyph glyph-name="Uhungarumlaut" unicode="&#x170;" horiz-adv-x="715" 
d="M553 745h-105l100 145h153zM372 745h-106l100 145h153zM40 243q0 40 10 91l74 363h155l-85 -413q-2 -18 -2 -35q0 -56 34.5 -88t97.5 -32q130 0 161 151l85 417h154l-86 -424q-29 -144 -109.5 -214t-217.5 -70q-96 0 -177 52q-43 29 -68.5 81.5t-25.5 120.5z" />
    <glyph glyph-name="uhungarumlaut" unicode="&#x171;" horiz-adv-x="577" 
d="M11 188q0 32 9 73l50 243h151l-55 -276q-3 -15 -3 -32q0 -32 23 -52.5t64 -20.5q86 0 105 96l59 285h150l-59 -292q-24 -120 -97 -173q-74 -53 -170 -53q-104 0 -166 57q-61 58 -61 145zM456 552h-112l97 145h160zM274 552h-112l97 145h160z" />
    <glyph glyph-name="Uogonek" unicode="&#x172;" horiz-adv-x="715" 
d="M40 243q0 40 10 91l74 363h155l-85 -413q-2 -18 -2 -35q0 -56 34.5 -88t97.5 -32q130 0 161 151l85 417h154l-86 -424q-35 -169 -143 -233q-27 -16 -72 -34q-51 -20 -72 -38.5t-21 -49.5q0 -23 28.5 -29.5t74.5 5.5l-41 -96q-21 -8 -43 -8q-53 0 -87.5 28.5t-34.5 72.5
q0 64 73 98h-1q-100 5 -174 57q-85 64 -85 197z" />
    <glyph glyph-name="uogonek" unicode="&#x173;" horiz-adv-x="577" 
d="M11 188q0 32 9 73l50 243h151l-55 -276q-3 -15 -3 -32q0 -32 23 -52.5t64 -20.5q86 0 105 96l59 285h150l-59 -292q-26 -126 -121 -187q-18 -11 -62 -29q-47 -19 -68.5 -38.5t-21.5 -48.5q0 -14 13.5 -23t35.5 -9q21 0 53 8l-40 -95q-21 -8 -43 -8q-54 0 -88 28t-34 72
q0 70 87 107h-1q-95 8 -149 62q-55 55 -55 137z" />
    <glyph glyph-name="Wcircumflex" unicode="&#x174;" horiz-adv-x="978" 
d="M505 395l-313 -423l-105 725h150l54 -360l270 365l104 -355l200 350h166l-411 -727zM513 753h-145l225 155l161 -155h-131l-44 59z" />
    <glyph glyph-name="wcircumflex" unicode="&#x175;" horiz-adv-x="749" 
d="M363 257l-215 -287l-113 534h141l48 -228l176 226l88 -230l143 232h147l-316 -534zM359 560h-145l225 155l161 -155h-131l-44 59z" />
    <glyph glyph-name="Ycircumflex" unicode="&#x176;" horiz-adv-x="683" 
d="M346 0h-153l52 258l-168 439h161l107 -284l219 284h180l-349 -452zM362 753h-145l225 155l161 -155h-131l-44 59z" />
    <glyph glyph-name="ycircumflex" unicode="&#x177;" horiz-adv-x="594" 
d="M20 -194l125 199l-108 499h147l65 -333l208 333h160l-439 -698h-158zM279 560h-145l225 155l161 -155h-131l-44 59z" />
    <glyph glyph-name="Ydieresis" unicode="&#x178;" horiz-adv-x="683" 
d="M523 736q-30 0 -48.5 17t-18.5 44q0 31 23.5 55t56.5 24q30 0 49 -18t19 -45q0 -30 -24 -53.5t-57 -23.5zM314 736q-30 0 -48.5 17t-18.5 44q0 31 23.5 55t56.5 24q30 0 49 -18t19 -45q0 -30 -24 -53.5t-57 -23.5zM346 0h-153l52 258l-168 439h161l107 -284l219 284h180
l-349 -452z" />
    <glyph glyph-name="Zacute" unicode="&#x179;" horiz-adv-x="647" 
d="M545 0h-608l468 557h-284l28 140h553l-466 -557h337zM472 745h-116l80 145h165z" />
    <glyph glyph-name="zacute" unicode="&#x17a;" horiz-adv-x="532" 
d="M443 0h-523l344 373h-218l27 131h487l-343 -373h253zM357 552h-116l80 145h165z" />
    <glyph glyph-name="Zdotaccent" unicode="&#x17b;" horiz-adv-x="647" 
d="M433 743q-29 0 -48 17.5t-19 44.5q0 32 24 56t57 24q30 0 49.5 -18t19.5 -46q0 -31 -24 -54.5t-59 -23.5zM545 0h-608l468 557h-284l28 140h553l-466 -557h337z" />
    <glyph glyph-name="zdotaccent" unicode="&#x17c;" horiz-adv-x="532" 
d="M327 555q-30 0 -49 17.5t-19 44.5q0 32 24 56t57 24q30 0 49.5 -18t19.5 -45q0 -32 -23.5 -55.5t-58.5 -23.5zM443 0h-523l344 373h-218l27 131h487l-343 -373h253z" />
    <glyph glyph-name="Zcaron" unicode="&#x17d;" horiz-adv-x="647" 
d="M545 0h-608l468 557h-284l28 140h553l-466 -557h337zM658 890l-225 -155l-161 155h131l44 -59l66 59h145z" />
    <glyph glyph-name="zcaron" unicode="&#x17e;" horiz-adv-x="532" 
d="M443 0h-523l344 373h-218l27 131h487l-343 -373h253zM540 702l-225 -155l-161 155h131l44 -59l66 59h145z" />
    <glyph glyph-name="florin" unicode="&#x192;" horiz-adv-x="456" 
d="M249 334l-184 -435h-149l185 435h-71l50 119h71l20 47q46 109 103 161q58 52 159 52q62 0 98 -17l-53 -128q-19 8 -64 8q-35 0 -57 -18t-38 -56l-21 -49h99l-51 -119h-97z" />
    <glyph glyph-name="Aringacute" unicode="&#x1fa;" horiz-adv-x="740" 
d="M178 111l-76 -111h-167l443 636q-56 27 -56 90q0 52 39 91q41 39 96 39q49 0 81 -29.5t32 -75.5q0 -39 -25.5 -72t-66.5 -47l183 -632h-153l-30 111h-300zM442 702q18 0 30.5 13t12.5 29q0 15 -9.5 24.5t-25.5 9.5q-18 0 -30.5 -12.5t-12.5 -29.5q0 -15 10 -24.5t25 -9.5
zM395 427l-129 -185h179zM544 907h-116l80 145h165z" />
    <glyph glyph-name="aringacute" unicode="&#x1fb;" 
d="M478 810h-116l80 145h165zM376 547q-49 0 -80.5 28.5t-31.5 72.5q0 52 39 91q41 39 95 39q50 0 82 -29.5t32 -75.5q0 -49 -40 -88q-40 -38 -96 -38zM384 624q18 0 31.5 13t13.5 29q0 15 -10.5 24.5t-26.5 9.5q-18 0 -31 -12.5t-13 -29.5q0 -15 10 -24.5t26 -9.5zM2 222
q0 118 87 204q89 87 202 87q61 0 106.5 -20t57.5 -49l13 60h147l-103 -504h-145l13 62q-46 -70 -151 -70q-94 0 -161 64q-66 64 -66 166zM152 237q0 -49 34 -80t90 -31q61 0 105 41q44 42 44 104q0 48 -34.5 78t-89.5 30q-63 0 -106 -43t-43 -99z" />
    <glyph glyph-name="AEacute" unicode="&#x1fc;" horiz-adv-x="938" 
d="M204 117l-115 -117h-196l680 697h383l-29 -140h-245l-28 -131h227l-27 -137h-227l-30 -149h254l-29 -140h-407l25 117h-236zM505 440l-188 -200h147zM696 745h-116l80 145h165z" />
    <glyph glyph-name="aeacute" unicode="&#x1fd;" horiz-adv-x="870" 
d="M-16 127q0 101 80 143q66 33 182 44l54 5q37 4 49 11q15 10 15 29q0 18 -21 29.5t-55 11.5q-74 0 -138 -64l-79 79q84 105 224 105q115 0 159 -62q64 58 160 58q99 0 160 -64t61 -164q0 -37 -12 -76h-346q-1 -1 -1 -8q0 -42 30 -67t82 -25q70 0 117 47l72 -83
q-87 -90 -213 -90q-120 0 -177 75q-59 -74 -215 -74q-84 0 -136 39q-52 40 -52 101zM487 312h205v3q0 34 -24.5 56.5t-63.5 22.5q-41 0 -72.5 -22.5t-44.5 -59.5zM128 155q0 -20 21.5 -31.5t58.5 -11.5q98 0 130 71v29l2 24q-18 -11 -44 -13q-35 -2 -67 -8q-40 -6 -65 -14
q-36 -12 -36 -46zM522 552h-116l80 145h165z" />
    <glyph glyph-name="Oslashacute" unicode="&#x1fe;" horiz-adv-x="825" 
d="M101 -58l-86 79l84 85q-71 86 -71 203q0 103 54 195q57 93 151 148q98 56 210 56q110 0 196 -50l89 90l85 -79l-84 -86q69 -87 69 -201q0 -155 -119 -276q-119 -120 -296 -120q-108 0 -194 47zM213 222l316 325q-40 22 -95 22q-103 0 -178 -75t-75 -173q0 -53 32 -99z
M614 467l-315 -323q37 -19 93 -19q105 0 179 74q74 76 74 170q0 57 -31 98zM532 745h-116l80 145h165z" />
    <glyph glyph-name="oslashacute" unicode="&#x1ff;" horiz-adv-x="616" 
d="M64 -54l-72 64l61 66q-51 65 -51 149q0 116 92 205t219 89q72 0 133 -31l60 63l72 -64l-57 -59q52 -64 52 -151q0 -115 -90 -204q-88 -88 -220 -88q-75 0 -133 30zM161 185l180 190q-17 9 -41 9q-64 0 -107 -45q-44 -44 -44 -102q0 -27 12 -52zM413 317l-180 -189
q18 -8 43 -8q62 0 106 44t44 100q0 30 -13 53zM396 552h-116l80 145h165z" />
    <glyph glyph-name="Scommaaccent" unicode="&#x218;" horiz-adv-x="576" 
d="M-23 77l32 149q93 -98 231 -98q61 0 95 21.5t34 53.5q0 20 -19 38q-20 19 -43 30q-20 11 -77 36q-151 66 -151 191q0 86 72 148q74 62 184 62q140 0 214 -71l-30 -145q-35 36 -85.5 55.5t-98.5 19.5q-45 0 -73 -17t-28 -42q0 -24 35 -52q5 -3 49 -27q9 -3 32 -13.5
t25 -11.5q149 -69 149 -193q0 -92 -74 -157t-209 -65q-84 0 -154 24t-110 64zM74 -193l80 145h165l-129 -145h-116z" />
    <glyph glyph-name="scommaaccent" unicode="&#x219;" horiz-adv-x="467" 
d="M-26 51l26 133q77 -70 189 -70q37 0 57.5 10.5t20.5 26.5t-22.5 27t-83.5 31q-62 22 -89.5 53.5t-27.5 84.5q0 71 62 121q63 51 154 51q104 0 159 -42l-25 -128q-56 41 -144 41q-31 0 -49 -9.5t-18 -24.5q0 -13 21 -23l21 -9l58 -19q66 -23 97 -56.5t31 -91.5
q0 -76 -62.5 -123t-166.5 -47q-125 0 -208 64zM17 -193l80 145h165l-129 -145h-116z" />
    <glyph glyph-name="circumflex" unicode="&#x2c6;" horiz-adv-x="542" 
d="M266 560h-145l225 155l161 -155h-131l-44 59z" />
    <glyph glyph-name="caron" unicode="&#x2c7;" horiz-adv-x="542" 
d="M536 702l-225 -155l-161 155h131l44 -59l66 59h145z" />
    <glyph glyph-name="breve" unicode="&#x2d8;" horiz-adv-x="541" 
d="M328 553q-76 0 -119 39.5t-43 104.5h106q6 -47 63 -47q56 0 77 47h106q-19 -65 -69 -104.5t-121 -39.5z" />
    <glyph glyph-name="dotaccent" unicode="&#x2d9;" horiz-adv-x="515" 
d="M309 555q-30 0 -49 17.5t-19 43.5q0 32 24 55.5t57 23.5q30 0 49 -18t19 -45q0 -30 -24 -53.5t-57 -23.5z" />
    <glyph glyph-name="ring" unicode="&#x2da;" horiz-adv-x="423" 
d="M258 535q-49 0 -80.5 28.5t-31.5 72.5q0 52 39 91q41 39 95 39q50 0 82 -29.5t32 -75.5q0 -49 -40 -88q-40 -38 -96 -38zM266 612q18 0 31.5 13t13.5 29q0 15 -10.5 24.5t-26.5 9.5q-18 0 -31 -12.5t-13 -29.5q0 -15 10 -24.5t26 -9.5z" />
    <glyph glyph-name="ogonek" unicode="&#x2db;" horiz-adv-x="515" 
d="M65 -118q0 66 97 118h93q-87 -50 -87 -91q0 -23 28 -29.5t74 5.5l-41 -95q-19 -8 -43 -8q-53 0 -87 28t-34 72z" />
    <glyph glyph-name="tilde" unicode="&#x2dc;" horiz-adv-x="528" 
d="M193 576l-80 12q14 57 52.5 91.5t89.5 34.5q36 0 79 -22q44 -21 67 -21q34 0 53 43l81 -12q-31 -133 -145 -133q-39 0 -82 22t-66 22q-36 0 -49 -37z" />
    <glyph glyph-name="hungarumlaut" unicode="&#x2dd;" horiz-adv-x="534" 
d="M416 552h-112l97 145h160zM234 552h-112l97 145h160z" />
    <glyph glyph-name="pi" unicode="&#x3c0;" horiz-adv-x="656" 
d="M181 0h-156q56 80 92 168t59 201h-15q-37 0 -56 -31l-97 63q30 46 80.5 74.5t102.5 28.5h475l-59 -135h-57l-43 -209q0 -3 -0.5 -6.5t-1 -5.5t-0.5 -3q0 -15 9.5 -21t31.5 -6l-25 -122q-15 -3 -43 -3q-122 0 -122 107q0 23 5 46l46 223h-86q-52 -239 -140 -369z" />
    <glyph glyph-name="Wgrave" unicode="&#x1e80;" horiz-adv-x="978" 
d="M505 395l-313 -423l-105 725h150l54 -360l270 365l104 -355l200 350h166l-411 -727zM632 745h-106l-71 145h154z" />
    <glyph glyph-name="wgrave" unicode="&#x1e81;" horiz-adv-x="749" 
d="M363 257l-215 -287l-113 534h141l48 -228l176 226l88 -230l143 232h147l-316 -534zM491 552h-106l-71 145h154z" />
    <glyph glyph-name="Wacute" unicode="&#x1e82;" horiz-adv-x="978" 
d="M505 395l-313 -423l-105 725h150l54 -360l270 365l104 -355l200 350h166l-411 -727zM600 745h-116l80 145h165z" />
    <glyph glyph-name="wacute" unicode="&#x1e83;" horiz-adv-x="749" 
d="M363 257l-215 -287l-113 534h141l48 -228l176 226l88 -230l143 232h147l-316 -534zM448 552h-116l80 145h165z" />
    <glyph glyph-name="Wdieresis" unicode="&#x1e84;" horiz-adv-x="978" 
d="M669 737q-30 0 -48.5 17t-18.5 44q0 31 23.5 54.5t56.5 23.5q30 0 49 -18t19 -45q0 -30 -24 -53t-57 -23zM460 737q-30 0 -48.5 17t-18.5 44q0 31 23.5 54.5t56.5 23.5q30 0 49 -18t19 -45q0 -31 -23 -53.5t-58 -22.5zM505 395l-313 -423l-105 725h150l54 -360l270 365
l104 -355l200 350h166l-411 -727z" />
    <glyph glyph-name="wdieresis" unicode="&#x1e85;" horiz-adv-x="749" 
d="M517 555q-30 0 -48.5 17t-18.5 44q0 31 23.5 54.5t56.5 23.5q30 0 49 -17.5t19 -45.5q0 -30 -24 -53t-57 -23zM308 555q-30 0 -48.5 17t-18.5 44q0 31 23.5 54.5t56.5 23.5q31 0 49.5 -17.5t18.5 -45.5q0 -31 -23 -53.5t-58 -22.5zM363 257l-215 -287l-113 534h141
l48 -228l176 226l88 -230l143 232h147l-316 -534z" />
    <glyph glyph-name="Ygrave" unicode="&#x1ef2;" horiz-adv-x="683" 
d="M484 745h-110l-71 145h158zM346 0h-153l52 258l-168 439h161l107 -284l219 284h180l-349 -452z" />
    <glyph glyph-name="ygrave" unicode="&#x1ef3;" horiz-adv-x="594" 
d="M20 -194l125 199l-108 499h147l65 -333l208 333h160l-439 -698h-158zM400 552h-106l-71 145h154z" />
    <glyph glyph-name="endash" unicode="&#x2013;" horiz-adv-x="545" 
d="M480 215h-468l25 128h468z" />
    <glyph glyph-name="emdash" unicode="&#x2014;" horiz-adv-x="732" 
d="M667 215h-655l25 128h656z" />
    <glyph glyph-name="quoteleft" unicode="&#x2018;" horiz-adv-x="258" 
d="M185 454h-147l177 243h110z" />
    <glyph glyph-name="quoteright" unicode="&#x2019;" horiz-adv-x="261" 
d="M145 454h-110l139 243h148z" />
    <glyph glyph-name="quotesinglbase" unicode="&#x201a;" horiz-adv-x="241" 
d="M-124 -128l137 239h148l-175 -239h-110z" />
    <glyph glyph-name="quotedblleft" unicode="&#x201c;" horiz-adv-x="442" 
d="M370 454h-148l177 243h110zM185 454h-147l177 243h110z" />
    <glyph glyph-name="quotedblright" unicode="&#x201d;" horiz-adv-x="445" 
d="M330 454h-110l139 243h148zM145 454h-110l139 243h148z" />
    <glyph glyph-name="quotedblbase" unicode="&#x201e;" horiz-adv-x="422" 
d="M171 -128h-110l137 239h148zM-124 -128l137 239h148l-175 -239h-110z" />
    <glyph glyph-name="dagger" unicode="&#x2020;" horiz-adv-x="314" 
d="M199 301h-104l50 219l-82 -3l20 99l79 -3l14 84h104l-20 -84l79 3l-20 -99l-80 3z" />
    <glyph glyph-name="daggerdbl" unicode="&#x2021;" horiz-adv-x="314" 
d="M199 301h-104l20 81l-80 -3l20 96l80 -3l11 54l-82 -3l20 96l78 -3l14 81h104l-20 -81l80 3l-20 -96l-80 3l-11 -54l82 3l-20 -96l-79 3z" />
    <glyph glyph-name="bullet" unicode="&#x2022;" horiz-adv-x="360" 
d="M149 133q-49 0 -80 29.5t-31 75.5q0 52 39 93q39 40 93 40q49 0 80.5 -30t31.5 -77q0 -50 -39 -91q-37 -40 -94 -40z" />
    <glyph glyph-name="ellipsis" unicode="&#x2026;" horiz-adv-x="649" 
d="M402 62q0 36 27 63.5t63 27.5q34 0 55.5 -20t21.5 -52q0 -37 -26.5 -63.5t-65.5 -26.5q-33 0 -54 20t-21 51zM185 62q0 36 27 63.5t63 27.5q34 0 55 -20t21 -52q0 -37 -26.5 -63.5t-64.5 -26.5q-33 0 -54 20t-21 51zM-33 62q0 36 27 63.5t64 27.5q34 0 55 -20t21 -52
q0 -37 -26.5 -63.5t-64.5 -26.5q-33 0 -54.5 20t-21.5 51z" />
    <glyph glyph-name="perthousand" unicode="&#x2030;" horiz-adv-x="1137" 
d="M213 401q-66 0 -107 38t-41 97q0 69 52 121t124 52q65 0 106.5 -39t41.5 -99q0 -67 -51 -119q-51 -51 -125 -51zM150 0h-147l608 697h147zM223 502q23 0 39.5 18t16.5 40q0 21 -13.5 34.5t-34.5 13.5q-23 0 -39 -18t-16 -42q0 -20 13 -33t34 -13zM748 123q0 68 52 120
q53 53 124 53q66 0 107.5 -39t41.5 -99q0 -67 -52 -119q-51 -51 -125 -51q-65 0 -106.5 38t-41.5 97zM373 123q0 68 52 120q53 53 124 53q65 0 106.5 -39t41.5 -99q0 -66 -51 -119q-51 -51 -125 -51q-65 0 -106.5 38t-41.5 97zM859 135q0 -20 13 -33t34 -13q23 0 39.5 18
t16.5 40q0 21 -13 34.5t-34 13.5q-23 0 -39.5 -18t-16.5 -42zM484 135q0 -21 13 -33.5t34 -12.5q23 0 39.5 18t16.5 40q0 21 -13 34.5t-34 13.5q-23 0 -39.5 -18t-16.5 -42z" />
    <glyph glyph-name="guilsinglleft" unicode="&#x2039;" horiz-adv-x="336" 
d="M236 66h-142l-83 187l160 187h155l-169 -196z" />
    <glyph glyph-name="guilsinglright" unicode="&#x203a;" horiz-adv-x="336" 
d="M126 66h-156l169 196l-79 178h142l83 -187z" />
    <glyph glyph-name="fraction" unicode="&#x2044;" horiz-adv-x="588" 
d="M670 697l-608 -697h-144l609 697h143z" />
    <glyph glyph-name="zerosuperior" unicode="&#x2070;" horiz-adv-x="362" 
d="M190 321q-60 0 -96.5 33t-36.5 84q0 24 7 56q2 8 9.5 42.5t7.5 35.5q12 64 55 98t103 34q59 0 96 -33t37 -84q0 -16 -9 -61q-9 -51 -16 -74q-13 -62 -54 -96.5t-103 -34.5zM198 414q35 0 43 35l21 99q5 32 5 33q0 12 -9.5 20t-25.5 8q-36 0 -44 -35l-21 -101
q-5 -25 -5 -32q0 -27 36 -27z" />
    <glyph glyph-name="foursuperior" unicode="&#x2074;" horiz-adv-x="354" 
d="M312 327h-96l13 63h-214l188 307h106l-136 -222h72l16 75h96z" />
    <glyph glyph-name="fivesuperior" unicode="&#x2075;" horiz-adv-x="324" 
d="M158 322q-47 0 -87.5 22t-53.5 56l92 50q11 -33 55 -33q21 0 36 13.5t15 31.5t-14.5 28.5t-40.5 10.5q-50 0 -98 -12l72 208h208l-20 -96h-129l-13 -35q14 2 20 2q54 0 88.5 -29.5t34.5 -77.5q0 -59 -46 -99t-119 -40z" />
    <glyph glyph-name="sixsuperior" unicode="&#x2076;" horiz-adv-x="346" 
d="M185 322q-63 0 -102.5 35t-39.5 91q0 39 19 70q20 32 67 85l3 4l81 90h125l-107 -115h2q51 -2 82.5 -33.5t31.5 -79.5q0 -60 -46 -103q-46 -44 -116 -44zM191 413q22 0 37 14t15 34q0 17 -13 28.5t-33 11.5q-21 0 -36.5 -14t-15.5 -32q0 -19 13 -30.5t33 -11.5z" />
    <glyph glyph-name="sevensuperior" unicode="&#x2077;" horiz-adv-x="332" 
d="M156 328h-115l184 273h-142l20 96h299z" />
    <glyph glyph-name="eightsuperior" unicode="&#x2078;" horiz-adv-x="345" 
d="M184 322q-61 0 -100.5 35t-39.5 89q0 32 18.5 58.5t50.5 40.5q-17 19 -17 48q0 47 39 78q41 33 92 33q52 0 85 -29t33 -74q0 -40 -35 -66q34 -28 34 -73q0 -54 -43 -97q-42 -43 -117 -43zM217 558q15 0 26 10.5t11 23.5q0 11 -9 18.5t-22 7.5q-15 0 -25.5 -9.5
t-10.5 -22.5q0 -12 8.5 -20t21.5 -8zM191 413q21 0 35 14t14 33q0 17 -12 27t-31 10q-20 0 -34.5 -13.5t-14.5 -31.5t11.5 -28.5t31.5 -10.5z" />
    <glyph glyph-name="ninesuperior" unicode="&#x2079;" horiz-adv-x="347" 
d="M194 328h-122l105 117h-3q-39 1 -74 33q-33 32 -33 79q0 59 45 103q47 44 114 44q63 0 103 -35t40 -90q0 -37 -15 -63q-14 -27 -54 -71zM215 527q21 0 36.5 14t15.5 32q0 16 -12.5 27t-32.5 11q-21 0 -36 -13.5t-15 -31.5q0 -17 12.5 -28t31.5 -11z" />
    <glyph glyph-name="zero.inferior" unicode="&#x2080;" horiz-adv-x="362" 
d="M-9 110q0 24 7 56q2 8 9.5 42.5t7.5 35.5q12 64 55 98t103 34q59 0 96 -33t37 -84q0 -16 -9 -61q-9 -51 -16 -74q-13 -62 -54 -96.5t-103 -34.5q-60 0 -96.5 33t-36.5 84zM96 113q0 -27 36 -27q35 0 43 35l21 99q5 32 5 33q0 12 -9.5 20t-25.5 8q-36 0 -44 -35l-21 -101
q-5 -25 -5 -32z" />
    <glyph glyph-name="one.inferior" unicode="&#x2081;" horiz-adv-x="240" 
d="M119 0h-108l55 273h-55l19 96h164z" />
    <glyph glyph-name="two.inferior" unicode="&#x2082;" horiz-adv-x="335" 
d="M242 0h-302l219 207q30 29 30 49q0 13 -10.5 21.5t-25.5 8.5q-38 0 -47 -46h-96q12 69 51 102.5t96 33.5q56 0 91.5 -32t35.5 -82q0 -56 -52 -105l-63 -59h94z" />
    <glyph glyph-name="three.inferior" unicode="&#x2083;" horiz-adv-x="337" 
d="M100 -6q-47 0 -86.5 20.5t-55.5 54.5l91 54q15 -34 55 -34q25 0 41 13t16 32q0 39 -69 39q-41 0 -59 -7l101 107h-108l20 96h271l-130 -137v-1q36 -8 58.5 -34t22.5 -61q0 -60 -47 -101t-121 -41z" />
    <glyph glyph-name="four.inferior" unicode="&#x2084;" horiz-adv-x="354" 
d="M162 63h-214l188 307h106l-136 -222h72l16 75h96l-45 -223h-96z" />
    <glyph glyph-name="five.inferior" unicode="&#x2085;" horiz-adv-x="324" 
d="M-50 72l92 50q10 -33 55 -33q21 0 36 13.5t15 31.5t-14.5 28.5t-40.5 10.5q-50 0 -98 -12l72 208h208l-20 -96h-129l-13 -35q14 2 20 2q54 0 88.5 -29.5t34.5 -77.5q0 -59 -46 -99t-119 -40q-47 0 -87.5 22t-53.5 56z" />
    <glyph glyph-name="six.inferior" unicode="&#x2086;" horiz-adv-x="346" 
d="M118 -6q-63 0 -102.5 35t-39.5 91q0 39 19 70q20 32 67 85l4 4q10 13 80 90h125l-107 -115h2q51 -2 82.5 -33.5t31.5 -79.5q0 -60 -46 -103q-46 -44 -116 -44zM124 85q22 0 37 14t15 34q0 17 -13 28.5t-33 11.5q-21 0 -36.5 -14t-15.5 -32q0 -19 13 -30.5t33 -11.5z" />
    <glyph glyph-name="seven.inferior" unicode="&#x2087;" horiz-adv-x="332" 
d="M89 0h-115l184 273h-142l20 96h299z" />
    <glyph glyph-name="eight.inferior" unicode="&#x2088;" horiz-adv-x="345" 
d="M-23 118q0 32 18.5 58.5t50.5 40.5q-17 19 -17 48q0 47 39 78q40 33 92 33t85 -29t33 -74q0 -40 -35 -66q34 -28 34 -73q0 -54 -43 -97q-42 -43 -117 -43q-61 0 -100.5 35t-39.5 89zM150 230q15 0 26 10.5t11 23.5q0 11 -9 18.5t-22 7.5q-15 0 -25.5 -9.5t-10.5 -22.5
q0 -12 8.5 -20t21.5 -8zM81 124q0 -18 11.5 -28.5t31.5 -10.5q21 0 35 14t14 33q0 17 -12 27t-31 10q-20 0 -34.5 -13.5t-14.5 -31.5z" />
    <glyph glyph-name="nine.inferior" unicode="&#x2089;" horiz-adv-x="343" 
d="M126 0h-122l105 117h-3q-39 1 -74 33q-33 32 -33 79q0 59 45 103q47 44 114 44q63 0 103 -35t40 -90q0 -37 -15 -63q-14 -27 -54 -71zM147 199q21 0 36.5 14t15.5 32q0 16 -12.5 27t-32.5 11q-21 0 -36 -13.5t-15 -31.5q0 -17 12.5 -28t31.5 -11z" />
    <glyph glyph-name="Euro" unicode="&#x20ac;" horiz-adv-x="761" 
d="M98 246h-113l48 75h61v1q0 27 7 62h-70l49 75h43q46 108 144 179q98 70 220 70q183 0 277 -142l-125 -90q-59 93 -161 93q-56 0 -104.5 -29.5t-79.5 -80.5h253l-49 -75h-236q-9 -26 -9 -62v-1h204l-48 -75h-144q17 -57 60 -89t102 -32q96 0 163 79l99 -100
q-111 -118 -271 -118q-124 0 -213 71q-88 72 -107 189z" />
    <glyph glyph-name="uni2113" unicode="&#x2113;" horiz-adv-x="554" 
d="M32 117l-39 -19l-25 99q16 10 59 33l58 32l44 217q28 137 84 190q56 52 144 52q71 0 116 -47q46 -46 46 -119q0 -102 -72 -183q-69 -80 -226 -171q-5 -15 -5 -27q0 -27 20 -43t56 -16q56 0 120 61l64 -87q-58 -58 -109.5 -83.5t-119.5 -25.5q-74 0 -122 40.5t-52 106.5
q0 9 1 11zM284 514l-39 -174q61 44 95 98.5t34 103.5q0 19 -10 32t-26 13q-38 0 -54 -73z" />
    <glyph glyph-name="uni2116" unicode="&#x2116;" horiz-adv-x="1288" 
d="M150 0h-153l148 724l339 -417l81 390h153l-148 -724l-342 408zM777 441q0 99 76 174q76 76 183 76q96 0 157 -57q62 -56 62 -144q0 -96 -75 -171t-186 -75q-96 0 -157 55q-60 56 -60 142zM922 456q0 -34 24 -56.5t62 -22.5q42 0 71 30q30 31 30 70q0 36 -23.5 58.5
t-61.5 22.5q-42 0 -72 -31t-30 -71zM1161 47h-450l27 133h450z" />
    <glyph glyph-name="trademark" unicode="&#x2122;" horiz-adv-x="906" 
d="M547 326h-128l76 371h78l102 -164l184 164h83l-76 -371h-128l32 157l-117 -103l-72 107zM264 326h-137l49 243h-108l27 128h350l-26 -128h-105z" />
    <glyph glyph-name="Omega" unicode="&#x2126;" horiz-adv-x="819" 
d="M311 0h-329l28 140h82q-24 29 -37.5 79.5t-13.5 102.5q0 154 118 269q119 117 282 117q150 0 245 -89q96 -89 96 -227q0 -133 -122 -252h77l-29 -140h-342q88 45 164 129q87 97 87 228q0 94 -52 152q-53 60 -135 60q-100 0 -171 -90q-71 -91 -71 -208q0 -88 37 -163
q38 -77 86 -108z" />
    <glyph glyph-name="estimated" unicode="&#x212e;" horiz-adv-x="890" 
d="M192 359l-52 -258q89 -92 236 -92q83 0 166.5 34t148.5 93h31q-70 -69 -163 -108.5t-188 -39.5q-148 0 -244 93t-96 230q0 115 71 218q70 102 185 163q115 60 239 60q46 0 91 -9.5t90.5 -34t79.5 -61t55.5 -95t21.5 -131.5q0 -30 -7 -62h-665zM250 640l-54 -260h508
l53 262q-92 88 -234 88q-143 0 -273 -90z" />
    <glyph glyph-name="onethird" unicode="&#x2153;" horiz-adv-x="771" 
d="M113 0h-143l589 697h143zM193 328h-109l55 273h-55l20 96h164zM388 69l91 54q15 -34 55 -34q25 0 41 13t16 32q0 39 -69 39q-41 0 -59 -7l101 107h-108l20 96h271l-130 -137v-1q36 -8 58.5 -34t22.5 -61q0 -60 -47 -101t-121 -41q-47 0 -86.5 20.5t-55.5 54.5z" />
    <glyph glyph-name="twothirds" unicode="&#x2154;" horiz-adv-x="861" 
d="M217 0h-143l589 697h143zM478 69l91 54q15 -34 55 -34q25 0 41 13t16 32q0 39 -69 39q-41 0 -59 -7l101 107h-108l20 96h271l-130 -137v-1q36 -8 58.5 -34t22.5 -61q0 -60 -47 -101t-121 -41q-47 0 -86.5 20.5t-55.5 54.5zM316 328h-302l219 207q30 29 30 49
q0 13 -10.5 21.5t-25.5 8.5q-38 0 -47 -46h-96q12 69 51 102.5t96 33.5q56 0 91.5 -32t35.5 -82q0 -56 -52 -105l-63 -59h94z" />
    <glyph glyph-name="arrowleft" unicode="&#x2190;" horiz-adv-x="689" 
d="M323 88l-113 -93l-208 262l330 275l91 -114l-118 -91h346l-28 -140h-382z" />
    <glyph glyph-name="arrowup" unicode="&#x2191;" horiz-adv-x="749" 
d="M369 0h-141l66 324l-109 -94l-83 105l319 264l211 -264l-111 -93l-82 105z" />
    <glyph glyph-name="arrowright" unicode="&#x2192;" horiz-adv-x="689" 
d="M346 187h-346l29 140h381l-82 99l113 94l208 -263l-330 -274l-91 113z" />
    <glyph glyph-name="arrowdown" unicode="&#x2193;" horiz-adv-x="749" 
d="M280 -90l-210 264l111 93l81 -104l69 341h141l-65 -319l110 94l82 -105z" />
    <glyph glyph-name="arrowboth" unicode="&#x2194;" horiz-adv-x="959" 
d="M323 88l-113 -93l-208 262l330 275l91 -114l-118 -91h375l-81 99l112 94l208 -263l-329 -274l-91 113l118 91h-376z" />
    <glyph glyph-name="arrowupdn" unicode="&#x2195;" horiz-adv-x="749" 
d="M271 -138l-201 252l111 93l71 -93l54 270l-94 -80l-83 104l304 252l201 -252l-111 -93l-72 92l-53 -270l94 81l82 -105z" />
    <glyph glyph-name="arrownorthwest" unicode="&#x2196;" horiz-adv-x="749" 
d="M245 106h-138l78 385h382l-28 -134h-156l210 -263l-108 -90l-207 260z" />
    <glyph glyph-name="arrownortheast" unicode="&#x2197;" horiz-adv-x="749" 
d="M435 244l-294 -243l-88 109l299 247h-138l28 134h381l-78 -385h-138z" />
    <glyph glyph-name="arrowsoutheast" unicode="&#x2198;" horiz-adv-x="749" 
d="M526 15h-382l28 135h156l-210 263l108 90l207 -260l33 158h139z" />
    <glyph glyph-name="arrowsouthwest" unicode="&#x2199;" horiz-adv-x="749" 
d="M469 15h-381l78 386h138l-28 -138l294 243l88 -110l-299 -246h138z" />
    <glyph glyph-name="partialdiff" unicode="&#x2202;" horiz-adv-x="554" 
d="M0 188q0 108 78 191q80 83 187 83q89 0 121 -54l1 -1q4 11 4 29q0 63 -29 100.5t-76 37.5q-52 0 -98 -33l-60 101l17 14q30 22 60 36q39 20 107 20q98 0 159 -75q63 -73 63 -189q0 -178 -94 -320q-95 -143 -235 -143q-91 0 -148 57t-57 146zM152 202q0 -33 20 -54.5
t53 -21.5q49 0 84 39q35 41 35 90q0 31 -24.5 51.5t-59.5 20.5q-44 0 -76 -38t-32 -87z" />
    <glyph glyph-name="increment" unicode="&#x2206;" horiz-adv-x="656" 
d="M571 0h-629l460 712zM342 378l-154 -243h207z" />
    <glyph glyph-name="product" unicode="&#x220f;" horiz-adv-x="711" 
d="M208 0h-152l113 559h-104l28 138h666l-28 -138h-104l-114 -559h-152l114 559h-154z" />
    <glyph glyph-name="summation" unicode="&#x2211;" horiz-adv-x="579" 
d="M471 0h-540l320 363l-168 334h519l-30 -145h-254l106 -194l-186 -218h262z" />
    <glyph glyph-name="minus" unicode="&#x2212;" horiz-adv-x="524" 
d="M468 284h-438l26 129h438z" />
    <glyph glyph-name="radical" unicode="&#x221a;" horiz-adv-x="683" 
d="M243 446l56 -257l322 611h145l-518 -970l-104 463l-104 -40l-24 107z" />
    <glyph glyph-name="infinity" unicode="&#x221e;" horiz-adv-x="825" 
d="M192 139q-74 0 -123 44q-47 45 -47 115q0 82 63 145t150 63q101 0 183 -106l48 41q14 13 43 31q50 34 113 34q75 0 122 -46q48 -45 48 -115q0 -81 -63 -144q-62 -62 -153 -62q-92 0 -178 102q-43 -37 -65 -53q-26 -19 -65.5 -34t-75.5 -15zM485 318q45 -55 91 -55
q30 0 52.5 20t22.5 45q0 24 -18 39t-48 15q-21 0 -41 -15q-4 -3 -18 -13l-22 -19zM230 263q20 0 42 15q4 2 18 13q27 21 41 35q-44 56 -90 56q-33 0 -56 -20t-23 -47q0 -23 19 -37.5t49 -14.5z" />
    <glyph glyph-name="integral" unicode="&#x222b;" horiz-adv-x="332" 
d="M-6 24q34 0 51 31.5t34 114.5q10 47 26 182q15 130 31 208q26 122 78 175.5t138 53.5q32 0 54 -7l-25 -121q-12 3 -34 3q-29 0 -45 -29t-31 -99q-13 -63 -32 -214t-29 -199q-23 -120 -77 -172.5t-143 -52.5q-34 0 -65 9l25 122q20 -5 44 -5z" />
    <glyph glyph-name="approxequal" unicode="&#x2248;" horiz-adv-x="477" 
d="M118 384l-80 12q17 64 57.5 103.5t90.5 39.5q41 0 89 -21t73 -21q36 0 55 42l80 -13q-41 -150 -152 -150q-41 0 -91 21q-47 22 -73 22q-35 0 -49 -35zM79 183l-80 12q17 66 57 105t91 39q41 0 89 -21t73 -21q35 0 55 41l80 -12q-41 -150 -152 -150q-42 0 -91 21
q-48 21 -73 21q-35 0 -49 -35z" />
    <glyph glyph-name="notequal" unicode="&#x2260;" horiz-adv-x="575" 
d="M223 184l-108 -136l-90 62l59 74h-72l26 128h149l62 76h-195l26 128h272l107 133l88 -62l-56 -71h72l-25 -128h-150l-62 -76h196l-27 -128h-272z" />
    <glyph glyph-name="lessequal" unicode="&#x2264;" horiz-adv-x="452" 
d="M392 296l-27 -137l-339 247l439 248l-31 -152l-183 -103zM332 0h-365l27 128h365z" />
    <glyph glyph-name="greaterequal" unicode="&#x2265;" horiz-adv-x="452" 
d="M448 406l-439 -247l31 152l183 103l-141 103l28 136zM343 0h-365l26 128h365z" />
    <glyph glyph-name="triagup" unicode="&#x25b2;" horiz-adv-x="576" 
d="M462 110h-445l293 380z" />
    <glyph glyph-name="triagrt" unicode="&#x25ba;" horiz-adv-x="576" 
d="M482 267l-428 -230l91 445z" />
    <glyph glyph-name="triagdn" unicode="&#x25bc;" horiz-adv-x="576" 
d="M526 424l-307 -380l-138 380h445z" />
    <glyph glyph-name="triaglf" unicode="&#x25c4;" horiz-adv-x="576" 
d="M395 37l-334 230l424 215z" />
    <glyph glyph-name="lozenge" unicode="&#x25ca;" horiz-adv-x="561" 
d="M549 349l-347 -384l-190 384l344 373zM165 334l72 -148l160 176l-74 145z" />
    <glyph glyph-name="uni25E2" unicode="&#x25e2;" horiz-adv-x="576" 
d="M430 67l-409 106l378 315z" />
    <glyph glyph-name="uni25E3" unicode="&#x25e3;" horiz-adv-x="576" 
d="M484 173l-453 -106l202 421z" />
    <glyph glyph-name="uni25E4" unicode="&#x25e4;" horiz-adv-x="576" 
d="M513 352l-378 -314l-22 428z" />
    <glyph glyph-name="uni25E5" unicode="&#x25e5;" horiz-adv-x="576" 
d="M509 466l-194 -431l-250 315z" />
    <glyph glyph-name="CR" horiz-adv-x="333" 
 />
    <glyph glyph-name="space.frac" horiz-adv-x="23" 
 />
    <glyph glyph-name="C.alt" horiz-adv-x="712" 
d="M27 309q0 103 54 195q57 93 151 148q98 56 210 56q193 0 292 -145l-120 -87q-63 92 -181 92q-103 0 -178 -75q-74 -76 -74 -172q0 -86 58 -141q59 -54 152 -54q99 0 174 77l98 -99q-115 -118 -281 -118q-154 0 -255 90q-100 91 -100 233z" />
    <glyph glyph-name="G.alt" horiz-adv-x="750" 
d="M27 305q0 105 54 196q54 93 150 150q97 57 211 57q183 0 282 -139l-116 -85q-68 84 -179 84q-101 0 -175 -75q-73 -73 -73 -171q0 -86 57 -140q59 -53 150 -53q83 0 146 45l22 106h-191l26 131h327l-63 -317q-119 -105 -280 -105q-154 0 -251 90t-97 226z" />
    <glyph glyph-name="K.alt" horiz-adv-x="684" 
d="M152 0h-155l142 697h155l-60 -292l315 292h196l-334 -318l200 -379h-167l-151 279l-105 -98z" />
    <glyph glyph-name="M.alt" horiz-adv-x="867" 
d="M222 336l-128 -336h-150l274 728l184 -478l385 480v-730h-148v325l-281 -352z" />
    <glyph glyph-name="Q.alt" horiz-adv-x="825" 
d="M28 309q0 103 54 195q57 93 151 148q98 56 210 56q154 0 255 -92q100 -91 100 -234q0 -81 -35.5 -157.5t-97.5 -127.5l41 -60l-119 -86l-46 69q-64 -34 -158 -34q-155 0 -255 90q-100 91 -100 233zM182 321q0 -87 58 -142q58 -54 152 -54q37 0 67 13l-69 105l118 85
l74 -111q62 70 62 152q0 88 -59 144t-151 56q-103 0 -178 -75q-74 -76 -74 -173z" />
    <glyph glyph-name="S.alt" horiz-adv-x="580" 
d="M-25 155l123 76q42 -103 164 -103q48 0 80 22.5t32 54.5t-32 52q-10 6 -31 18q-9 5 -44 20l-46 20q-138 61 -138 176q0 88 71 153q73 65 181 65q82 0 142.5 -35.5t85.5 -91.5l-119 -78q-13 30 -44.5 48.5t-72.5 18.5q-39 0 -65.5 -19t-26.5 -46q0 -24 26 -47
q5 -4 25.5 -13.5t23.5 -11.5q9 -3 38.5 -15.5t34.5 -14.5q145 -63 145 -183q0 -97 -75 -165q-73 -67 -204 -67q-107 0 -180 48t-94 118z" />
    <glyph glyph-name="W.alt" horiz-adv-x="999" 
d="M482 291l-217 -324l-186 730h144l104 -411l102 148l-72 263h139l33 -131l85 131h145l-178 -269l39 -144l278 413h163l-486 -730z" />
    <glyph glyph-name="Cacute.alt" horiz-adv-x="712" 
d="M27 309q0 103 54 195q57 93 151 148q98 56 210 56q193 0 292 -145l-120 -87q-63 92 -181 92q-103 0 -178 -75q-74 -76 -74 -172q0 -86 58 -141q59 -54 152 -54q99 0 174 77l98 -99q-115 -118 -281 -118q-154 0 -255 90q-100 91 -100 233zM517 745h-116l80 145h165z" />
    <glyph glyph-name="Ccircumflex.alt" horiz-adv-x="712" 
d="M27 309q0 103 54 195q57 93 151 148q98 56 210 56q193 0 292 -145l-120 -87q-63 92 -181 92q-103 0 -178 -75q-74 -76 -74 -172q0 -86 58 -141q59 -54 152 -54q99 0 174 77l98 -99q-115 -118 -281 -118q-154 0 -255 90q-100 91 -100 233zM422 753h-145l225 155l161 -155
h-131l-44 59z" />
    <glyph glyph-name="Ccaron.alt" horiz-adv-x="712" 
d="M27 309q0 103 54 195q57 93 151 148q98 56 210 56q193 0 292 -145l-120 -87q-63 92 -181 92q-103 0 -178 -75q-74 -76 -74 -172q0 -86 58 -141q59 -54 152 -54q99 0 174 77l98 -99q-115 -118 -281 -118q-154 0 -255 90q-100 91 -100 233zM699 890l-225 -155l-161 155h131
l44 -59l66 59h145z" />
    <glyph glyph-name="Cdotaccent.alt" horiz-adv-x="712" 
d="M482 743q-30 0 -49 17.5t-19 44.5q0 32 24 56t57 24q31 0 50 -18t19 -46q0 -30 -24.5 -54t-57.5 -24zM27 309q0 103 54 195q57 93 151 148q98 56 210 56q193 0 292 -145l-120 -87q-63 92 -181 92q-103 0 -178 -75q-74 -76 -74 -172q0 -86 58 -141q59 -54 152 -54
q99 0 174 77l98 -99q-115 -118 -281 -118q-154 0 -255 90q-100 91 -100 233z" />
    <glyph glyph-name="Ccedilla.alt" horiz-adv-x="712" 
d="M167 -187l41 61q19 -16 48 -16q17 0 29 10.5t12 24.5q0 30 -53 30h-1l45 73q-117 25 -190 110q-71 86 -71 203q0 103 54 195q57 93 151 148q98 56 210 56q193 0 292 -145l-120 -87q-63 92 -181 92q-103 0 -178 -75q-74 -76 -74 -172q0 -86 58 -141q59 -54 152 -54
q99 0 174 77l98 -99q-115 -118 -281 -118q-2 0 -8.5 0.5t-7.5 0.5l-22 -33q21 -2 37 -20.5t16 -44.5q0 -46 -36 -76.5t-93 -30.5q-73 0 -101 31z" />
    <glyph glyph-name="Gcircumflex.alt" horiz-adv-x="750" 
d="M27 305q0 105 54 196q54 93 150 150q97 57 211 57q183 0 282 -139l-116 -85q-68 84 -179 84q-101 0 -175 -75q-73 -73 -73 -171q0 -86 57 -140q59 -53 150 -53q83 0 146 45l22 106h-191l26 131h327l-63 -317q-119 -105 -280 -105q-154 0 -251 90t-97 226zM413 753h-145
l225 155l161 -155h-131l-44 59z" />
    <glyph glyph-name="Gbreve.alt" horiz-adv-x="750" 
d="M27 305q0 105 54 196q54 93 150 150q97 57 211 57q183 0 282 -139l-116 -85q-68 84 -179 84q-101 0 -175 -75q-73 -73 -73 -171q0 -86 57 -140q59 -53 150 -53q83 0 146 45l22 106h-191l26 131h327l-63 -317q-119 -105 -280 -105q-154 0 -251 90t-97 226zM479 747
q-76 0 -119 39.5t-43 104.5h106q6 -47 63 -47q56 0 77 47h106q-19 -65 -69 -104.5t-121 -39.5z" />
    <glyph glyph-name="Gdotaccent.alt" horiz-adv-x="750" 
d="M473 743q-30 0 -48.5 17.5t-18.5 44.5q0 32 24 56t57 24q30 0 49.5 -18t19.5 -46q0 -31 -24 -54.5t-59 -23.5zM27 305q0 105 54 196q54 93 150 150q97 57 211 57q183 0 282 -139l-116 -85q-68 84 -179 84q-101 0 -175 -75q-73 -73 -73 -171q0 -86 57 -140q59 -53 150 -53
q83 0 146 45l22 106h-191l26 131h327l-63 -317q-119 -105 -280 -105q-154 0 -251 90t-97 226z" />
    <glyph glyph-name="Gcommaaccent.alt" horiz-adv-x="750" 
d="M27 305q0 105 54 196q54 93 150 150q97 57 211 57q183 0 282 -139l-116 -85q-68 84 -179 84q-101 0 -175 -75q-73 -73 -73 -171q0 -86 57 -140q59 -53 150 -53q83 0 146 45l22 106h-191l26 131h327l-63 -317q-119 -105 -280 -105q-154 0 -251 90t-97 226zM294 -193h-116
l80 145h165z" />
    <glyph glyph-name="Kcommaaccent.alt" horiz-adv-x="684" 
d="M152 0h-155l142 697h155l-60 -292l315 292h196l-334 -318l200 -379h-167l-151 279l-105 -98zM136 -193l80 145h165l-129 -145h-116z" />
    <glyph glyph-name="Sacute.alt" horiz-adv-x="580" 
d="M-25 155l123 76q42 -103 164 -103q48 0 80 22.5t32 54.5t-32 52q-10 6 -31 18q-9 5 -44 20l-46 20q-138 61 -138 176q0 88 71 153q73 65 181 65q82 0 142.5 -35.5t85.5 -91.5l-119 -78q-13 30 -44.5 48.5t-72.5 18.5q-39 0 -65.5 -19t-26.5 -46q0 -24 26 -47
q5 -4 25.5 -13.5t23.5 -11.5q9 -3 38.5 -15.5t34.5 -14.5q145 -63 145 -183q0 -97 -75 -165q-73 -67 -204 -67q-107 0 -180 48t-94 118zM408 745h-116l80 145h165z" />
    <glyph glyph-name="Scircumflex.alt" horiz-adv-x="580" 
d="M-25 155l123 76q42 -103 164 -103q48 0 80 22.5t32 54.5t-32 52q-10 6 -31 18q-9 5 -44 20l-46 20q-138 61 -138 176q0 88 71 153q73 65 181 65q82 0 142.5 -35.5t85.5 -91.5l-119 -78q-13 30 -44.5 48.5t-72.5 18.5q-39 0 -65.5 -19t-26.5 -46q0 -24 26 -47
q5 -4 25.5 -13.5t23.5 -11.5q9 -3 38.5 -15.5t34.5 -14.5q145 -63 145 -183q0 -97 -75 -165q-73 -67 -204 -67q-107 0 -180 48t-94 118zM306 753h-145l225 155l161 -155h-131l-44 59z" />
    <glyph glyph-name="Scaron.alt" horiz-adv-x="580" 
d="M-25 155l123 76q42 -103 164 -103q48 0 80 22.5t32 54.5t-32 52q-10 6 -31 18q-9 5 -44 20l-46 20q-138 61 -138 176q0 88 71 153q73 65 181 65q82 0 142.5 -35.5t85.5 -91.5l-119 -78q-13 30 -44.5 48.5t-72.5 18.5q-39 0 -65.5 -19t-26.5 -46q0 -24 26 -47
q5 -4 25.5 -13.5t23.5 -11.5q9 -3 38.5 -15.5t34.5 -14.5q145 -63 145 -183q0 -97 -75 -165q-73 -67 -204 -67q-107 0 -180 48t-94 118zM583 890l-225 -155l-161 155h131l44 -59l66 59h145z" />
    <glyph glyph-name="Scommaaccent.alt" horiz-adv-x="580" 
d="M-25 155l123 76q42 -103 164 -103q48 0 80 22.5t32 54.5t-32 52q-10 6 -31 18q-9 5 -44 20l-46 20q-138 61 -138 176q0 88 71 153q73 65 181 65q82 0 142.5 -35.5t85.5 -91.5l-119 -78q-13 30 -44.5 48.5t-72.5 18.5q-39 0 -65.5 -19t-26.5 -46q0 -24 26 -47
q5 -4 25.5 -13.5t23.5 -11.5q9 -3 38.5 -15.5t34.5 -14.5q145 -63 145 -183q0 -97 -75 -165q-73 -67 -204 -67q-107 0 -180 48t-94 118zM76 -193l80 145h165l-129 -145h-116z" />
    <glyph glyph-name="Scedilla.alt" horiz-adv-x="580" 
d="M72 -187l41 61q19 -16 48 -16q17 0 29 10.5t12 24.5q0 30 -53 30h-1l43 70q-82 12 -140 56.5t-76 105.5l123 76q42 -103 164 -103q48 0 80 22.5t32 54.5t-32 52q-10 6 -31 18q-9 5 -44 20l-46 20q-138 61 -138 176q0 88 71 153q73 65 181 65q82 0 142.5 -35.5t85.5 -91.5
l-119 -78q-13 30 -44.5 48.5t-72.5 18.5q-39 0 -65.5 -19t-26.5 -46q0 -24 26 -47q5 -4 25.5 -13.5t23.5 -11.5q9 -3 38.5 -15.5t34.5 -14.5q145 -63 145 -183q0 -94 -68 -159t-187 -72l-24 -36q21 -2 37 -20.5t16 -44.5q0 -46 -36 -76.5t-93 -30.5q-73 0 -101 31z" />
    <glyph glyph-name="Wgrave.alt" horiz-adv-x="1001" 
d="M482 291l-217 -324l-186 730h144l104 -411l102 148l-72 263h139l33 -131l85 131h145l-178 -269l39 -144l278 413h163l-486 -730zM632 745h-106l-71 145h154z" />
    <glyph glyph-name="Wacute.alt" horiz-adv-x="1001" 
d="M482 291l-217 -324l-186 730h144l104 -411l102 148l-72 263h139l33 -131l85 131h145l-178 -269l39 -144l278 413h163l-486 -730zM613 745h-116l80 145h165z" />
    <glyph glyph-name="Wcircumflex.alt" horiz-adv-x="1001" 
d="M482 291l-217 -324l-186 730h144l104 -411l102 148l-72 263h139l33 -131l85 131h145l-178 -269l39 -144l278 413h163l-486 -730zM518 753h-145l225 155l161 -155h-131l-44 59z" />
    <glyph glyph-name="Wdieresis.alt" horiz-adv-x="1001" 
d="M678 737q-30 0 -48.5 17t-18.5 44q0 31 23.5 54.5t56.5 23.5q30 0 49 -18t19 -45q0 -30 -24 -53t-57 -23zM467 737q-30 0 -48.5 17t-18.5 44q0 31 23.5 54.5t56.5 23.5q30 0 49 -18t19 -45q0 -30 -24 -53t-57 -23zM482 291l-217 -324l-186 730h144l104 -411l102 148
l-72 263h139l33 -131l85 131h145l-178 -269l39 -144l278 413h163l-486 -730z" />
    <glyph glyph-name="a.alt" horiz-adv-x="559" 
d="M-20 127q0 81 53 124q24 20 61 33q57 22 151 30q65 5 85 13.5t20 32.5q0 18 -19.5 30t-49.5 12q-67 0 -133 -68l-81 81q84 105 225 105q96 0 150 -40.5t54 -111.5q0 -23 -4 -40l-34 -169q-2 -10 -2 -16q0 -23 22 -23q10 0 13 1l-24 -118q-24 -11 -54 -11q-44 0 -67 22
q-15 14 -23 35q-50 -62 -165 -62q-80 0 -129 39t-49 101zM125 155q0 -21 18.5 -33t51.5 -12q113 0 131 98l6 28q-13 -11 -39 -13q-37 -3 -66 -8q-40 -6 -46 -8q-20 -4 -38 -18t-18 -34z" />
    <glyph glyph-name="c.alt" horiz-adv-x="533" 
d="M2 226q0 118 90 206q91 89 216 89q142 0 217 -105l-111 -84q-38 54 -111 54q-61 0 -106 -45t-45 -103q0 -51 34.5 -83.5t90.5 -32.5q61 0 106 47l90 -95q-85 -87 -208 -87q-116 0 -189 67q-74 68 -74 172z" />
    <glyph glyph-name="e.alt" horiz-adv-x="575" 
d="M0 221q0 119 84 207q85 88 211 88q109 0 174 -64q67 -64 67 -164q0 -37 -12 -76h-376q-1 -1 -1 -8q0 -42 35 -67t94 -25q69 0 125 52l77 -88q-92 -90 -226 -90q-113 0 -183 65q-69 65 -69 170zM157 309h236v3q0 35 -28 58t-73 23q-46 0 -83 -23.5t-52 -60.5z" />
    <glyph glyph-name="g.alt" 
d="M-35 -134l89 102q67 -58 158 -58q137 0 165 118l7 31q-43 -64 -153 -64q-94 0 -162 62q-66 63 -66 165q0 118 87 204q88 87 203 87q61 0 106 -20t57 -49l13 60h147l-92 -448q-8 -40 -18 -74q-8 -30 -32 -72q-24 -44 -53 -67q-72 -63 -202 -63q-165 0 -254 86zM152 237
q0 -49 34.5 -80t89.5 -31q62 0 106 41q44 42 44 104q0 47 -34.5 77t-90.5 30q-63 0 -106 -43t-43 -98z" />
    <glyph glyph-name="j.alt" horiz-adv-x="249" 
d="M173 546q-34 0 -56.5 21.5t-22.5 54.5q0 37 28 65t67 28q35 0 57 -21.5t22 -55.5q0 -37 -28 -64.5t-67 -27.5zM232 504l-142 -697h-150l142 697h150z" />
    <glyph glyph-name="k.alt" horiz-adv-x="545" 
d="M128 0h-149l142 697h149l-77 -378l196 185h178l-241 -233l155 -271h-159l-108 186l-61 -58z" />
    <glyph glyph-name="l.alt" horiz-adv-x="308" 
d="M6 122q0 20 8 60l104 515h149l-103 -506q-3 -13 -3 -26q0 -20 13.5 -32t38.5 -12q17 0 32 3l-26 -129q-21 -8 -65 -8q-68 0 -108 37t-40 98z" />
    <glyph glyph-name="r.alt" horiz-adv-x="366" 
d="M126 0h-150l69 341q20 102 91 142q60 34 135 34q70 0 106 -10l-25 -126q-33 5 -63 5q-44 0 -67.5 -17.5t-31.5 -57.5z" />
    <glyph glyph-name="s.alt" horiz-adv-x="474" 
d="M-35 93l100 85q41 -65 137 -65q34 0 54 12t20 30q0 13 -19 22q-17 9 -56 21q-36 12 -61 24q-92 47 -92 131q0 67 58 116q59 50 145 50q116 0 182 -79l-88 -92q-36 45 -99 45q-26 0 -41.5 -10t-15.5 -23t14 -22t55 -23q33 -11 63 -23q96 -40 96 -134q0 -73 -62 -123
q-61 -49 -166 -49q-77 0 -135 28t-89 79z" />
    <glyph glyph-name="t.alt" horiz-adv-x="352" 
d="M36 122q0 23 8 60l38 187h-65l28 135h64l39 193h149l-39 -193h111l-28 -135h-110l-36 -178q-4 -17 -4 -26q0 -20 13.5 -32t38.5 -12t38 3l-27 -129q-24 -8 -69 -8q-68 0 -108.5 37.5t-40.5 97.5z" />
    <glyph glyph-name="u.alt" horiz-adv-x="574" 
d="M7 157q0 19 6 54l62 293h150l-59 -287q-3 -17 -3 -29q0 -31 20 -49.5t56 -18.5q91 0 113 108l56 276h150l-103 -504h-150l14 66q-53 -78 -143 -78q-78 0 -123.5 46.5t-45.5 122.5z" />
    <glyph glyph-name="w.alt" horiz-adv-x="832" 
d="M381 197l-172 -227l-182 534h143l94 -277l64 83l-72 194h131l31 -86l63 86h140l-150 -200l31 -84l211 284h156l-399 -536z" />
    <glyph glyph-name="y.alt" horiz-adv-x="593" 
d="M137 -46l19 35l-114 515h148l71 -332l194 332h161l-326 -553q-21 -37 -43 -69q-16 -24 -44 -51q-48 -48 -130 -48q-59 0 -85 13l25 125q21 -10 55 -10q47 0 69 43z" />
    <glyph glyph-name="agrave.alt" horiz-adv-x="559" 
d="M-20 127q0 81 53 124q24 20 61 33q57 22 151 30q65 5 85 13.5t20 32.5q0 18 -19.5 30t-49.5 12q-67 0 -133 -68l-81 81q84 105 225 105q96 0 150 -40.5t54 -111.5q0 -23 -4 -40l-34 -169q-2 -10 -2 -16q0 -23 22 -23q10 0 13 1l-24 -118q-24 -11 -54 -11q-44 0 -67 22
q-15 14 -23 35q-50 -62 -165 -62q-80 0 -129 39t-49 101zM125 155q0 -21 18.5 -33t51.5 -12q113 0 131 98l6 28q-13 -11 -39 -13q-37 -3 -66 -8q-40 -6 -46 -8q-20 -4 -38 -18t-18 -34zM380 552h-106l-71 145h154z" />
    <glyph glyph-name="aacute.alt" horiz-adv-x="559" 
d="M-20 127q0 81 53 124q24 20 61 33q57 22 151 30q65 5 85 13.5t20 32.5q0 18 -19.5 30t-49.5 12q-67 0 -133 -68l-81 81q84 105 225 105q96 0 150 -40.5t54 -111.5q0 -23 -4 -40l-34 -169q-2 -10 -2 -16q0 -23 22 -23q10 0 13 1l-24 -118q-24 -11 -54 -11q-44 0 -67 22
q-15 14 -23 35q-50 -62 -165 -62q-80 0 -129 39t-49 101zM125 155q0 -21 18.5 -33t51.5 -12q113 0 131 98l6 28q-13 -11 -39 -13q-37 -3 -66 -8q-40 -6 -46 -8q-20 -4 -38 -18t-18 -34zM353 552h-116l80 145h165z" />
    <glyph glyph-name="acircumflex.alt" horiz-adv-x="559" 
d="M-20 127q0 81 53 124q24 20 61 33q57 22 151 30q65 5 85 13.5t20 32.5q0 18 -19.5 30t-49.5 12q-67 0 -133 -68l-81 81q84 105 225 105q96 0 150 -40.5t54 -111.5q0 -23 -4 -40l-34 -169q-2 -10 -2 -16q0 -23 22 -23q10 0 13 1l-24 -118q-24 -11 -54 -11q-44 0 -67 22
q-15 14 -23 35q-50 -62 -165 -62q-80 0 -129 39t-49 101zM125 155q0 -21 18.5 -33t51.5 -12q113 0 131 98l6 28q-13 -11 -39 -13q-37 -3 -66 -8q-40 -6 -46 -8q-20 -4 -38 -18t-18 -34zM261 560h-145l225 155l161 -155h-131l-44 59z" />
    <glyph glyph-name="atilde.alt" horiz-adv-x="559" 
d="M-20 127q0 81 53 124q24 20 61 33q57 22 151 30q65 5 85 13.5t20 32.5q0 18 -19.5 30t-49.5 12q-67 0 -133 -68l-81 81q84 105 225 105q96 0 150 -40.5t54 -111.5q0 -23 -4 -40l-34 -169q-2 -10 -2 -16q0 -23 22 -23q10 0 13 1l-24 -118q-24 -11 -54 -11q-44 0 -67 22
q-15 14 -23 35q-50 -62 -165 -62q-80 0 -129 39t-49 101zM125 155q0 -21 18.5 -33t51.5 -12q113 0 131 98l6 28q-13 -11 -39 -13q-37 -3 -66 -8q-40 -6 -46 -8q-20 -4 -38 -18t-18 -34zM195 569l-80 12q14 57 52.5 91.5t89.5 34.5q36 0 79 -22q44 -21 67 -21q34 0 53 43
l81 -12q-31 -133 -145 -133q-39 0 -82 22t-66 22q-36 0 -49 -37z" />
    <glyph glyph-name="adieresis.alt" horiz-adv-x="559" 
d="M423 555q-30 0 -48.5 17t-18.5 44q0 31 23.5 54.5t56.5 23.5q30 0 49 -17.5t19 -45.5q0 -30 -24 -53t-57 -23zM214 555q-30 0 -48.5 17t-18.5 44q0 31 23.5 54.5t56.5 23.5q31 0 49.5 -17.5t18.5 -45.5q0 -31 -23 -53.5t-58 -22.5zM-20 127q0 81 53 124q24 20 61 33
q57 22 151 30q65 5 85 13.5t20 32.5q0 18 -19.5 30t-49.5 12q-67 0 -133 -68l-81 81q84 105 225 105q96 0 150 -40.5t54 -111.5q0 -23 -4 -40l-34 -169q-2 -10 -2 -16q0 -23 22 -23q10 0 13 1l-24 -118q-24 -11 -54 -11q-44 0 -67 22q-15 14 -23 35q-50 -62 -165 -62
q-80 0 -129 39t-49 101zM125 155q0 -21 18.5 -33t51.5 -12q113 0 131 98l6 28q-13 -11 -39 -13q-37 -3 -66 -8q-40 -6 -46 -8q-20 -4 -38 -18t-18 -34z" />
    <glyph glyph-name="amacron.alt" horiz-adv-x="559" 
d="M477 571h-317l19 96h318zM-20 127q0 81 53 124q24 20 61 33q57 22 151 30q65 5 85 13.5t20 32.5q0 18 -19.5 30t-49.5 12q-67 0 -133 -68l-81 81q84 105 225 105q96 0 150 -40.5t54 -111.5q0 -23 -4 -40l-34 -169q-2 -10 -2 -16q0 -23 22 -23q10 0 13 1l-24 -118
q-24 -11 -54 -11q-44 0 -67 22q-15 14 -23 35q-50 -62 -165 -62q-80 0 -129 39t-49 101zM125 155q0 -21 18.5 -33t51.5 -12q113 0 131 98l6 28q-13 -11 -39 -13q-37 -3 -66 -8q-40 -6 -46 -8q-20 -4 -38 -18t-18 -34z" />
    <glyph glyph-name="abreve.alt" horiz-adv-x="559" 
d="M-20 127q0 81 53 124q24 20 61 33q57 22 151 30q65 5 85 13.5t20 32.5q0 18 -19.5 30t-49.5 12q-67 0 -133 -68l-81 81q84 105 225 105q96 0 150 -40.5t54 -111.5q0 -23 -4 -40l-34 -169q-2 -10 -2 -16q0 -23 22 -23q10 0 13 1l-24 -118q-24 -11 -54 -11q-44 0 -67 22
q-15 14 -23 35q-50 -62 -165 -62q-80 0 -129 39t-49 101zM125 155q0 -21 18.5 -33t51.5 -12q113 0 131 98l6 28q-13 -11 -39 -13q-37 -3 -66 -8q-40 -6 -46 -8q-20 -4 -38 -18t-18 -34zM327 554q-76 0 -119 39.5t-43 104.5h106q6 -47 63 -47q56 0 77 47h106
q-19 -65 -69 -104.5t-121 -39.5z" />
    <glyph glyph-name="aring.alt" horiz-adv-x="559" 
d="M-20 127q0 81 53 124q24 20 61 33q57 22 151 30q65 5 85 13.5t20 32.5q0 18 -19.5 30t-49.5 12q-67 0 -133 -68l-81 81q84 105 225 105q96 0 150 -40.5t54 -111.5q0 -23 -4 -40l-34 -169q-2 -10 -2 -16q0 -23 22 -23q10 0 13 1l-24 -118q-24 -11 -54 -11q-44 0 -67 22
q-15 14 -23 35q-50 -62 -165 -62q-80 0 -129 39t-49 101zM125 155q0 -21 18.5 -33t51.5 -12q113 0 131 98l6 28q-13 -11 -39 -13q-37 -3 -66 -8q-40 -6 -46 -8q-20 -4 -38 -18t-18 -34zM325 547q-49 0 -80.5 28.5t-31.5 72.5q0 52 39 91q40 39 95 39q50 0 82 -29.5t32 -75.5
q0 -49 -40 -88q-40 -38 -96 -38zM333 624q18 0 31.5 13t13.5 29q0 15 -10.5 24.5t-26.5 9.5q-18 0 -31 -12.5t-13 -29.5q0 -15 10 -24.5t26 -9.5z" />
    <glyph glyph-name="aringacute.alt" horiz-adv-x="559" 
d="M423 810h-116l80 145h165zM325 547q-49 0 -80.5 28.5t-31.5 72.5q0 52 39 91q40 39 95 39q50 0 82 -29.5t32 -75.5q0 -49 -40 -88q-40 -38 -96 -38zM333 624q18 0 31.5 13t13.5 29q0 15 -10.5 24.5t-26.5 9.5q-18 0 -31 -12.5t-13 -29.5q0 -15 10 -24.5t26 -9.5zM-20 127
q0 81 53 124q24 20 61 33q57 22 151 30q65 5 85 13.5t20 32.5q0 18 -19.5 30t-49.5 12q-67 0 -133 -68l-81 81q84 105 225 105q96 0 150 -40.5t54 -111.5q0 -23 -4 -40l-34 -169q-2 -10 -2 -16q0 -23 22 -23q10 0 13 1l-24 -118q-24 -11 -54 -11q-44 0 -67 22q-15 14 -23 35
q-50 -62 -165 -62q-80 0 -129 39t-49 101zM125 155q0 -21 18.5 -33t51.5 -12q113 0 131 98l6 28q-13 -11 -39 -13q-37 -3 -66 -8q-40 -6 -46 -8q-20 -4 -38 -18t-18 -34z" />
    <glyph glyph-name="aogonek.alt" horiz-adv-x="564" 
d="M-20 127q0 81 53 124q24 20 61 33q57 22 151 30q65 5 85 13.5t20 32.5q0 18 -19.5 30t-49.5 12q-67 0 -133 -68l-81 81q84 105 225 105q96 0 150 -40.5t54 -111.5q0 -23 -4 -40l-34 -169q-2 -8 -2 -16q0 -15 4.5 -19t17.5 -4q10 0 13 1l-24 -118q-91 -46 -91 -94
q0 -23 28 -29.5t74 5.5l-41 -95q-19 -8 -43 -8q-53 0 -87 28t-34 72q0 66 96 118q-15 5 -23 14q-15 14 -23 35q-50 -62 -165 -62q-80 0 -129 39t-49 101zM125 155q0 -21 18.5 -33t51.5 -12q113 0 131 98l6 28q-13 -11 -39 -13q-37 -3 -66 -8q-40 -6 -46 -8q-20 -4 -38 -18
t-18 -34z" />
    <glyph glyph-name="cacute.alt" horiz-adv-x="533" 
d="M2 226q0 118 90 206q91 89 216 89q142 0 217 -105l-111 -84q-38 54 -111 54q-61 0 -106 -45t-45 -103q0 -51 34.5 -83.5t90.5 -32.5q61 0 106 47l90 -95q-85 -87 -208 -87q-116 0 -189 67q-74 68 -74 172zM382 552h-116l80 145h165z" />
    <glyph glyph-name="ccircumflex.alt" horiz-adv-x="533" 
d="M2 226q0 118 90 206q91 89 216 89q142 0 217 -105l-111 -84q-38 54 -111 54q-61 0 -106 -45t-45 -103q0 -51 34.5 -83.5t90.5 -32.5q61 0 106 47l90 -95q-85 -87 -208 -87q-116 0 -189 67q-74 68 -74 172zM278 560h-145l225 155l161 -155h-131l-44 59z" />
    <glyph glyph-name="ccaron.alt" horiz-adv-x="533" 
d="M2 226q0 118 90 206q91 89 216 89q142 0 217 -105l-111 -84q-38 54 -111 54q-61 0 -106 -45t-45 -103q0 -51 34.5 -83.5t90.5 -32.5q61 0 106 47l90 -95q-85 -87 -208 -87q-116 0 -189 67q-74 68 -74 172zM547 702l-225 -155l-161 155h131l44 -59l66 59h145z" />
    <glyph glyph-name="cdotaccent.alt" horiz-adv-x="533" 
d="M338 555q-30 0 -49 17.5t-19 44.5q0 32 24.5 56t57.5 24q30 0 49 -18t19 -45q0 -32 -24 -55.5t-58 -23.5zM2 226q0 118 90 206q91 89 216 89q142 0 217 -105l-111 -84q-38 54 -111 54q-61 0 -106 -45t-45 -103q0 -51 34.5 -83.5t90.5 -32.5q61 0 106 47l90 -95
q-85 -87 -208 -87q-116 0 -189 67q-74 68 -74 172z" />
    <glyph glyph-name="ccedilla.alt" horiz-adv-x="533" 
d="M68 -187l41 61q19 -16 48 -16q17 0 29 10.5t12 24.5q0 30 -53 30h-1l45 73q-84 19 -136 82q-51 63 -51 148q0 118 90 206q91 89 216 89q142 0 217 -105l-111 -84q-38 54 -111 54q-61 0 -106 -45t-45 -103q0 -51 34.5 -83.5t90.5 -32.5q61 0 106 47l90 -95
q-84 -85 -206 -87h-1l-21 -33q21 -2 37 -20.5t16 -44.5q0 -46 -36 -76.5t-93 -30.5q-73 0 -101 31z" />
    <glyph glyph-name="egrave.alt" horiz-adv-x="575" 
d="M0 221q0 119 84 207q85 88 211 88q109 0 174 -64q67 -64 67 -164q0 -37 -12 -76h-376q-1 -1 -1 -8q0 -42 35 -67t94 -25q69 0 125 52l77 -88q-92 -90 -226 -90q-113 0 -183 65q-69 65 -69 170zM157 309h236v3q0 35 -28 58t-73 23q-46 0 -83 -23.5t-52 -60.5zM389 552
h-106l-71 145h154z" />
    <glyph glyph-name="eacute.alt" horiz-adv-x="575" 
d="M0 221q0 119 84 207q85 88 211 88q109 0 174 -64q67 -64 67 -164q0 -37 -12 -76h-376q-1 -1 -1 -8q0 -42 35 -67t94 -25q69 0 125 52l77 -88q-92 -90 -226 -90q-113 0 -183 65q-69 65 -69 170zM157 309h236v3q0 35 -28 58t-73 23q-46 0 -83 -23.5t-52 -60.5zM371 552
h-116l80 145h165z" />
    <glyph glyph-name="ecircumflex.alt" horiz-adv-x="575" 
d="M0 221q0 119 84 207q85 88 211 88q109 0 174 -64q67 -64 67 -164q0 -37 -12 -76h-376q-1 -1 -1 -8q0 -42 35 -67t94 -25q69 0 125 52l77 -88q-92 -90 -226 -90q-113 0 -183 65q-69 65 -69 170zM157 309h236v3q0 35 -28 58t-73 23q-46 0 -83 -23.5t-52 -60.5zM276 560
h-145l225 155l161 -155h-131l-44 59z" />
    <glyph glyph-name="ecaron.alt" horiz-adv-x="575" 
d="M0 221q0 119 84 207q85 88 211 88q109 0 174 -64q67 -64 67 -164q0 -37 -12 -76h-376q-1 -1 -1 -8q0 -42 35 -67t94 -25q69 0 125 52l77 -88q-92 -90 -226 -90q-113 0 -183 65q-69 65 -69 170zM157 309h236v3q0 35 -28 58t-73 23q-46 0 -83 -23.5t-52 -60.5zM549 702
l-225 -155l-161 155h131l44 -59l66 59h145z" />
    <glyph glyph-name="edieresis.alt" horiz-adv-x="575" 
d="M438 555q-29 0 -48 17t-19 44q0 31 24 54.5t57 23.5q30 0 49 -17.5t19 -45.5q0 -31 -23.5 -53.5t-58.5 -22.5zM230 555q-30 0 -48.5 17t-18.5 44q0 31 23.5 54.5t56.5 23.5q30 0 49 -17.5t19 -45.5q0 -30 -24 -53t-57 -23zM0 221q0 119 84 207q85 88 211 88
q109 0 174 -64q67 -64 67 -164q0 -37 -12 -76h-376q-1 -1 -1 -8q0 -42 35 -67t94 -25q69 0 125 52l77 -88q-92 -90 -226 -90q-113 0 -183 65q-69 65 -69 170zM157 309h236v3q0 35 -28 58t-73 23q-46 0 -83 -23.5t-52 -60.5z" />
    <glyph glyph-name="emacron.alt" horiz-adv-x="575" 
d="M0 221q0 119 84 207q85 88 211 88q109 0 174 -64q67 -64 67 -164q0 -37 -12 -76h-376q-1 -1 -1 -8q0 -42 35 -67t94 -25q69 0 125 52l77 -88q-92 -90 -226 -90q-113 0 -183 65q-69 65 -69 170zM157 309h236v3q0 35 -28 58t-73 23q-46 0 -83 -23.5t-52 -60.5zM487 571
h-317l19 96h317z" />
    <glyph glyph-name="ebreve.alt" horiz-adv-x="575" 
d="M0 221q0 119 84 207q85 88 211 88q109 0 174 -64q67 -64 67 -164q0 -37 -12 -76h-376q-1 -1 -1 -8q0 -42 35 -67t94 -25q69 0 125 52l77 -88q-92 -90 -226 -90q-113 0 -183 65q-69 65 -69 170zM157 309h236v3q0 35 -28 58t-73 23q-46 0 -83 -23.5t-52 -60.5zM338 554
q-76 0 -119 39.5t-43 104.5h106q6 -47 63 -47q56 0 77 47h106q-19 -65 -69 -104.5t-121 -39.5z" />
    <glyph glyph-name="edotaccent.alt" horiz-adv-x="575" 
d="M331 555q-30 0 -49 17.5t-19 44.5q0 32 24 56t57 24q30 0 49.5 -18t19.5 -45q0 -32 -23.5 -55.5t-58.5 -23.5zM0 221q0 119 84 207q85 88 211 88q109 0 174 -64q67 -64 67 -164q0 -37 -12 -76h-376q-1 -1 -1 -8q0 -42 35 -67t94 -25q69 0 125 52l77 -88q-92 -90 -226 -90
q-113 0 -183 65q-69 65 -69 170zM157 309h236v3q0 35 -28 58t-73 23q-46 0 -83 -23.5t-52 -60.5z" />
    <glyph glyph-name="eogonek.alt" horiz-adv-x="575" 
d="M144 -118q0 70 80 106h-1q-101 7 -163 71q-60 65 -60 162q0 119 84 207q85 88 211 88q109 0 174 -64q67 -64 67 -164q0 -37 -12 -76h-376q-1 -1 -1 -8q0 -42 35 -67t94 -25q69 0 125 52l77 -88q-42 -44 -124 -75q-21 -8 -53 -23q-21 -10 -37.5 -29.5t-16.5 -39.5
q0 -23 28.5 -29.5t74.5 5.5l-41 -95q-21 -8 -43 -8q-54 0 -88 28t-34 72zM157 309h236v3q0 35 -28 58t-73 23q-46 0 -83 -23.5t-52 -60.5z" />
    <glyph glyph-name="gcircumflex.alt" 
d="M-35 -134l89 102q67 -58 158 -58q137 0 165 118l7 31q-43 -64 -153 -64q-94 0 -162 62q-66 63 -66 165q0 118 87 204q88 87 203 87q61 0 106 -20t57 -49l13 60h147l-92 -448q-8 -40 -18 -74q-8 -30 -32 -72q-24 -44 -53 -67q-72 -63 -202 -63q-165 0 -254 86zM152 237
q0 -49 34.5 -80t89.5 -31q62 0 106 41q44 42 44 104q0 47 -34.5 77t-90.5 30q-63 0 -106 -43t-43 -98zM309 560h-145l225 155l161 -155h-131l-44 59z" />
    <glyph glyph-name="gbreve.alt" 
d="M-35 -134l89 102q67 -58 158 -58q137 0 165 118l7 31q-43 -64 -153 -64q-94 0 -162 62q-66 63 -66 165q0 118 87 204q88 87 203 87q61 0 106 -20t57 -49l13 60h147l-92 -448q-8 -40 -18 -74q-8 -30 -32 -72q-24 -44 -53 -67q-72 -63 -202 -63q-165 0 -254 86zM152 237
q0 -49 34.5 -80t89.5 -31q62 0 106 41q44 42 44 104q0 47 -34.5 77t-90.5 30q-63 0 -106 -43t-43 -98zM372 554q-76 0 -119 39.5t-43 104.5h106q6 -47 63 -47q56 0 77 47h106q-19 -65 -69 -104.5t-121 -39.5z" />
    <glyph glyph-name="gdotaccent.alt" 
d="M370 555q-30 0 -49 17.5t-19 44.5q0 32 24.5 56t57.5 24q30 0 49 -18t19 -45q0 -32 -24 -55.5t-58 -23.5zM-35 -134l89 102q67 -58 158 -58q137 0 165 118l7 31q-43 -64 -153 -64q-94 0 -162 62q-66 63 -66 165q0 118 87 204q88 87 203 87q61 0 106 -20t57 -49l13 60h147
l-92 -448q-8 -40 -18 -74q-8 -30 -32 -72q-24 -44 -53 -67q-72 -63 -202 -63q-165 0 -254 86zM152 237q0 -49 34.5 -80t89.5 -31q62 0 106 41q44 42 44 104q0 47 -34.5 77t-90.5 30q-63 0 -106 -43t-43 -98z" />
    <glyph glyph-name="gcommaaccent.alt" 
d="M-35 -134l89 102q67 -58 158 -58q137 0 165 118l7 31q-43 -64 -153 -64q-94 0 -162 62q-66 63 -66 165q0 118 87 204q88 87 203 87q61 0 106 -20t57 -49l13 60h147l-92 -448q-8 -40 -18 -74q-8 -30 -32 -72q-24 -44 -53 -67q-72 -63 -202 -63q-165 0 -254 86zM152 237
q0 -49 34.5 -80t89.5 -31q62 0 106 41q44 42 44 104q0 47 -34.5 77t-90.5 30q-63 0 -106 -43t-43 -98zM407 552h-116l80 145h165z" />
    <glyph glyph-name="jcircumflex.alt" horiz-adv-x="291" 
d="M153 560h-139l201 155l137 -155h-128l-24 57zM253 504l-142 -697h-150l142 697h150z" />
    <glyph glyph-name="kcommaaccent.alt" horiz-adv-x="545" 
d="M128 0h-149l142 697h149l-77 -378l196 185h178l-241 -233l155 -271h-159l-108 186l-61 -58zM59 -193l80 145h165l-129 -145h-116z" />
    <glyph glyph-name="lacute.alt" horiz-adv-x="308" 
d="M6 122q0 20 8 60l104 515h149l-103 -506q-3 -13 -3 -26q0 -20 13.5 -32t38.5 -12q17 0 32 3l-26 -129q-21 -8 -65 -8q-68 0 -108 37t-40 98zM238 722h-116l80 145h165z" />
    <glyph glyph-name="lcaron.alt" horiz-adv-x="426" 
d="M6 122q0 20 8 60l104 515h149l-103 -506q-3 -13 -3 -26q0 -20 13.5 -32t38.5 -12q17 0 32 3l-26 -129q-21 -8 -65 -8q-68 0 -108 37t-40 98zM376 552h-116l80 145h165z" />
    <glyph glyph-name="lcommaaccent.alt" horiz-adv-x="308" 
d="M6 122q0 20 8 60l104 515h149l-103 -506q-3 -13 -3 -26q0 -20 13.5 -32t38.5 -12q17 0 32 3l-26 -129q-21 -8 -65 -8q-68 0 -108 37t-40 98zM-72 -193l80 145h165l-129 -145h-116z" />
    <glyph glyph-name="ldot.alt" horiz-adv-x="409" 
d="M6 122q0 20 8 60l104 515h149l-103 -506q-3 -13 -3 -26q0 -20 13.5 -32t38.5 -12q17 0 32 3l-26 -129q-21 -8 -65 -8q-68 0 -108 37t-40 98zM303 292q-30 0 -48.5 17t-18.5 44q0 32 24 56t57 24q30 0 49.5 -18t19.5 -45q0 -31 -24 -54.5t-59 -23.5z" />
    <glyph glyph-name="lslash.alt" horiz-adv-x="335" 
d="M30 122q0 20 8 60l15 76l-75 -38l29 142l75 38l61 297h149l-46 -226l98 48l-29 -141l-98 -48l-28 -139q-3 -13 -3 -26q0 -45 52 -45q16 0 31 3l-26 -128q-20 -7 -64 -7q-68 0 -108.5 37t-40.5 97z" />
    <glyph glyph-name="racute.alt" horiz-adv-x="366" 
d="M126 0h-150l69 341q20 102 91 142q60 34 135 34q70 0 106 -10l-25 -126q-33 5 -63 5q-44 0 -67.5 -17.5t-31.5 -57.5zM275 552h-116l80 145h165z" />
    <glyph glyph-name="rcommaaccent.alt" horiz-adv-x="366" 
d="M126 0h-150l69 341q20 102 91 142q60 34 135 34q70 0 106 -10l-25 -126q-33 5 -63 5q-44 0 -67.5 -17.5t-31.5 -57.5zM-114 -193l80 145h165l-129 -145h-116z" />
    <glyph glyph-name="rcaron.alt" horiz-adv-x="366" 
d="M126 0h-150l69 341q20 102 91 142q60 34 135 34q70 0 106 -10l-25 -126q-33 5 -63 5q-44 0 -67.5 -17.5t-31.5 -57.5zM477 702l-225 -155l-161 155h131l44 -59l66 59h145z" />
    <glyph glyph-name="sacute.alt" horiz-adv-x="474" 
d="M-35 93l100 85q41 -65 137 -65q34 0 54 12t20 30q0 13 -19 22q-17 9 -56 21q-36 12 -61 24q-92 47 -92 131q0 67 58 116q59 50 145 50q116 0 182 -79l-88 -92q-36 45 -99 45q-26 0 -41.5 -10t-15.5 -23t14 -22t55 -23q33 -11 63 -23q96 -40 96 -134q0 -73 -62 -123
q-61 -49 -166 -49q-77 0 -135 28t-89 79zM312 552h-116l80 145h165z" />
    <glyph glyph-name="scircumflex.alt" horiz-adv-x="474" 
d="M-35 93l100 85q41 -65 137 -65q34 0 54 12t20 30q0 13 -19 22q-17 9 -56 21q-36 12 -61 24q-92 47 -92 131q0 67 58 116q59 50 145 50q116 0 182 -79l-88 -92q-36 45 -99 45q-26 0 -41.5 -10t-15.5 -23t14 -22t55 -23q33 -11 63 -23q96 -40 96 -134q0 -73 -62 -123
q-61 -49 -166 -49q-77 0 -135 28t-89 79zM217 560h-145l225 155l161 -155h-131l-44 59z" />
    <glyph glyph-name="scaron.alt" horiz-adv-x="474" 
d="M-35 93l100 85q41 -65 137 -65q34 0 54 12t20 30q0 13 -19 22q-17 9 -56 21q-36 12 -61 24q-92 47 -92 131q0 67 58 116q59 50 145 50q116 0 182 -79l-88 -92q-36 45 -99 45q-26 0 -41.5 -10t-15.5 -23t14 -22t55 -23q33 -11 63 -23q96 -40 96 -134q0 -73 -62 -123
q-61 -49 -166 -49q-77 0 -135 28t-89 79zM491 702l-225 -155l-161 155h131l44 -59l66 59h145z" />
    <glyph glyph-name="scommaaccent.alt" horiz-adv-x="474" 
d="M-35 93l100 85q41 -65 137 -65q34 0 54 12t20 30q0 13 -19 22q-17 9 -56 21q-36 12 -61 24q-92 47 -92 131q0 67 58 116q59 50 145 50q116 0 182 -79l-88 -92q-36 45 -99 45q-26 0 -41.5 -10t-15.5 -23t14 -22t55 -23q33 -11 63 -23q96 -40 96 -134q0 -73 -62 -123
q-61 -49 -166 -49q-77 0 -135 28t-89 79zM14 -193l80 145h165l-129 -145h-116z" />
    <glyph glyph-name="scedilla.alt" horiz-adv-x="474" 
d="M22 -187l41 61q19 -16 48 -16q17 0 29 10.5t12 24.5q0 30 -53 30h-1l41 66q-121 17 -174 104l100 85q41 -65 137 -65q34 0 54 12t20 30q0 13 -19 22q-17 9 -56 21q-36 12 -61 24q-92 47 -92 131q0 67 58 116q59 50 145 50q116 0 182 -79l-88 -92q-36 45 -99 45
q-26 0 -41.5 -10t-15.5 -23t14 -22t55 -23q33 -11 63 -23q96 -40 96 -134q0 -68 -53 -116q-53 -47 -143 -54l-22 -34q21 -2 37 -20.5t16 -44.5q0 -46 -36 -76.5t-93 -30.5q-73 0 -101 31z" />
    <glyph glyph-name="germandbls.alt" horiz-adv-x="597" 
d="M129 0h-151l107 524q18 92 75.5 140t142.5 48q84 0 137 -47t53 -119q0 -59 -48 -100q51 -25 80.5 -73.5t29.5 -108.5q0 -112 -80 -195q-79 -82 -207 -82q-53 0 -90 8l27 133q22 -5 64 -5q57 0 98 39q40 39 40 90q0 47 -33 77t-86 30q-12 0 -37 -5l20 97q83 12 83 71
q0 24 -16 39t-42 15q-23 0 -40.5 -17.5t-22.5 -44.5z" />
    <glyph glyph-name="tcaron.alt" horiz-adv-x="450" 
d="M36 122q0 23 8 60l38 187h-65l28 135h64l39 193h149l-39 -193h111l-28 -135h-110l-36 -178q-4 -17 -4 -26q0 -20 13.5 -32t38.5 -12t38 3l-27 -129q-24 -8 -69 -8q-68 0 -108.5 37.5t-40.5 97.5zM411 552h-116l80 145h165z" />
    <glyph glyph-name="tcommaaccent.alt" horiz-adv-x="352" 
d="M36 122q0 23 8 60l38 187h-65l28 135h64l39 193h149l-39 -193h111l-28 -135h-110l-36 -178q-4 -17 -4 -26q0 -20 13.5 -32t38.5 -12t38 3l-27 -129q-24 -8 -69 -8q-68 0 -108.5 37.5t-40.5 97.5zM-42 -193l80 145h165l-129 -145h-116z" />
    <glyph glyph-name="tbar.alt" horiz-adv-x="355" 
d="M35 122q0 14 3 32l13 67h-61l24 118h61l8 39h-61l26 126h61l39 193h149l-39 -193h106l-26 -126h-106l-8 -39h105l-24 -118h-107l-9 -47q-2 -14 -2 -15q0 -39 45 -39q30 0 48 3l-26 -128q-22 -7 -70 -7q-68 0 -108.5 37t-40.5 97z" />
    <glyph glyph-name="ugrave.alt" horiz-adv-x="574" 
d="M7 157q0 19 6 54l62 293h150l-59 -287q-3 -17 -3 -29q0 -31 20 -49.5t56 -18.5q91 0 113 108l56 276h150l-103 -504h-150l14 66q-53 -78 -143 -78q-78 0 -123.5 46.5t-45.5 122.5zM386 552h-106l-71 145h154z" />
    <glyph glyph-name="uacute.alt" horiz-adv-x="574" 
d="M7 157q0 19 6 54l62 293h150l-59 -287q-3 -17 -3 -29q0 -31 20 -49.5t56 -18.5q91 0 113 108l56 276h150l-103 -504h-150l14 66q-53 -78 -143 -78q-78 0 -123.5 46.5t-45.5 122.5zM362 552h-116l80 145h165z" />
    <glyph glyph-name="ucircumflex.alt" horiz-adv-x="574" 
d="M7 157q0 19 6 54l62 293h150l-59 -287q-3 -17 -3 -29q0 -31 20 -49.5t56 -18.5q91 0 113 108l56 276h150l-103 -504h-150l14 66q-53 -78 -143 -78q-78 0 -123.5 46.5t-45.5 122.5zM272 560h-145l225 155l161 -155h-131l-44 59z" />
    <glyph glyph-name="utilde.alt" horiz-adv-x="574" 
d="M206 569l-80 12q14 57 52.5 91.5t89.5 34.5q36 0 79 -22q43 -21 67 -21q34 0 53 43l81 -12q-31 -133 -145 -133q-38 0 -81 22t-67 22q-36 0 -49 -37zM7 157q0 19 6 54l62 293h150l-59 -287q-3 -17 -3 -29q0 -31 20 -49.5t56 -18.5q91 0 113 108l56 276h150l-103 -504
h-150l14 66q-53 -78 -143 -78q-78 0 -123.5 46.5t-45.5 122.5z" />
    <glyph glyph-name="udieresis.alt" horiz-adv-x="574" 
d="M435 555q-30 0 -48.5 17t-18.5 44q0 31 23.5 54.5t56.5 23.5q31 0 49.5 -17.5t18.5 -45.5q0 -31 -23 -53.5t-58 -22.5zM227 555q-30 0 -48.5 17t-18.5 44q0 31 23.5 54.5t56.5 23.5q30 0 49 -17.5t19 -45.5q0 -30 -24 -53t-57 -23zM7 157q0 19 6 54l62 293h150l-59 -287
q-3 -17 -3 -29q0 -31 20 -49.5t56 -18.5q91 0 113 108l56 276h150l-103 -504h-150l14 66q-53 -78 -143 -78q-78 0 -123.5 46.5t-45.5 122.5z" />
    <glyph glyph-name="umacron.alt" horiz-adv-x="574" 
d="M480 571h-317l20 96h317zM7 157q0 19 6 54l62 293h150l-59 -287q-3 -17 -3 -29q0 -31 20 -49.5t56 -18.5q91 0 113 108l56 276h150l-103 -504h-150l14 66q-53 -78 -143 -78q-78 0 -123.5 46.5t-45.5 122.5z" />
    <glyph glyph-name="ubreve.alt" horiz-adv-x="574" 
d="M7 157q0 19 6 54l62 293h150l-59 -287q-3 -17 -3 -29q0 -31 20 -49.5t56 -18.5q91 0 113 108l56 276h150l-103 -504h-150l14 66q-53 -78 -143 -78q-78 0 -123.5 46.5t-45.5 122.5zM334 554q-76 0 -119 39.5t-43 104.5h106q6 -47 63 -47q56 0 77 47h106
q-19 -65 -69 -104.5t-121 -39.5z" />
    <glyph glyph-name="uring.alt" horiz-adv-x="574" 
d="M7 157q0 19 6 54l62 293h150l-59 -287q-3 -17 -3 -29q0 -31 20 -49.5t56 -18.5q91 0 113 108l56 276h150l-103 -504h-150l14 66q-53 -78 -143 -78q-78 0 -123.5 46.5t-45.5 122.5zM320 535q-49 0 -80.5 28.5t-31.5 72.5q0 52 39 91q41 39 95 39q50 0 82 -29.5t32 -75.5
q0 -49 -40 -88q-40 -38 -96 -38zM328 612q18 0 31.5 13t13.5 29q0 15 -10.5 24.5t-26.5 9.5q-18 0 -31 -12.5t-13 -29.5q0 -15 10 -24.5t26 -9.5z" />
    <glyph glyph-name="uhungarumlaut.alt" horiz-adv-x="574" 
d="M7 157q0 19 6 54l62 293h150l-59 -287q-3 -17 -3 -29q0 -31 20 -49.5t56 -18.5q91 0 113 108l56 276h150l-103 -504h-150l14 66q-53 -78 -143 -78q-78 0 -123.5 46.5t-45.5 122.5zM456 552h-112l97 145h160zM274 552h-112l97 145h160z" />
    <glyph glyph-name="uogonek.alt" horiz-adv-x="574" 
d="M7 157q0 19 6 54l62 293h150l-59 -287q-3 -17 -3 -29q0 -31 20 -49.5t56 -18.5q91 0 113 108l56 276h150l-103 -504q-87 -50 -87 -91q0 -23 28 -29.5t74 5.5l-40 -95q-21 -8 -44 -8q-53 0 -87 28t-34 72q0 66 97 118h-57l14 66q-53 -78 -143 -78q-78 0 -123.5 46.5
t-45.5 122.5z" />
    <glyph glyph-name="wgrave.alt" horiz-adv-x="832" 
d="M381 197l-172 -227l-182 534h143l94 -277l64 83l-72 194h131l31 -86l63 86h140l-150 -200l31 -84l211 284h156l-399 -536zM513 552h-106l-71 145h154z" />
    <glyph glyph-name="wacute.alt" horiz-adv-x="832" 
d="M381 197l-172 -227l-182 534h143l94 -277l64 83l-72 194h131l31 -86l63 86h140l-150 -200l31 -84l211 284h156l-399 -536zM477 552h-116l80 145h165z" />
    <glyph glyph-name="wcircumflex.alt" horiz-adv-x="832" 
d="M381 197l-172 -227l-182 534h143l94 -277l64 83l-72 194h131l31 -86l63 86h140l-150 -200l31 -84l211 284h156l-399 -536zM394 560h-145l225 155l161 -155h-131l-44 59z" />
    <glyph glyph-name="wdieresis.alt" horiz-adv-x="832" 
d="M554 555q-30 0 -48.5 17t-18.5 44q0 31 23.5 54.5t56.5 23.5q30 0 49 -17.5t19 -45.5q0 -30 -24 -53t-57 -23zM344 555q-30 0 -49 17t-19 44q0 31 24 54.5t57 23.5q30 0 49 -17.5t19 -45.5q0 -30 -24 -53t-57 -23zM381 197l-172 -227l-182 534h143l94 -277l64 83l-72 194
h131l31 -86l63 86h140l-150 -200l31 -84l211 284h156l-399 -536z" />
    <glyph glyph-name="ygrave.alt" horiz-adv-x="593" 
d="M137 -46l19 35l-114 515h148l71 -332l194 332h161l-326 -553q-21 -37 -43 -69q-16 -24 -44 -51q-48 -48 -130 -48q-59 0 -85 13l25 125q21 -10 55 -10q47 0 69 43zM395 552h-106l-71 145h154z" />
    <glyph glyph-name="yacute.alt" horiz-adv-x="593" 
d="M137 -46l19 35l-114 515h148l71 -332l194 332h161l-326 -553q-21 -37 -43 -69q-16 -24 -44 -51q-48 -48 -130 -48q-59 0 -85 13l25 125q21 -10 55 -10q47 0 69 43zM367 552h-116l80 145h165z" />
    <glyph glyph-name="ycircumflex.alt" horiz-adv-x="593" 
d="M137 -46l19 35l-114 515h148l71 -332l194 332h161l-326 -553q-21 -37 -43 -69q-16 -24 -44 -51q-48 -48 -130 -48q-59 0 -85 13l25 125q21 -10 55 -10q47 0 69 43zM280 560h-145l225 155l161 -155h-131l-44 59z" />
    <glyph glyph-name="ydieresis.alt" horiz-adv-x="593" 
d="M440 555q-30 0 -48.5 17t-18.5 44q0 31 23.5 54.5t56.5 23.5q30 0 49 -17.5t19 -45.5q0 -30 -24 -53t-57 -23zM231 555q-30 0 -48.5 17t-18.5 44q0 31 23.5 54.5t56.5 23.5q31 0 49.5 -17.5t18.5 -45.5q0 -31 -23 -53.5t-58 -22.5zM137 -46l19 35l-114 515h148l71 -332
l194 332h161l-326 -553q-21 -37 -43 -69q-16 -24 -44 -51q-48 -48 -130 -48q-59 0 -85 13l25 125q21 -10 55 -10q47 0 69 43z" />
    <glyph glyph-name="fj.alt" horiz-adv-x="624" 
d="M185 0h-149l75 368h-83l28 136h83l14 63q17 70 79.5 107t156.5 37q71 0 111 -8l-23 -121q-52 5 -84 5q-48 0 -71.5 -12.5t-33.5 -44.5l-5 -26h323l-142 -697h-150l114 561h-168z" />
    <glyph glyph-name="fl.alt" horiz-adv-x="683" 
d="M185 0h-149l75 368h-83l28 136h83l14 63q15 70 69 107t135 37q47 0 79 -9l-24 -121q-21 6 -51 6q-33 0 -49.5 -12.5t-23.5 -44.5l-5 -26h101l-28 -136h-96zM381 122q0 20 8 60l105 515h150l-103 -506q-4 -16 -4 -26q0 -21 13.5 -33t38.5 -12q16 0 31 3l-26 -128
q-20 -7 -64 -7q-68 0 -108.5 37t-40.5 97z" />
    <glyph glyph-name="ffj.alt" horiz-adv-x="940" 
d="M185 0h-149l75 368h-83l28 136h83l14 63q15 70 69 107t135 37q44 0 73 -8l-24 -121q-28 5 -45 5q-34 0 -50.5 -12.5t-22.5 -44.5l-5 -26h173l13 63q18 70 80 107t156 37q72 0 112 -8l-24 -121q-52 5 -84 5q-49 0 -74 -13.5t-31 -43.5l-5 -26h323l-142 -697h-150l115 561
h-169l-75 -368h-148l75 368h-168z" />
    <glyph glyph-name="ffl.alt" horiz-adv-x="1006" 
d="M185 0h-149l75 368h-83l28 136h83l14 63q15 70 69 107t135 37q44 0 73 -8l-24 -121q-28 5 -45 5q-33 0 -49.5 -12.5t-23.5 -44.5l-5 -26h179l14 63q15 70 68.5 107t135.5 37q50 0 79 -8l-23 -121q-33 5 -52 5q-33 0 -49.5 -12.5t-23.5 -44.5l-5 -26h101l-28 -136h-96
l-75 -368h-149l75 368h-174zM704 122q0 20 8 60l105 515h150l-103 -506q-4 -16 -4 -26q0 -21 13.5 -33t38.5 -12q16 0 31 3l-26 -128q-20 -7 -64 -7q-68 0 -108.5 37t-40.5 97z" />
    <glyph glyph-name="zero.onum" horiz-adv-x="598" 
d="M8 197q0 32 13 91q25 117 103 175q78 57 184 57q108 0 175 -61q67 -60 67 -151q0 -39 -13 -95q-25 -108 -99 -168t-187 -60q-109 0 -177 60q-66 60 -66 152zM155 204q0 -38 29 -61.5t81 -23.5q49 0 83 27.5t47 80.5q10 44 10 68q0 38 -29 62.5t-78 24.5q-48 0 -83 -28
t-49 -80q-11 -42 -11 -70z" />
    <glyph glyph-name="one.onum" horiz-adv-x="410" 
d="M269 0h-151l61 301l-122 -51l-42 128l363 157z" />
    <glyph glyph-name="two.onum" horiz-adv-x="537" 
d="M441 0h-509l366 268q29 21 38 34.5t9 32.5q0 23 -21 38t-54 15q-37 0 -67 -25.5t-39 -66.5h-140q18 107 89 166q70 58 168 58q94 0 152 -46q59 -45 59 -116q0 -52 -23 -88t-77 -76l-73 -54h150z" />
    <glyph glyph-name="three.onum" horiz-adv-x="548" 
d="M-65 7l132 74q32 -74 122 -74q55 0 92 31q38 32 38 72q0 34 -34.5 56.5t-88.5 22.5q-62 0 -109 -10l181 185h-216l29 140h476l-213 -219l-2 -2q60 -14 94.5 -57.5t34.5 -103.5q0 -105 -79 -178q-77 -73 -212 -73q-80 0 -151 38q-69 37 -94 98z" />
    <glyph glyph-name="four.onum" horiz-adv-x="616" 
d="M331 0h-387l324 504h163l-238 -372h165l28 135h150l-85 -417h-150z" />
    <glyph glyph-name="five.onum" horiz-adv-x="548" 
d="M-50 13l137 74q10 -34 41 -55.5t72 -21.5q48 0 82 30q35 30 35 68q0 37 -32.5 59t-89.5 22q-89 0 -174 -21l127 336h357l-28 -140h-239l-26 -67q11 4 32 4q98 0 162 -53q63 -53 63 -133q0 -97 -78 -170q-77 -74 -202 -74q-80 0 -150 40q-70 41 -89 102z" />
    <glyph glyph-name="six.onum" horiz-adv-x="559" 
d="M-2 208q0 74 38 132q22 33 39 54q15 19 58 65l216 238h173l-211 -236q1 1 7 1q87 -9 141 -66q54 -56 54 -139q0 -108 -80 -188q-79 -79 -199 -79q-105 0 -170 61q-66 61 -66 157zM148 222q0 -41 26.5 -66.5t69.5 -25.5q50 0 84 34t34 78q0 40 -27.5 66t-70.5 26
q-48 0 -82 -34t-34 -78z" />
    <glyph glyph-name="seven.onum" horiz-adv-x="537" 
d="M127 -193h-165l353 557h-287l29 140h515z" />
    <glyph glyph-name="eight.onum" horiz-adv-x="575" 
d="M2 207q0 64 38 120q39 56 101 83q-32 38 -32 87q2 86 68 148q67 63 162 63q86 0 140 -51q54 -50 54 -128q0 -42 -20 -79.5t-55 -59.5q66 -56 66 -143q0 -105 -79 -181t-201 -76q-107 0 -174 61q-68 62 -68 156zM315 439q33 0 56 23.5t23 54.5q0 27 -19 44t-49 17
q-33 0 -56.5 -22.5t-23.5 -52.5q0 -29 19 -46.5t50 -17.5zM156 220q0 -40 27.5 -65t71.5 -25q48 0 81.5 32.5t33.5 75.5q0 39 -28 64.5t-71 25.5q-47 0 -81 -33q-34 -31 -34 -75z" />
    <glyph glyph-name="nine.onum" horiz-adv-x="562" 
d="M217 0h-179l212 240h-4q-2 -1 -5 -1q-82 0 -139 58q-56 59 -56 144q0 106 83 186t197 80q103 0 170 -62q67 -61 67 -156q5 -45 -33 -114q-8 -15 -26 -38l-28 -35l-36 -42l-36 -42zM297 363q49 0 83 34t34 79q0 40 -27.5 65.5t-71.5 25.5q-49 0 -84 -33q-34 -33 -34 -77
q0 -41 28 -67.5t72 -26.5z" />
    <glyph glyph-name="zero.tnum" horiz-adv-x="563" 
d="M22 197q0 36 16 110l10 51l16 75l9 40q23 114 94.5 174.5t173.5 60.5q99 0 160 -60q61 -58 61 -149q0 -34 -16 -111q-26 -140 -34 -165q-22 -111 -92 -173t-175 -62q-100 0 -162 59q-61 58 -61 150zM169 202q0 -36 22.5 -59t64.5 -23q83 0 106 104l10 47q1 4 20 91l12 58
q11 60 11 72q0 37 -23 60.5t-62 23.5q-40 0 -68 -27t-39 -77l-11 -47l-20 -91l-12 -58q-11 -55 -11 -74z" />
    <glyph glyph-name="one.tnum" horiz-adv-x="563" 
d="M350 0h-153l100 493l-160 -73l-42 128l403 182z" />
    <glyph glyph-name="two.tnum" horiz-adv-x="563" 
d="M448 0h-518l382 381l16 16q11 10 31 32q33 35 33 70q0 31 -21 50.5t-55 19.5q-35 0 -60.5 -25t-32.5 -69h-148q20 114 88 174t166 60q94 0 153 -56q60 -56 60 -142q0 -94 -95 -189l-186 -182h216z" />
    <glyph glyph-name="three.tnum" horiz-adv-x="563" 
d="M-23 130l133 75q27 -75 119 -75q57 0 95 33.5t38 81.5q0 43 -36.5 70t-98.5 27q-69 0 -109 -10l210 225h-213l28 140h466l-232 -256l-1 -1q63 -13 102 -63t39 -119q0 -110 -83 -190q-82 -78 -215 -78q-83 0 -151 38q-65 39 -91 102z" />
    <glyph glyph-name="four.tnum" horiz-adv-x="563" 
d="M331 130h-371l344 567h165l-268 -431h158l27 131h150l-81 -397h-150z" />
    <glyph glyph-name="five.tnum" horiz-adv-x="563" 
d="M-40 132l138 74q11 -35 44.5 -55.5t76.5 -20.5q57 0 94 34t37 83q0 41 -37.5 67.5t-96.5 26.5q-98 0 -162 -24l137 380h353l-29 -140h-231l-35 -91q6 3 22 3q103 0 167 -60q66 -59 66 -152q0 -111 -84 -189q-82 -78 -215 -78q-84 0 -154 39q-69 40 -91 103z" />
    <glyph glyph-name="six.tnum" horiz-adv-x="563" 
d="M5 215q0 77 40 138l42 60q23 28 64 75l181 209h172l-194 -224q10 2 16 2q72 0 134 -59q63 -58 63 -149q0 -107 -81 -190q-81 -82 -200 -82q-103 0 -171 62q-66 61 -66 158zM158 228q0 -41 26.5 -67.5t67.5 -26.5q47 0 82 35q34 35 34 81q0 42 -26.5 69t-69.5 27
q-48 0 -81 -36q-33 -34 -33 -82z" />
    <glyph glyph-name="seven.tnum" horiz-adv-x="563" 
d="M174 0h-165l381 557h-318l28 140h549z" />
    <glyph glyph-name="eight.tnum" horiz-adv-x="563" 
d="M2 207q0 63 37.5 118.5t98.5 83.5q-33 36 -33 88q1 85 66 148t158 63q81 0 134 -51q53 -50 53 -128q0 -87 -69 -138q30 -25 48 -63.5t18 -80.5q0 -105 -78 -181q-76 -76 -196 -76q-104 0 -171 61q-66 61 -66 156zM304 439q30 0 51.5 23.5t21.5 54.5q0 27 -17 44t-44 17
q-32 0 -54 -22.5t-22 -52.5q0 -29 18 -46.5t46 -17.5zM156 220q0 -40 26.5 -65t67.5 -25q45 0 77 32.5t32 75.5q0 39 -26.5 64.5t-67.5 25.5q-44 0 -77 -33q-32 -32 -32 -75z" />
    <glyph glyph-name="nine.tnum" horiz-adv-x="563" 
d="M229 0h-175l197 228q-2 -1 -14 -1q-72 0 -136 59q-62 59 -62 149q0 107 81 190q82 82 201 82q103 0 170 -62q66 -61 66 -158q0 -69 -28 -118q-31 -53 -101 -135zM291 356q47 0 80 35q33 36 33 83q0 41 -26 67t-68 26q-47 0 -82 -35q-34 -34 -34 -80q0 -42 27 -69t70 -27z
" />
    <glyph glyph-name="four.alt" horiz-adv-x="580" 
d="M-48 97l21 112l582 520l-103 -507h83l-26 -125h-83l-20 -97h-144l20 97h-330zM341 382l-185 -162h151z" />
    <glyph glyph-name="four.onum.alt" horiz-adv-x="563" 
d="M-65 0l26 132l536 401l-83 -408h82l-26 -125h-81l-20 -97h-143l19 97h-310zM296 246l-166 -122h141z" />
    <glyph glyph-name="four.tnum.alt" horiz-adv-x="563" 
d="M-45 97l22 112l561 520l-103 -507h80l-26 -125h-80l-19 -97h-144l20 97h-311zM324 378l-169 -158h136z" />
    <glyph glyph-name="foursuperior.alt" horiz-adv-x="364" 
d="M17 374l14 66l337 278l-53 -263h45l-17 -81h-45l-9 -46h-94l9 46h-187zM236 523l-84 -69h69z" />
    <glyph glyph-name="four.inferior.alt" horiz-adv-x="364" 
d="M-50 46l14 66l337 278l-53 -263h45l-17 -81h-45l-9 -46h-94l9 46h-187zM169 195l-84 -69h69z" />
    <glyph glyph-name="onequarter.alt" horiz-adv-x="697" 
d="M123 0h-142l589 697h142zM193 328h-109l55 273h-55l20 96h164zM280 46l14 66l337 278l-53 -263h45l-17 -81h-45l-9 -46h-94l9 46h-187zM499 195l-84 -69h69z" />
    <glyph glyph-name="threequarters.alt" horiz-adv-x="744" 
d="M184 0h-142l589 697h142zM28 397l91 54q15 -34 55 -34q25 0 41 13t16 32q0 39 -69 39q-41 0 -59 -7l101 107h-108l20 96h271l-130 -137v-1q36 -8 58.5 -34t22.5 -61q0 -60 -47 -101t-121 -41q-47 0 -86.5 20.5t-55.5 54.5zM327 46l14 66l337 278l-53 -263h45l-17 -81h-45
l-9 -46h-94l9 46h-187zM546 195l-84 -69h69z" />
    <glyph glyph-name="published" horiz-adv-x="809" 
d="M25 304q0 166 120 289t290 123q153 0 250 -93t97 -237q0 -106 -52 -198q-51 -92 -147 -150q-95 -58 -214 -58q-151 0 -248 91q-96 91 -96 233zM127 313q0 -103 70 -167q71 -65 182 -65q127 0 213 89q87 88 87 204q0 105 -70 172q-70 68 -181 68q-123 0 -212 -92t-89 -209
zM340 150h-99l77 382h138q55 0 90.5 -33.5t35.5 -86.5q0 -57 -44 -103q-44 -44 -106 -44h-69zM399 442l-18 -86h55q19 0 33 15t14 34q0 16 -11 26.5t-28 10.5h-45z" />
    <glyph glyph-name="colon.case" horiz-adv-x="227" 
d="M132 398q-33 0 -54 20t-21 51q0 36 27 64t63 28q34 0 55.5 -20.5t21.5 -52.5q0 -36 -27 -63t-65 -27zM78 132q-33 0 -54 20t-21 51q0 36 27 63.5t63 27.5q34 0 55.5 -20.5t21.5 -52.5q0 -36 -27 -62.5t-65 -26.5z" />
    <glyph glyph-name="semicolon.case" horiz-adv-x="271" 
d="M161 398q-33 0 -54 20t-21 51q0 37 26.5 64.5t63.5 27.5q34 0 55 -20.5t21 -52.5q0 -37 -26.5 -63.5t-64.5 -26.5zM204 234l-171 -234h-111l134 234h148z" />
    <glyph glyph-name="bullet.case" horiz-adv-x="360" 
d="M169 229q-49 0 -80 29.5t-31 75.5q0 52 39 93q39 40 93 40q49 0 80.5 -30t31.5 -77q0 -50 -39 -91q-37 -40 -94 -40z" />
    <glyph glyph-name="periodcentered.case" horiz-adv-x="214" 
d="M99 266q-33 0 -54 20t-21 52q0 36 27 63.5t63 27.5q34 0 55 -20.5t21 -52.5q0 -37 -26.5 -63.5t-64.5 -26.5z" />
    <glyph glyph-name="guilsinglleft.case" horiz-adv-x="335" 
d="M256 162h-142l-83 187l160 187h155l-169 -196z" />
    <glyph glyph-name="guilsinglright.case" horiz-adv-x="335" 
d="M143 161h-156l169 196l-79 178h142l83 -187z" />
    <glyph glyph-name="guillemotleft.case" horiz-adv-x="569" 
d="M493 161h-142l-83 187l159 187h156l-170 -196zM256 161h-142l-83 187l160 187h155l-169 -196z" />
    <glyph glyph-name="guillemotright.case" horiz-adv-x="569" 
d="M379 161h-156l170 196l-79 178h141l83 -187zM142 161h-155l169 196l-79 178h142l83 -187z" />
    <glyph glyph-name="slash.case" horiz-adv-x="461" 
d="M554 778l-500 -859h-140l499 859h141z" />
    <glyph glyph-name="backslash.case" horiz-adv-x="461" 
d="M374 -81h-129l-157 859h130z" />
    <glyph glyph-name="hyphen.case" horiz-adv-x="436" 
d="M384 284h-359l27 128h358z" />
    <glyph glyph-name="endash.case" horiz-adv-x="545" 
d="M494 284h-469l26 128h469z" />
    <glyph glyph-name="emdash.case" horiz-adv-x="732" 
d="M681 284h-656l26 128h656z" />
    <glyph glyph-name="parenleft.case" horiz-adv-x="327" 
d="M258 -67l-81 -72q-154 154 -154 392q0 171 88 322q90 154 242 253l54 -77q-122 -99 -187 -228t-65 -275q0 -185 103 -315z" />
    <glyph glyph-name="parenright.case" horiz-adv-x="327" 
d="M-28 -145l-55 77q122 99 187.5 228t65.5 275q0 183 -104 314l81 72q154 -154 154 -391q0 -171 -88 -322q-90 -154 -241 -253z" />
    <glyph glyph-name="bracketleft.case" horiz-adv-x="376" 
d="M276 684l-137 -671h164l-26 -129h-307l189 929h307l-26 -129h-164z" />
    <glyph glyph-name="bracketright.case" horiz-adv-x="376" 
d="M-65 13h164l136 671h-164l27 129h307l-189 -929h-307z" />
    <glyph glyph-name="braceleft.case" horiz-adv-x="367" 
d="M45 42l37 180q0 1 1.5 11.5t1.5 15.5q0 28 -20 46t-50 18l15 71q85 3 102 86l41 201q22 115 133 115h113l-25 -120h-38q-48 0 -58 -52l-28 -140q-23 -111 -123 -127q35 -7 54.5 -31.5t19.5 -58.5q0 -23 -4 -39l-27 -131q0 -4 -0.5 -8t-1 -6t-0.5 -3q0 -17 12.5 -28
t33.5 -11h32l-25 -120h-94q-48 0 -77 27.5t-29 69.5q0 17 4 34z" />
    <glyph glyph-name="braceright.case" horiz-adv-x="367" 
d="M68 83l29 140q23 110 122 127q-35 7 -54.5 31.5t-19.5 58.5q0 14 5 39l27 132q0 3 0.5 5.5t1 4.5t0.5 3.5v2.5q0 17 -13 28t-34 11h-31l25 120h93q48 0 77.5 -27t29.5 -70q0 -17 -4 -34l-37 -180q-3 -15 -3 -26q0 -29 19.5 -46.5t50.5 -18.5l-15 -71q-85 -3 -103 -86
l-41 -201q-22 -115 -133 -115h-113l25 120h39q47 0 57 52z" />
    <glyph glyph-name="exclamdown.case" horiz-adv-x="289" 
d="M193 546q-33 0 -54 20t-21 51q0 36 27 64t63 28q34 0 55.5 -20.5t21.5 -52.5q0 -36 -26.5 -63t-65.5 -27zM162 0h-178l127 507h129z" />
    <glyph glyph-name="questiondown.case" horiz-adv-x="437" 
d="M269 556q-33 0 -53.5 19.5t-20.5 50.5q0 34 25.5 60t63.5 26q32 0 53 -19t21 -49q0 -35 -26.5 -61.5t-62.5 -26.5zM-17 132q0 63 35 103q33 39 120 80q6 3 19 9t18.5 8.5t15 8t14 9t9.5 8.5t7 10.5t2 11.5q0 27 -45 27q-33 0 -72 -13l23 113q36 17 88 17q67 0 109 -36
t42 -93q0 -58 -33 -98t-104 -74q-29 -15 -59 -27q-36 -18 -36 -38q0 -14 16.5 -23.5t43.5 -9.5q74 0 158 48l-29 -142q-64 -44 -147 -44q-85 0 -141 41q-54 40 -54 104z" />
    <glyph glyph-name="at.case" horiz-adv-x="803" 
d="M26 315q0 78 32.5 151t86.5 128t130 88t159 33q152 0 250 -89q97 -88 97 -227q0 -99 -62 -178q-62 -77 -152 -77q-64 0 -95 42q-13 19 -13 41q-30 -46 -100 -46q-57 0 -97 40t-40 106q0 75 54 129t124 54q72 0 86 -35l6 30h109l-45 -223q-1 -3 -1 -12q0 -12 7.5 -19.5
t20.5 -7.5q36 0 60 44q25 44 25 102q0 94 -68 156t-176 62q-116 0 -200 -86q-83 -86 -83 -196q0 -101 66 -166q68 -65 174 -65q48 0 87 16l25 -99q-49 -25 -121 -25q-152 0 -250 92q-96 93 -96 237zM337 340q0 -26 16 -41.5t42 -15.5q30 0 50.5 21t20.5 49q0 25 -16 41
t-43 16q-29 0 -49.5 -21t-20.5 -49z" />
    <glyph glyph-name="Agrave.alt1" horiz-adv-x="741" 
d="M482 600h-131l-59 97h173zM187 117l-82 -117h-170l416 583h134l179 -583h-157l-34 117h-286zM392 419l-122 -179h172z" />
    <glyph glyph-name="Aacute.alt1" horiz-adv-x="741" 
d="M493 600h-138l55 97h182zM187 117l-82 -117h-170l416 583h134l179 -583h-157l-34 117h-286zM392 419l-122 -179h172z" />
    <glyph glyph-name="Acircumflex.alt1" horiz-adv-x="741" 
d="M378 600h-150l215 112l162 -112h-140l-33 43zM187 117l-82 -117h-170l416 583h134l179 -583h-157l-34 117h-286zM392 419l-122 -179h172z" />
    <glyph glyph-name="Atilde.alt1" horiz-adv-x="741" 
d="M314 597l-80 10q31 97 127 97q33 0 78 -14q47 -14 59 -14q28 0 40 30l80 -12q-25 -94 -116 -94q-35 0 -83 12q-46 13 -63 13q-29 0 -42 -28zM187 117l-82 -117h-170l416 583h134l179 -583h-157l-34 117h-286zM392 419l-122 -179h172z" />
    <glyph glyph-name="Adieresis.alt1" horiz-adv-x="748" 
d="M102 0h-167l513 737l213 -737h-153l-30 111h-300zM594 592q-29 0 -48 17.5t-19 43.5q0 32 24 55.5t57 23.5q30 0 49 -18t19 -45q0 -31 -23.5 -54t-58.5 -23zM253 592q-30 0 -48.5 17t-18.5 44q0 32 23.5 55.5t56.5 23.5q30 0 49 -18t19 -45q0 -30 -24 -53.5t-57 -23.5z
M395 427l-129 -185h179z" />
    <glyph glyph-name="Amacron.alt1" horiz-adv-x="741" 
d="M583 611h-329l18 86h329zM187 117l-82 -117h-170l416 583h134l179 -583h-157l-34 117h-286zM392 419l-122 -179h172z" />
    <glyph glyph-name="Abreve.alt1" horiz-adv-x="741" 
d="M423 601q-64 0 -102 27.5t-38 68.5h102q6 -24 49 -24q42 0 58 24h104q-19 -44 -63 -70t-110 -26zM187 117l-82 -117h-170l416 583h134l179 -583h-157l-34 117h-286zM392 419l-122 -179h172z" />
    <glyph glyph-name="Aring.alt1" horiz-adv-x="741" 
d="M182 117l-80 -117h-167l367 523q-13 23 -13 52q0 53 41 94q43 41 100 41q52 0 85.5 -31t33.5 -78q0 -49 -37 -87l152 -514h-153l-32 117h-297zM415 544q21 0 36 15t15 35q0 17 -12 28t-31 11q-20 0 -35 -15t-15 -33t12 -29.5t30 -11.5zM396 430l-130 -190h182z" />
    <glyph glyph-name="Aringacute.alt1" horiz-adv-x="729" 
d="M183 117l-81 -117h-167l344 488q-5 17 -5 27q0 52 41 93q40 40 97 40q4 0 26 -2l30 51h164l-113 -111q10 -21 10 -44q0 -35 -21 -61l144 -481h-153l-33 117h-283zM398 490q20 0 33 13t13 31q0 16 -10.5 26t-27.5 10q-18 0 -32 -14t-14 -31q0 -16 10.5 -25.5t27.5 -9.5z
M386 418l-122 -178h171z" />
    <glyph glyph-name="Aogonek.alt1" horiz-adv-x="748" 
d="M107 0h-167l512 737l169 -579q-67 -28 -67 -65q0 -23 39 -23q28 0 58 10l-35 -85q-30 -13 -72 -13t-69 18.5t-27 50.5q0 33 39 58v2h-303zM401 432l-131 -192h180z" />
    <glyph glyph-name="AEacute.alt1" horiz-adv-x="961" 
d="M656 600h-139l55 97h182zM212 117l-125 -117h-187l611 583h450l-29 -138h-267l-17 -83h248l-25 -125h-248l-21 -101h276l-28 -136h-427l24 117h-235zM510 409l-174 -169h136z" />
    <glyph glyph-name="Cacute.alt1" 
d="M465 600h-139l55 97h182zM17 260q0 129 108 227q110 98 259 98t231 -82l-30 -152q-84 95 -212 95q-82 0 -143 -53q-59 -53 -59 -121q0 -64 48.5 -104.5t126.5 -40.5q111 0 205 59l-30 -149q-73 -48 -188 -48q-140 0 -228 76t-88 195z" />
    <glyph glyph-name="Ccircumflex.alt1" 
d="M361 600h-151l215 112l163 -112h-141l-33 43zM17 260q0 129 108 227q110 98 259 98t231 -82l-30 -152q-84 95 -212 95q-82 0 -143 -53q-59 -53 -59 -121q0 -64 48.5 -104.5t126.5 -40.5q111 0 205 59l-30 -149q-73 -48 -188 -48q-140 0 -228 76t-88 195z" />
    <glyph glyph-name="Ccaron.alt1" 
d="M617 697l-215 -107l-162 107h141l32 -41l53 41h151zM17 260q0 129 108 227q110 98 259 98t231 -82l-30 -152q-84 95 -212 95q-82 0 -143 -53q-59 -53 -59 -121q0 -64 48.5 -104.5t126.5 -40.5q111 0 205 59l-30 -149q-73 -48 -188 -48q-140 0 -228 76t-88 195z" />
    <glyph glyph-name="Cdotaccent.alt1" 
d="M410 606q-26 0 -43 15t-17 39q0 28 21 48.5t51 20.5q28 0 45 -15.5t17 -39.5q0 -27 -22 -47.5t-52 -20.5zM17 260q0 129 108 227q110 98 259 98t231 -82l-30 -152q-84 95 -212 95q-82 0 -143 -53q-59 -53 -59 -121q0 -64 48.5 -104.5t126.5 -40.5q111 0 205 59l-30 -149
q-73 -48 -188 -48q-140 0 -228 76t-88 195z" />
    <glyph glyph-name="Ccedilla.alt1" 
d="M181 -1l31 51q21 -12 44 -12q38 0 38 18q0 19 -57 19h-1l28 47q-100 22 -162 93q-60 71 -60 168q0 129 108 227q109 98 259 98q149 0 231 -82l-30 -152q-83 95 -212 95q-82 0 -143 -53q-59 -53 -59 -120q0 -64 48.5 -105t126.5 -41q111 0 205 59l-30 -149
q-74 -48 -188 -48q-15 0 -19 1l-11 -20q30 -1 47.5 -14t17.5 -37q0 -33 -30.5 -51.5t-84.5 -18.5q-60 0 -97 27z" />
    <glyph glyph-name="Dcaron.alt1" horiz-adv-x="708" 
d="M606 697l-210 -109l-161 109h141l34 -41l53 41h143zM274 0h-277l119 583h251q141 0 221 -69q79 -69 79 -180q0 -142 -106 -238t-287 -96zM243 443l-63 -302h110q105 0 163 52q59 53 59 120q0 61 -44.5 95.5t-132.5 34.5h-92z" />
    <glyph glyph-name="Egrave.alt1" horiz-adv-x="596" 
d="M435 600h-131l-59 97h173zM480 0h-483l119 583h475l-28 -138h-320l-18 -83h300l-25 -125h-299l-21 -101h327z" />
    <glyph glyph-name="Eacute.alt1" horiz-adv-x="596" 
d="M416 600h-139l56 97h181zM480 0h-483l119 583h475l-28 -138h-320l-18 -83h300l-25 -125h-299l-21 -101h327z" />
    <glyph glyph-name="Ecircumflex.alt1" horiz-adv-x="596" 
d="M317 600h-150l215 112l162 -112h-140l-33 43zM480 0h-483l119 583h475l-28 -138h-320l-18 -83h300l-25 -125h-299l-21 -101h327z" />
    <glyph glyph-name="Ecaron.alt1" horiz-adv-x="596" 
d="M567 697l-213 -108l-164 108h141l32 -41l53 41h151zM480 0h-483l119 583h475l-28 -138h-320l-18 -83h300l-25 -125h-299l-21 -101h327z" />
    <glyph glyph-name="Edieresis.alt1" horiz-adv-x="596" 
d="M458 606q-26 0 -43 15t-17 39q0 28 21.5 48.5t51.5 20.5q27 0 44 -15.5t17 -39.5q0 -27 -22 -47.5t-52 -20.5zM262 606q-26 0 -43 15t-17 39q0 28 21 48.5t51 20.5q27 0 44.5 -15.5t17.5 -39.5q0 -27 -22 -47.5t-52 -20.5zM480 0h-483l119 583h475l-28 -138h-320l-18 -83
h300l-25 -125h-299l-21 -101h327z" />
    <glyph glyph-name="Emacron.alt1" horiz-adv-x="596" 
d="M518 611h-329l18 86h329zM480 0h-483l119 583h475l-28 -138h-320l-18 -83h300l-25 -125h-299l-21 -101h327z" />
    <glyph glyph-name="Ebreve.alt1" horiz-adv-x="596" 
d="M356 601q-64 0 -102 27.5t-38 68.5h102q6 -24 49 -24q42 0 58 24h104q-19 -44 -63 -70t-110 -26zM480 0h-483l119 583h475l-28 -138h-320l-18 -83h300l-25 -125h-299l-21 -101h327z" />
    <glyph glyph-name="Edotaccent.alt1" horiz-adv-x="596" 
d="M358 606q-26 0 -43 15t-17 39q0 28 21 48.5t51 20.5q27 0 44.5 -15.5t17.5 -39.5q0 -27 -22 -47.5t-52 -20.5zM480 0h-483l119 583h475l-28 -138h-320l-18 -83h300l-25 -125h-299l-21 -101h327z" />
    <glyph glyph-name="Eogonek.alt1" horiz-adv-x="596" 
d="M391 114h-371l119 583h475l-28 -138h-320l-18 -83h300l-25 -125h-299l-21 -101h327l-19 -96q-69 -32 -69 -64q0 -20 29 -20q26 0 55 10l-35 -85q-29 -13 -72 -13q-36 0 -59.5 16.5t-23.5 43.5q0 41 55 72z" />
    <glyph glyph-name="Gcircumflex.alt1" horiz-adv-x="698" 
d="M360 600h-151l216 112l162 -112h-140l-33 43zM17 248q0 136 109 236q110 102 264 102q124 0 203 -56l-27 -137q-90 54 -190 54q-83 0 -144 -55t-61 -127q0 -62 47.5 -99.5t124.5 -37.5q83 0 154 47l10 47h-175l26 127h300l-51 -254q-115 -106 -276 -106q-138 0 -227 74
q-87 73 -87 185z" />
    <glyph glyph-name="Gbreve.alt1" horiz-adv-x="698" 
d="M412 601q-64 0 -102 27.5t-38 68.5h102q6 -24 48 -24t59 24h104q-19 -44 -63 -70t-110 -26zM17 248q0 136 109 236q110 102 264 102q124 0 203 -56l-27 -137q-90 54 -190 54q-83 0 -144 -55t-61 -127q0 -62 47.5 -99.5t124.5 -37.5q83 0 154 47l10 47h-175l26 127h300
l-51 -254q-115 -106 -276 -106q-138 0 -227 74q-87 73 -87 185z" />
    <glyph glyph-name="Gdotaccent.alt1" horiz-adv-x="698" 
d="M414 606q-26 0 -43 15t-17 39q0 28 21.5 48.5t51.5 20.5q27 0 44 -15.5t17 -39.5q0 -27 -22 -47.5t-52 -20.5zM17 248q0 136 109 236q110 102 264 102q124 0 203 -56l-27 -137q-90 54 -190 54q-83 0 -144 -55t-61 -127q0 -62 47.5 -99.5t124.5 -37.5q83 0 154 47l10 47
h-175l26 127h300l-51 -254q-115 -106 -276 -106q-138 0 -227 74q-87 73 -87 185z" />
    <glyph glyph-name="Gcommaaccent.alt1" horiz-adv-x="698" 
d="M42 370q0 136 109 236q109 102 264 102q124 0 203 -56l-27 -137q-90 54 -190 54q-83 0 -144 -55t-61 -127q0 -62 47.5 -99.5t124.5 -37.5q83 0 154 47l10 47h-175l26 127h300l-51 -254q-115 -106 -276 -106q-138 0 -227 74q-87 73 -87 185zM318 0h-138l55 97h181z" />
    <glyph glyph-name="Hcircumflex.alt1" horiz-adv-x="798" 
d="M413 600h-117l177 112l131 -112h-109l-32 41zM152 0h-155l142 697h155l-52 -259h353l52 259h154l-142 -697h-155l61 298h-353z" />
    <glyph glyph-name="Igrave.alt1" horiz-adv-x="299" 
d="M274 600h-131l-59 97h173zM155 0h-154l119 583h154z" />
    <glyph glyph-name="Iacute.alt1" horiz-adv-x="299" 
d="M263 600h-139l55 97h182zM155 0h-154l119 583h154z" />
    <glyph glyph-name="Icircumflex.alt1" horiz-adv-x="299" 
d="M157 600h-118l178 112l130 -112h-109l-31 41zM155 0h-154l119 583h154z" />
    <glyph glyph-name="Itilde.alt1" horiz-adv-x="326" 
d="M120 597l-80 10q33 97 127 97q27 0 63 -14q37 -14 47 -14q28 0 40 30l80 -12q-25 -94 -116 -94q-29 0 -68 12q-36 13 -51 13q-29 0 -42 -28zM169 0h-154l119 583h154z" />
    <glyph glyph-name="Idieresis.alt1" horiz-adv-x="299" 
d="M289 606q-26 0 -43 15t-17 39q0 28 21.5 48.5t51.5 20.5q27 0 44 -15.5t17 -39.5q0 -27 -22 -47.5t-52 -20.5zM122 606q-26 0 -43 15t-17 39q0 28 21 48.5t51 20.5q27 0 44.5 -15.5t17.5 -39.5q0 -27 -22 -47.5t-52 -20.5zM155 0h-154l119 583h154z" />
    <glyph glyph-name="Imacron.alt1" horiz-adv-x="299" 
d="M354 611h-309l17 86h310zM155 0h-154l119 583h154z" />
    <glyph glyph-name="Ibreve.alt1" horiz-adv-x="299" 
d="M203 601q-59 0 -94 27.5t-35 68.5h102q4 -24 38 -24t48 24h105q-18 -44 -60 -70t-104 -26zM155 0h-154l119 583h154z" />
    <glyph glyph-name="Idotaccent.alt1" horiz-adv-x="299" 
d="M206 602q-31 0 -51 15.5t-20 39.5q0 29 25.5 50.5t60.5 21.5q31 0 51 -16t20 -41q0 -28 -25 -49t-61 -21zM155 0h-154l119 583h154z" />
    <glyph glyph-name="Iogonek.alt1" horiz-adv-x="299" 
d="M11 42q0 37 53 70h-40l119 585h154l-111 -543q-69 -33 -69 -64q0 -20 29 -20q26 0 56 10l-36 -85q-29 -13 -72 -13q-36 0 -59.5 16.5t-23.5 43.5z" />
    <glyph glyph-name="Jcircumflex.alt1" horiz-adv-x="365" 
d="M235 600h-115l178 112l130 -112h-112l-32 39zM39 -10q-67 0 -102 15l28 136q24 -12 69 -12q40 0 62.5 24t32.5 74l73 356h154l-72 -352q-24 -122 -79 -181q-54 -60 -166 -60z" />
    <glyph glyph-name="Kcommaaccent.alt1" horiz-adv-x="699" 
d="M151 0h-154l142 697h154l-62 -309l327 309h194l-366 -345l242 -352h-177l-233 331zM294 0h-121l54 97h142z" />
    <glyph glyph-name="Lacute.alt1" horiz-adv-x="520" 
d="M258 600h-138l55 97h181zM423 0h-426l119 583h155l-91 -443h272z" />
    <glyph glyph-name="Lcommaaccent.alt1" horiz-adv-x="520" 
d="M446 114h-426l119 583h155l-91 -443h272zM235 0h-138l55 97h182z" />
    <glyph glyph-name="Nacute.alt1" horiz-adv-x="769" 
d="M150 0h-153l148 724l388 -434l86 407h153l-154 -724l-387 424zM468 600h-139l56 97h181z" />
    <glyph glyph-name="Ncaron.alt1" horiz-adv-x="769" 
d="M150 0h-153l148 724l388 -434l86 407h153l-154 -724l-387 424zM596 697l-181 -109l-135 109h110l34 -37l54 37h118z" />
    <glyph glyph-name="Ntilde.alt1" horiz-adv-x="783" 
d="M150 0h-153l148 724l404 -435l84 408h153l-148 -724l-405 432zM352 596l-80 11q30 97 120 97q23 0 56 -14t44 -14q27 0 39 30l81 -11q-27 -95 -117 -95q-24 0 -57 12q-30 13 -45 13q-27 0 -41 -29z" />
    <glyph glyph-name="Ncommaaccent.alt1" horiz-adv-x="769" 
d="M150 0h-153l148 724l388 -434l86 407h153l-154 -724l-387 424zM357 0h-138l55 97h182z" />
    <glyph glyph-name="Ograve.alt1" horiz-adv-x="730" 
d="M492 600h-131l-59 97h173zM13 259q0 131 106 228q107 98 257 98q138 0 227 -77t89 -194q0 -130 -104 -228q-103 -97 -260 -97q-139 0 -227 76t-88 194zM170 269q0 -63 45.5 -102.5t119.5 -39.5q83 0 141 54q59 56 59 124q0 62 -46.5 101.5t-120.5 39.5q-82 0 -140 -54
t-58 -123z" />
    <glyph glyph-name="Oacute.alt1" horiz-adv-x="730" 
d="M473 600h-139l56 97h181zM13 259q0 131 106 228q107 98 257 98q138 0 227 -77t89 -194q0 -130 -104 -228q-103 -97 -260 -97q-139 0 -227 76t-88 194zM170 269q0 -63 45.5 -102.5t119.5 -39.5q83 0 141 54q59 56 59 124q0 62 -46.5 101.5t-120.5 39.5q-82 0 -140 -54
t-58 -123z" />
    <glyph glyph-name="Ocircumflex.alt1" horiz-adv-x="730" 
d="M360 600h-150l215 112l162 -112h-140l-33 43zM13 259q0 131 106 228q107 98 257 98q138 0 227 -77t89 -194q0 -130 -104 -228q-103 -97 -260 -97q-139 0 -227 76t-88 194zM170 269q0 -63 45.5 -102.5t119.5 -39.5q83 0 141 54q59 56 59 124q0 62 -46.5 101.5t-120.5 39.5
q-82 0 -140 -54t-58 -123z" />
    <glyph glyph-name="Otilde.alt1" horiz-adv-x="730" 
d="M296 597l-80 10q31 97 126 97q32 0 79 -14t58 -14q28 0 40 30l81 -12q-25 -94 -116 -94q-35 0 -83 12q-46 13 -63 13q-29 0 -42 -28zM13 259q0 131 106 228q107 98 257 98q138 0 227 -77t89 -194q0 -130 -104 -228q-103 -97 -260 -97q-139 0 -227 76t-88 194zM170 269
q0 -63 45.5 -102.5t119.5 -39.5q83 0 141 54q59 56 59 124q0 62 -46.5 101.5t-120.5 39.5q-82 0 -140 -54t-58 -123z" />
    <glyph glyph-name="Odieresis.alt1" horiz-adv-x="820" 
d="M694 660q0 27 21.5 48t51.5 21q27 0 44 -15.5t17 -39.5q0 -27 -21.5 -47.5t-51.5 -20.5q-27 0 -44 15t-17 39zM107 606q-27 0 -44 15t-17 39q0 27 21.5 48t51.5 21q27 0 44 -15.5t17 -39.5q0 -27 -21.5 -47.5t-51.5 -20.5zM27 309q0 158 119 277t288 119q154 0 251 -91
q98 -90 98 -232q0 -153 -114 -273q-55 -56 -132 -89t-162 -33q-154 0 -251 90q-97 91 -97 232zM180 321q0 -85 56 -141q57 -54 148 -54q102 0 174 74t72 169q0 87 -57 142q-58 56 -147 56q-100 0 -174 -75q-72 -75 -72 -171z" />
    <glyph glyph-name="Omacron.alt1" horiz-adv-x="730" 
d="M572 611h-329l18 86h329zM13 259q0 131 106 228q107 98 257 98q138 0 227 -77t89 -194q0 -130 -104 -228q-103 -97 -260 -97q-139 0 -227 76t-88 194zM170 269q0 -63 45.5 -102.5t119.5 -39.5q83 0 141 54q59 56 59 124q0 62 -46.5 101.5t-120.5 39.5q-82 0 -140 -54
t-58 -123z" />
    <glyph glyph-name="Obreve.alt1" horiz-adv-x="730" 
d="M415 601q-64 0 -101.5 27.5t-37.5 68.5h102q4 -24 48 -24q42 0 58 24h105q-41 -96 -174 -96zM13 259q0 131 106 228q107 98 257 98q138 0 227 -77t89 -194q0 -130 -104 -228q-103 -97 -260 -97q-139 0 -227 76t-88 194zM170 269q0 -63 45.5 -102.5t119.5 -39.5
q83 0 141 54q59 56 59 124q0 62 -46.5 101.5t-120.5 39.5q-82 0 -140 -54t-58 -123z" />
    <glyph glyph-name="Ohungarumlaut.alt1" horiz-adv-x="730" 
d="M534 600h-113l76 97h146zM360 600h-107l70 97h146zM13 259q0 131 106 228q107 98 257 98q138 0 227 -77t89 -194q0 -130 -104 -228q-103 -97 -260 -97q-139 0 -227 76t-88 194zM170 269q0 -63 45.5 -102.5t119.5 -39.5q83 0 141 54q59 56 59 124q0 62 -46.5 101.5
t-120.5 39.5q-82 0 -140 -54t-58 -123z" />
    <glyph glyph-name="Oslashacute.alt1" horiz-adv-x="730" 
d="M479 600h-139l55 97h182zM99 -49l-83 73l61 63q-64 71 -64 172q0 131 106 228q107 98 257 98q86 0 157 -33l70 72l83 -74l-61 -63q67 -71 67 -173q0 -130 -104 -228q-103 -97 -260 -97q-87 0 -159 33zM192 199l232 237q-27 10 -56 10q-82 0 -140 -54t-58 -123
q0 -41 22 -70zM510 377l-231 -239q27 -11 56 -11q83 0 141 54q59 56 59 124q0 41 -25 72z" />
    <glyph glyph-name="Racute.alt1" horiz-adv-x="656" 
d="M414 600h-139l55 97h182zM152 0h-155l120 583h273q96 0 156 -51q61 -51 61 -130q0 -66 -38 -122t-105 -85l109 -195h-169l-98 178h-117zM243 442l-30 -139h155q35 0 60 24.5t25 55.5q0 26 -19.5 42.5t-51.5 16.5h-139z" />
    <glyph glyph-name="Rcaron.alt1" horiz-adv-x="656" 
d="M571 697l-212 -108l-164 108h141l32 -41l53 41h150zM152 0h-155l120 583h273q96 0 156 -51q61 -51 61 -130q0 -66 -38 -122t-105 -85l109 -195h-169l-98 178h-117zM243 442l-30 -139h155q35 0 60 24.5t25 55.5q0 26 -19.5 42.5t-51.5 16.5h-139z" />
    <glyph glyph-name="Rcommaaccent.alt1" horiz-adv-x="684" 
d="M152 0h-155l142 697h296q95 0 157 -59q61 -58 61 -148q0 -70 -40 -132.5t-105 -93.5l93 -264h-158l-84 232h-160zM265 557l-39 -191h165q43 0 75 32q31 32 31 75q0 36 -24.5 60t-63.5 24h-144zM303 0h-126l55 97h157z" />
    <glyph glyph-name="Sacute.alt1" horiz-adv-x="565" 
d="M389 600h-138l55 97h181zM-19 65l30 142q97 -80 230 -80q114 0 114 46q0 15 -28 26q-14 8 -47 16l-67 22q-79 25 -116 64.5t-37 101.5q0 75 68 128q68 52 177 52q137 0 213 -57l-27 -133q-77 53 -187 53q-44 0 -70.5 -11.5t-26.5 -29.5t34 -31l34 -12q64 -19 92 -28
q72 -26 105.5 -63.5t33.5 -91.5q0 -81 -69 -135q-68 -53 -190 -53q-80 0 -151.5 20.5t-114.5 53.5z" />
    <glyph glyph-name="Scircumflex.alt1" horiz-adv-x="565" 
d="M290 600h-151l216 112l162 -112h-141l-33 43zM-19 65l30 142q97 -80 230 -80q114 0 114 46q0 15 -28 26q-14 8 -47 16l-67 22q-79 25 -116 64.5t-37 101.5q0 75 68 128q68 52 177 52q137 0 213 -57l-27 -133q-77 53 -187 53q-44 0 -70.5 -11.5t-26.5 -29.5t34 -31l34 -12
q64 -19 92 -28q72 -26 105.5 -63.5t33.5 -91.5q0 -81 -69 -135q-68 -53 -190 -53q-80 0 -151.5 20.5t-114.5 53.5z" />
    <glyph glyph-name="Scaron.alt1" horiz-adv-x="565" 
d="M539 697l-212 -108l-164 108h141l32 -41l53 41h150zM-19 65l30 142q97 -80 230 -80q114 0 114 46q0 15 -28 26q-14 8 -47 16l-67 22q-79 25 -116 64.5t-37 101.5q0 75 68 128q68 52 177 52q137 0 213 -57l-27 -133q-77 53 -187 53q-44 0 -70.5 -11.5t-26.5 -29.5t34 -31
l34 -12q64 -19 92 -28q72 -26 105.5 -63.5t33.5 -91.5q0 -81 -69 -135q-68 -53 -190 -53q-80 0 -151.5 20.5t-114.5 53.5z" />
    <glyph glyph-name="Scommaaccent.alt1" horiz-adv-x="565" 
d="M6 190l30 142q97 -80 230 -80q114 0 114 46q0 15 -28 26q-14 8 -47 16l-67 22q-79 25 -116 64.5t-37 101.5q0 75 68 128q68 52 177 52q136 0 213 -57l-27 -133q-77 53 -187 53q-44 0 -70.5 -11.5t-26.5 -29.5t34 -31l34 -12q64 -19 92 -28q72 -26 105.5 -63.5t33.5 -91.5
q0 -81 -69 -135q-68 -53 -190 -53q-80 0 -151.5 20.5t-114.5 53.5zM245 0h-138l55 97h182z" />
    <glyph glyph-name="Scedilla.alt1" horiz-adv-x="565" 
d="M109 -1l30 51q21 -12 44 -12q39 0 39 18q0 19 -58 19h-1l27 45q-115 16 -184 69l30 145q92 -82 230 -82q114 0 114 45q0 15 -28 26q-11 6 -46 17l-68 21q-77 25 -115 64.5t-38 101.5q0 75 68 128q70 53 177 53q140 0 213 -58l-27 -133q-76 54 -187 54q-44 0 -70.5 -11.5
t-26.5 -29.5q0 -19 34 -32q19 -7 34 -11q64 -19 92 -28q72 -26 105.5 -64t33.5 -92q0 -81 -69 -134q-67 -52 -194 -54l-12 -22q29 -1 46.5 -14.5t17.5 -36.5q0 -33 -30.5 -51.5t-83.5 -18.5q-62 0 -97 27z" />
    <glyph glyph-name="Tcaron.alt1" horiz-adv-x="555" 
d="M531 697l-212 -108l-164 108h141l32 -41l53 41h150zM285 0h-154l90 443h-191l28 140h534l-28 -140h-189z" />
    <glyph glyph-name="Tcommaaccent.alt1" horiz-adv-x="555" 
d="M308 114h-154l90 443h-191l28 140h534l-28 -140h-189zM228 0h-139l57 97h178z" />
    <glyph glyph-name="Ugrave.alt1" horiz-adv-x="719" 
d="M41 243q0 45 10 88l74 366h155l-85 -413q-2 -18 -2 -35q0 -56 34.5 -88t97.5 -32q132 0 163 151l85 417h154l-86 -424q-58 -284 -330 -284q-36 0 -71.5 7t-72 25.5t-64 46.5t-45 73t-17.5 102zM507 600h-131l-59 97h173z" />
    <glyph glyph-name="Uacute.alt1" horiz-adv-x="719" 
d="M40 243q0 40 10 91l74 363h155l-85 -413q-2 -18 -2 -35q0 -56 34.5 -88t97.5 -32q130 0 161 151l85 417h154l-86 -424q-29 -144 -109.5 -214t-217.5 -70q-96 0 -177 52q-43 29 -68.5 81.5t-25.5 120.5zM436 600h-125l55 97h168z" />
    <glyph glyph-name="Ucircumflex.alt1" horiz-adv-x="760" 
d="M387 600h-111l175 112l123 -112h-104l-31 39zM41 243q0 45 10 88l74 366h155l-85 -413q-2 -18 -2 -35q0 -57 40 -88.5t112 -31.5q73 0 121 38.5t63 112.5l85 417h154l-87 -424q-57 -284 -349 -284q-102 0 -190 52q-46 29 -73.5 81.5t-27.5 120.5z" />
    <glyph glyph-name="Utilde.alt1" horiz-adv-x="777" 
d="M354 597l-80 10q31 97 124 97q24 0 57 -14t44 -14q26 0 38 30l81 -12q-25 -94 -120 -94q-25 0 -58 12q-32 13 -44 13q-29 0 -42 -28zM41 243q0 45 10 88l74 366h155l-85 -413q-2 -18 -2 -35q0 -57 42 -88.5t119 -31.5t127 38.5t65 112.5l85 417h154l-86 -424
q-59 -284 -359 -284q-40 0 -79 7t-79.5 25.5t-71 46.5t-50 73t-19.5 102z" />
    <glyph glyph-name="Udieresis.alt1" horiz-adv-x="773" 
d="M521 606q-26 0 -43 15t-17 39q0 28 21 48.5t51 20.5q27 0 44 -15.5t17 -39.5q0 -27 -21.5 -47.5t-51.5 -20.5zM362 606q-27 0 -44 15t-17 39q0 28 21.5 48.5t50.5 20.5q27 0 44 -15.5t17 -39.5q0 -27 -21 -47.5t-51 -20.5zM41 243q0 45 10 88l74 366h155l-85 -413
q-2 -18 -2 -35q0 -56 42 -88t117 -32q76 0 125.5 38.5t64.5 112.5l85 417h154l-86 -424q-59 -284 -357 -284q-103 0 -194 52q-47 29 -75 81.5t-28 120.5z" />
    <glyph glyph-name="Umacron.alt1" horiz-adv-x="760" 
d="M41 243q0 45 10 88l74 366h155l-85 -413q-2 -18 -2 -35q0 -57 40 -88.5t112 -31.5q73 0 120.5 38.5t62.5 112.5l85 417h155l-87 -424q-57 -284 -349 -284q-102 0 -190 52q-46 29 -73.5 81.5t-27.5 120.5zM564 611h-270l18 86h269z" />
    <glyph glyph-name="Ubreve.alt1" horiz-adv-x="760" 
d="M41 243q0 45 10 88l74 366h155l-85 -413q-2 -18 -2 -35q0 -57 40 -88.5t112 -31.5q73 0 120.5 38.5t62.5 112.5l85 417h155l-87 -424q-57 -284 -349 -284q-102 0 -190 52q-46 29 -73.5 81.5t-27.5 120.5zM433 597q-60 0 -92.5 28.5t-32.5 71.5h87q6 -26 47 -26
q42 0 57 26h88q-37 -100 -154 -100z" />
    <glyph glyph-name="Uring.alt1" horiz-adv-x="760" 
d="M415 485q-50 0 -81.5 28.5t-31.5 73.5q0 51 40 90t95 39q49 0 81 -29.5t32 -74.5q0 -50 -39 -89q-40 -38 -96 -38zM41 243q0 45 10 88l74 366h155l-85 -413q-2 -18 -2 -35q0 -57 40 -88.5t112 -31.5q73 0 120.5 38.5t62.5 112.5l85 417h155l-87 -424q-57 -284 -349 -284
q-102 0 -190 52q-46 29 -73.5 81.5t-27.5 120.5zM422 563q18 0 31 12.5t13 28.5q0 15 -10 25t-26 10q-18 0 -30.5 -13t-12.5 -30q0 -15 10 -24t25 -9z" />
    <glyph glyph-name="Uhungarumlaut.alt1" horiz-adv-x="760" 
d="M41 243q0 45 10 88l74 366h155l-85 -413q-2 -18 -2 -35q0 -57 40 -88.5t112 -31.5q73 0 120.5 38.5t62.5 112.5l85 417h155l-87 -424q-57 -284 -349 -284q-102 0 -190 52q-46 29 -73.5 81.5t-27.5 120.5zM489 600h-75l69 97h115zM358 600h-75l70 97h114z" />
    <glyph glyph-name="Uogonek.alt1" horiz-adv-x="719" 
d="M329 44q0 40 49 71q-15 -3 -39 -3q-96 0 -177 52q-43 29 -68.5 81t-25.5 120q0 38 10 89l50 243h154l-60 -291q-2 -18 -2 -34q0 -56 34.5 -88t97.5 -32q130 0 161 151l60 294h154l-61 -302q-31 -156 -129 -224q-24 -15 -43 -25q-33 -17 -46.5 -29t-13.5 -26q0 -22 34 -22
q23 0 59 11l-35 -85q-30 -13 -74 -13q-37 0 -63 17.5t-26 44.5z" />
    <glyph glyph-name="Wgrave.alt1" horiz-adv-x="981" 
d="M492 318l-290 -347l-114 726h151l64 -399l232 272l108 -265l227 392h165l-410 -726zM632 600h-131l-59 97h173z" />
    <glyph glyph-name="Wacute.alt1" horiz-adv-x="981" 
d="M492 318l-290 -347l-114 726h151l64 -399l232 272l108 -265l227 392h165l-410 -726zM582 600h-139l56 97h181z" />
    <glyph glyph-name="Wcircumflex.alt1" horiz-adv-x="981" 
d="M494 600h-151l215 112l163 -112h-141l-33 43zM492 318l-290 -347l-114 726h151l64 -399l232 272l108 -265l227 392h165l-410 -726z" />
    <glyph glyph-name="Wdieresis.alt1" horiz-adv-x="981" 
d="M492 318l-290 -347l-114 726h151l64 -399l232 272l108 -265l227 392h165l-410 -726zM635 606q-26 0 -43 15t-17 39q0 28 21.5 48.5t51.5 20.5q27 0 44 -15.5t17 -39.5q0 -28 -21 -48t-53 -20zM446 606q-26 0 -43 15t-17 39q0 28 21.5 48.5t51.5 20.5q27 0 44 -15.5
t17 -39.5q0 -28 -21 -48t-53 -20z" />
    <glyph glyph-name="Ygrave.alt1" horiz-adv-x="722" 
d="M367 0h-153l51 253l-186 444h160l125 -294l240 294h182l-368 -444zM493 600h-133l-58 97h176z" />
    <glyph glyph-name="Yacute.alt1" horiz-adv-x="722" 
d="M367 0h-153l51 253l-186 444h160l125 -294l240 294h182l-368 -444zM449 600h-138l55 97h181z" />
    <glyph glyph-name="Ycircumflex.alt1" horiz-adv-x="756" 
d="M389 600h-101l155 112l109 -112h-93l-26 41zM387 0h-152l50 249l-206 448h160l140 -304l263 304h184l-388 -448z" />
    <glyph glyph-name="Ydieresis.alt1" horiz-adv-x="756" 
d="M387 0h-152l50 249l-206 448h160l140 -304l263 304h184l-388 -448zM503 605q-26 0 -43 15t-17 39q0 28 21.5 49t50.5 21q26 0 43 -16t17 -40q0 -27 -21 -47.5t-51 -20.5zM345 605q-26 0 -43 15t-17 39q0 28 21.5 49t50.5 21q26 0 43 -16t17 -40q0 -27 -21 -47.5
t-51 -20.5z" />
    <glyph glyph-name="Zacute.alt1" horiz-adv-x="651" 
d="M458 600h-139l55 97h182zM548 0h-608l425 443h-264l28 140h553l-420 -443h315z" />
    <glyph glyph-name="Zcaron.alt1" horiz-adv-x="651" 
d="M614 697l-213 -108l-163 108h140l33 -41l52 41h151zM548 0h-608l425 443h-264l28 140h553l-420 -443h315z" />
    <glyph glyph-name="Zdotaccent.alt1" horiz-adv-x="651" 
d="M409 606q-27 0 -44 15t-17 39q0 28 21.5 48.5t51.5 20.5q27 0 44 -15.5t17 -39.5q0 -27 -21.5 -47.5t-51.5 -20.5zM548 0h-608l425 443h-264l28 140h553l-420 -443h315z" />
    <glyph glyph-name="Eng.alt1" horiz-adv-x="773" 
d="M150 0h-153l148 724l403 -429q2 3 6 22l78 380h153l-95 -467q-25 -124 -83.5 -182.5t-171.5 -58.5q-75 0 -118 17l28 137q33 -15 85 -15q34 0 57 15l-252 270z" />
    <glyph glyph-name="Cacute.alt2" horiz-adv-x="644" 
d="M460 600h-139l55 97h182zM17 255q0 131 107 230q107 100 260 100q173 0 260 -120l-118 -88q-54 69 -151 69q-83 0 -144 -55q-60 -54 -60 -125q0 -61 45.5 -100t119.5 -39q90 0 159 66l87 -103q-104 -101 -255 -101q-135 0 -223 74q-87 75 -87 192z" />
    <glyph glyph-name="Ccircumflex.alt2" horiz-adv-x="644" 
d="M354 600h-151l215 112l163 -112h-141l-33 43zM17 255q0 131 107 230q107 100 260 100q173 0 260 -120l-118 -88q-54 69 -151 69q-83 0 -144 -55q-60 -54 -60 -125q0 -61 45.5 -100t119.5 -39q90 0 159 66l87 -103q-104 -101 -255 -101q-135 0 -223 74q-87 75 -87 192z
" />
    <glyph glyph-name="Ccaron.alt2" horiz-adv-x="644" 
d="M615 697l-214 -107l-162 107h141l32 -41l53 41h150zM17 255q0 131 107 230q107 100 260 100q173 0 260 -120l-118 -88q-54 69 -151 69q-83 0 -144 -55q-60 -54 -60 -125q0 -61 45.5 -100t119.5 -39q90 0 159 66l87 -103q-104 -101 -255 -101q-135 0 -223 74
q-87 75 -87 192z" />
    <glyph glyph-name="Cdotaccent.alt2" horiz-adv-x="644" 
d="M414 606q-27 0 -44 15t-17 39q0 28 21.5 48.5t51.5 20.5q27 0 44 -15.5t17 -39.5q0 -27 -21.5 -47.5t-51.5 -20.5zM17 255q0 131 107 230q107 100 260 100q173 0 260 -120l-118 -88q-54 69 -151 69q-83 0 -144 -55q-60 -54 -60 -125q0 -61 45.5 -100t119.5 -39
q90 0 159 66l87 -103q-104 -101 -255 -101q-135 0 -223 74q-87 75 -87 192z" />
    <glyph glyph-name="Ccedilla.alt2" horiz-adv-x="644" 
d="M190 -1l31 51q21 -12 44 -12q38 0 38 18q0 19 -58 19h-1l27 45q-103 19 -166 90q-63 70 -63 168q0 131 107 230q107 100 260 100q173 0 260 -119l-118 -89q-54 69 -151 69q-83 0 -144 -55q-60 -54 -60 -125q0 -61 45.5 -100t119.5 -39q90 0 159 66l87 -103
q-104 -101 -255 -101h-5l-10 -19q30 -1 47.5 -14t17.5 -37q0 -33 -30.5 -51.5t-84.5 -18.5q-63 0 -97 27z" />
    <glyph glyph-name="Gcircumflex.alt2" horiz-adv-x="698" 
d="M359 600h-151l216 112l162 -112h-141l-33 43zM17 252q0 132 107 233q106 100 263 100q172 0 254 -106l-111 -90q-54 57 -154 57q-82 0 -144 -54q-61 -54 -61 -125q0 -63 45.5 -101.5t120.5 -38.5q96 0 154 52l9 44h-176l26 127h309l-47 -236q-116 -125 -283 -125
q-137 0 -225 74q-87 75 -87 189z" />
    <glyph glyph-name="Gbreve.alt2" horiz-adv-x="698" 
d="M412 601q-64 0 -102 27.5t-38 68.5h102q6 -24 49 -24q41 0 58 24h104q-19 -44 -63 -70t-110 -26zM17 252q0 132 107 233q106 100 263 100q172 0 254 -106l-111 -90q-54 57 -154 57q-82 0 -144 -54q-61 -54 -61 -125q0 -63 45.5 -101.5t120.5 -38.5q96 0 154 52l9 44h-176
l26 127h309l-47 -236q-116 -125 -283 -125q-137 0 -225 74q-87 75 -87 189z" />
    <glyph glyph-name="Gdotaccent.alt2" horiz-adv-x="698" 
d="M411 606q-26 0 -43 15t-17 39q0 28 21.5 48.5t51.5 20.5q27 0 44 -15.5t17 -39.5q0 -28 -21 -48t-53 -20zM17 252q0 132 107 233q106 100 263 100q172 0 254 -106l-111 -90q-54 57 -154 57q-82 0 -144 -54q-61 -54 -61 -125q0 -63 45.5 -101.5t120.5 -38.5q96 0 154 52
l9 44h-176l26 127h309l-47 -236q-116 -125 -283 -125q-137 0 -225 74q-87 75 -87 189z" />
    <glyph glyph-name="Gcommaaccent.alt2" horiz-adv-x="698" 
d="M353 112q-137 0 -225 74q-87 75 -87 189q0 132 107 233q106 100 263 100q172 0 254 -106l-111 -90q-54 57 -154 57q-82 0 -144 -54q-61 -54 -61 -125q0 -63 45.5 -101.5t120.5 -38.5q96 0 154 52l9 44h-176l26 127h309l-47 -236q-116 -125 -283 -125zM333 0h-138l55 97
h182z" />
    <glyph glyph-name="Kcommaaccent.alt2" horiz-adv-x="715" 
d="M152 0h-155l142 697h155l-63 -308l344 308h197l-343 -320l211 -377h-170l-161 280l-123 -108zM312 0h-127l55 97h156z" />
    <glyph glyph-name="Sacute.alt2" horiz-adv-x="561" 
d="M390 600h-138l55 97h182zM-31 118l118 84q21 -34 65.5 -55.5t98.5 -21.5q45 0 72 12.5t27 32.5q0 22 -32 33q-15 7 -34 12q-12 4 -47 15t-45 14q-132 48 -132 152q0 76 69 132q68 55 176 55q74 0 131.5 -28t82.5 -70l-112 -86q-30 51 -114 51q-38 0 -61.5 -11t-23.5 -29
q0 -19 26 -30q20 -8 31 -11q35 -8 101 -31q135 -50 135 -152q0 -86 -67 -141t-196 -55q-104 0 -175 38q-70 39 -94 90z" />
    <glyph glyph-name="Scircumflex.alt2" horiz-adv-x="562" 
d="M281 600h-151l215 112l163 -112h-141l-33 43zM-31 118l118 84q21 -34 65.5 -55.5t98.5 -21.5q45 0 72 12.5t27 32.5q0 22 -32 33q-15 7 -34 12q-12 4 -47 15t-45 14q-132 48 -132 152q0 76 69 132q68 55 176 55q74 0 131.5 -28t82.5 -70l-112 -86q-30 51 -114 51
q-38 0 -61.5 -11t-23.5 -29q0 -19 26 -30q20 -8 31 -11q35 -8 101 -31q135 -50 135 -152q0 -86 -67 -141t-196 -55q-104 0 -175 38q-70 39 -94 90z" />
    <glyph glyph-name="Scaron.alt2" horiz-adv-x="562" 
d="M536 697l-213 -108l-164 108h141l32 -41l53 41h151zM-31 118l118 84q21 -34 65.5 -55.5t98.5 -21.5q45 0 72 12.5t27 32.5q0 22 -32 33q-15 7 -34 12q-12 4 -47 15t-45 14q-132 48 -132 152q0 76 69 132q68 55 176 55q74 0 131.5 -28t82.5 -70l-112 -86q-30 51 -114 51
q-38 0 -61.5 -11t-23.5 -29q0 -19 26 -30q20 -8 31 -11q35 -8 101 -31q135 -50 135 -152q0 -86 -67 -141t-196 -55q-104 0 -175 38q-70 39 -94 90z" />
    <glyph glyph-name="Scommaaccent.alt2" horiz-adv-x="562" 
d="M263 115q-104 0 -175 38q-70 39 -94 90l118 84q21 -34 65.5 -55.5t98.5 -21.5q45 0 72 12.5t27 32.5q0 22 -32 33q-15 7 -34 12q-12 4 -47 15t-45 14q-132 48 -132 152q0 77 69 132q68 55 176 55q74 0 131.5 -28t82.5 -70l-112 -86q-30 51 -114 51q-38 0 -61.5 -11
t-23.5 -29q0 -19 26 -30q20 -8 31 -11q35 -8 101 -31q135 -50 135 -152q0 -86 -67 -141t-196 -55zM245 0h-138l55 97h182z" />
    <glyph glyph-name="Scedilla.alt2" horiz-adv-x="576" 
d="M123 -1l30 51q21 -12 44 -12q39 0 39 18q0 19 -58 19h-1l26 44q-77 9 -132 44t-77 80l118 84q21 -34 65.5 -55.5t98.5 -21.5q45 0 72 12.5t27 32.5q0 22 -32 33q-15 7 -34 12q-12 4 -47 15t-45 14q-132 48 -132 152q0 77 69 132q68 55 176 55q74 0 131.5 -28t82.5 -70
l-112 -86q-30 51 -114 51q-38 0 -61.5 -11t-23.5 -29q0 -19 26 -30q20 -8 31 -11q35 -8 101 -31q135 -50 135 -152q0 -81 -63 -137q-60 -54 -181 -59h-1l-11 -22q29 -1 46.5 -14.5t17.5 -36.5q0 -33 -30.5 -51.5t-83.5 -18.5q-62 0 -97 27z" />
    <glyph glyph-name="Wgrave.alt2" horiz-adv-x="940" 
d="M602 600h-131l-59 97h173zM443 234l-196 -265l-188 614h147l103 -332l76 105l-77 227h135l37 -111l77 111h147l-170 -235l36 -100l243 335h163l-438 -614z" />
    <glyph glyph-name="Wacute.alt2" horiz-adv-x="940" 
d="M565 600h-138l55 97h181zM443 234l-196 -265l-188 614h147l103 -332l76 105l-77 227h135l37 -111l77 111h147l-170 -235l36 -100l243 335h163l-438 -614z" />
    <glyph glyph-name="Wcircumflex.alt2" horiz-adv-x="940" 
d="M465 600h-151l216 112l162 -112h-141l-33 43zM443 234l-196 -265l-188 614h147l103 -332l76 105l-77 227h135l37 -111l77 111h147l-170 -235l36 -100l243 335h163l-438 -614z" />
    <glyph glyph-name="Wdieresis.alt2" horiz-adv-x="940" 
d="M599 606q-26 0 -43 15t-17 39q0 28 21 48.5t51 20.5q28 0 45 -15.5t17 -39.5q0 -27 -22 -47.5t-52 -20.5zM421 606q-26 0 -43 15t-17 39q0 28 21.5 48.5t51.5 20.5q27 0 44 -15.5t17 -39.5q0 -27 -22 -47.5t-52 -20.5zM443 234l-196 -265l-188 614h147l103 -332l76 105
l-77 227h135l37 -111l77 111h147l-170 -235l36 -100l243 335h163l-438 -614z" />
    <glyph glyph-name="A.smcp" horiz-adv-x="648" 
d="M158 84l-65 -84h-156l436 587l196 -587h-143l-27 84h-241zM328 327l-99 -135h140z" />
    <glyph glyph-name="B.smcp" horiz-adv-x="548" 
d="M288 0h-295l113 558h234q64 0 105.5 -36t41.5 -92q0 -44 -24 -81t-65 -49q88 -22 88 -112q0 -77 -56 -133q-55 -55 -142 -55zM229 438l-21 -103h82q27 0 46 17.5t19 40.5q0 20 -15 32.5t-39 12.5h-72zM188 239l-24 -118h104q32 0 54.5 20t22.5 49q0 21 -16 35t-42 14h-99
z" />
    <glyph glyph-name="C.smcp" horiz-adv-x="573" 
d="M13 250q0 127 103 221q104 95 247 95q126 0 193 -61l-27 -140q-70 70 -174 70q-81 0 -139 -53q-57 -52 -57 -121q0 -61 45.5 -100.5t119.5 -39.5q92 0 166 51l-26 -142q-58 -39 -151 -39q-133 0 -216 73q-84 74 -84 186z" />
    <glyph glyph-name="D.smcp" horiz-adv-x="646" 
d="M282 0h-289l113 558h219q123 0 201 -72q79 -72 79 -183q0 -121 -93 -212q-91 -91 -230 -91zM226 426l-60 -294h117q73 0 124 48q52 48 52 109q0 60 -41.5 98.5t-107.5 38.5h-84z" />
    <glyph glyph-name="E.smcp" horiz-adv-x="526" 
d="M413 0h-420l113 558h414l-27 -131h-268l-18 -85h251l-24 -118h-250l-20 -96h275z" />
    <glyph glyph-name="F.smcp" horiz-adv-x="501" 
d="M140 0h-147l113 558h402l-27 -132h-255l-19 -91h232l-25 -125h-232z" />
    <glyph glyph-name="G.smcp" horiz-adv-x="645" 
d="M13 249q0 127 102 222q103 95 249 95q123 0 193 -56l-24 -129q-87 54 -181 54q-81 0 -137 -52q-56 -53 -56 -121q0 -63 45.5 -102t118.5 -39q63 0 115 34l14 60h-155l23 122h282l-51 -258q-100 -88 -238 -88q-134 0 -217 73q-83 74 -83 185z" />
    <glyph glyph-name="H.smcp" horiz-adv-x="661" 
d="M140 0h-147l113 558h147l-41 -197h240l41 197h146l-114 -558h-146l46 229h-239z" />
    <glyph glyph-name="I.smcp" horiz-adv-x="282" 
d="M143 0h-146l114 558h146z" />
    <glyph glyph-name="J.smcp" horiz-adv-x="345" 
d="M36 -8q-61 0 -93 13l25 127q26 -10 61 -10q62 0 77 69l76 367h145l-74 -363q-22 -106 -71.5 -154.5t-145.5 -48.5z" />
    <glyph glyph-name="K.smcp" horiz-adv-x="592" 
d="M138 0h-145l113 558h145l-49 -241l244 241h178l-286 -285l182 -273h-164l-168 248z" />
    <glyph glyph-name="L.smcp" horiz-adv-x="463" 
d="M366 0h-373l113 558h147l-87 -426h227z" />
    <glyph glyph-name="M.smcp" horiz-adv-x="766" 
d="M128 0h-135l117 580l247 -314l392 320l-119 -586h-135l52 258l-215 -175l-145 186z" />
    <glyph glyph-name="N.smcp" horiz-adv-x="666" 
d="M133 0h-140l118 581l331 -329l63 306h140l-119 -581l-331 326z" />
    <glyph glyph-name="O.smcp" horiz-adv-x="668" 
d="M11 245q0 127 98 223q97 97 235 97q125 0 204 -73t79 -186q0 -124 -97 -220q-97 -95 -238 -95q-123 0 -203 71q-78 72 -78 183zM156 260q0 -59 41 -97t107 -38q75 0 126 51q52 51 52 117q0 61 -42 100t-108 39q-73 0 -125 -52q-51 -52 -51 -120z" />
    <glyph glyph-name="P.smcp" horiz-adv-x="558" 
d="M140 0h-147l113 558h232q88 0 143 -52q56 -51 56 -129q0 -85 -67 -151q-68 -66 -165 -66h-133zM226 426l-28 -137h112q33 0 58 23.5t25 53.5q0 26 -19.5 43t-51.5 17h-96z" />
    <glyph glyph-name="Q.smcp" horiz-adv-x="667" 
d="M11 245q0 127 98 223q97 97 235 97q125 0 204 -73t79 -186q0 -128 -99 -222l65 -84h-141l-18 22q-63 -31 -142 -31q-123 0 -203 71q-78 72 -78 183zM156 260q0 -60 40.5 -97.5t105.5 -37.5q22 0 38 10l-89 115h147l42 -61q42 48 42 104q0 61 -42 100t-108 39
q-73 0 -125 -52q-51 -52 -51 -120z" />
    <glyph glyph-name="R.smcp" horiz-adv-x="579" 
d="M139 0h-146l114 558h238q85 0 137 -49q54 -49 54 -124q0 -59 -36.5 -111.5t-96.5 -78.5l98 -195h-158l-87 176h-82zM224 425l-27 -133h113q33 0 57 22t24 52q0 25 -19 42t-49 17h-99z" />
    <glyph glyph-name="S.smcp" horiz-adv-x="514" 
d="M-17 61l26 132q85 -72 202 -72q50 0 76 12.5t26 32.5q0 16 -22 26q-6 4 -23 11q-30 14 -78 32q-68 28 -100 65.5t-32 93.5q0 72 61 121q61 51 157 51q125 0 193 -56l-27 -130q-73 57 -163 57q-37 0 -59 -11t-22 -27q0 -13 32 -33l45 -20q34 -11 49 -18q131 -53 131 -156
q0 -76 -62 -129q-61 -52 -178 -52q-152 0 -232 70z" />
    <glyph glyph-name="T.smcp" horiz-adv-x="488" 
d="M246 0h-146l87 426h-161l27 132h467l-26 -132h-162z" />
    <glyph glyph-name="U.smcp" horiz-adv-x="629" 
d="M29 205q0 33 9 74l57 279h145l-65 -318q-3 -10 -3 -26q0 -43 27.5 -67.5t77.5 -24.5q102 0 124 112l66 324h145l-67 -329q-24 -120 -92.5 -179t-186.5 -59q-31 0 -61 5.5t-63 20t-57 37.5t-40 62t-16 89z" />
    <glyph glyph-name="V.smcp" horiz-adv-x="645" 
d="M679 558l-434 -588l-195 588h149l96 -297l217 297h167z" />
    <glyph glyph-name="W.smcp" horiz-adv-x="846" 
d="M416 299l-259 -323l-99 582h139l48 -270l220 270l89 -271l161 271h155l-345 -584z" />
    <glyph glyph-name="X.smcp" horiz-adv-x="598" 
d="M107 0h-171l264 297l-134 261h155l81 -159l145 159h170l-245 -278l148 -280h-156l-95 177z" />
    <glyph glyph-name="Y.smcp" horiz-adv-x="602" 
d="M298 0h-144l41 201l-148 357h152l90 -218l173 218h169l-295 -370z" />
    <glyph glyph-name="Z.smcp" horiz-adv-x="561" 
d="M462 0h-522l367 426h-223l26 132h478l-368 -426h268z" />
    <glyph glyph-name="Agrave.smcp" horiz-adv-x="648" 
d="M436 596h-126l-54 106h163zM158 84l-65 -84h-156l436 587l196 -587h-143l-27 84h-241zM328 327l-99 -135h140z" />
    <glyph glyph-name="Aacute.smcp" horiz-adv-x="648" 
d="M433 596h-131l58 106h170zM158 84l-65 -84h-156l436 587l196 -587h-143l-27 84h-241zM328 327l-99 -135h140z" />
    <glyph glyph-name="Acircumflex.smcp" horiz-adv-x="648" 
d="M331 602h-139l197 117l149 -117h-123l-36 42zM158 84l-65 -84h-156l436 587l196 -587h-143l-27 84h-241zM328 327l-99 -135h140z" />
    <glyph glyph-name="Atilde.smcp" horiz-adv-x="648" 
d="M262 583l-73 11q13 48 47 77.5t79 29.5q33 0 69 -16t57 -16q31 0 48 32l74 -12q-29 -104 -127 -104q-32 0 -71 15t-58 15q-31 0 -45 -32zM158 84l-65 -84h-156l436 587l196 -587h-143l-27 84h-241zM328 327l-99 -135h140z" />
    <glyph glyph-name="Adieresis.smcp" horiz-adv-x="648" 
d="M482 578q-28 0 -45 15.5t-17 39.5q0 27 21.5 48t51.5 21q28 0 45 -16t17 -41q0 -27 -21.5 -47t-51.5 -20zM256 578q-28 0 -45 15.5t-17 39.5q0 27 21.5 48t51.5 21q28 0 45 -16t17 -41q0 -27 -21.5 -47t-51.5 -20zM158 84l-65 -84h-156l436 587l196 -587h-143l-27 84
h-241zM328 327l-99 -135h140z" />
    <glyph glyph-name="Amacron.smcp" horiz-adv-x="648" 
d="M520 602h-303l19 91h303zM158 84l-65 -84h-156l436 587l196 -587h-143l-27 84h-241zM328 327l-99 -135h140z" />
    <glyph glyph-name="Abreve.smcp" horiz-adv-x="648" 
d="M158 84l-65 -84h-156l434 585q-64 1 -100.5 34.5t-37.5 86.5h93q8 -39 54 -39q51 0 72 39h96q-18 -55 -62.5 -88t-110.5 -33h-1l195 -585h-143l-27 84h-241zM328 327l-99 -135h140z" />
    <glyph glyph-name="Aring.smcp" horiz-adv-x="648" 
d="M158 84l-65 -84h-156l367 496q-45 22 -45 75q0 44 35 79q37 35 85 35q45 0 73 -25.5t28 -65.5q0 -33 -21 -61.5t-54 -41.5l164 -491h-143l-27 84h-241zM366 554q15 0 25.5 10t10.5 23q0 11 -8.5 18.5t-21.5 7.5q-15 0 -25.5 -10t-10.5 -23q0 -26 30 -26zM328 327
l-99 -135h140z" />
    <glyph glyph-name="Aringacute.smcp" horiz-adv-x="648" 
d="M469 722h-131l58 106h170zM158 84l-65 -84h-156l367 496q-45 22 -45 75q0 44 35 79q37 35 85 35q45 0 73 -25.5t28 -65.5q0 -33 -21 -61.5t-54 -41.5l164 -491h-143l-27 84h-241zM366 554q15 0 25.5 10t10.5 23q0 11 -8.5 18.5t-21.5 7.5q-15 0 -25.5 -10t-10.5 -23
q0 -26 30 -26zM328 327l-99 -135h140z" />
    <glyph glyph-name="Aogonek.smcp" horiz-adv-x="658" 
d="M158 84l-65 -84h-156l436 587l196 -587q-27 -10 -57 -31q-27 -19 -27 -39q0 -22 40 -22q12 0 48 6l-37 -87q-17 -7 -40 -7q-46 0 -76 23.5t-30 60.5q0 31 26.5 57t67.5 39h-58l-27 84h-241zM328 328l-99 -136h140z" />
    <glyph glyph-name="AE.smcp" horiz-adv-x="811" 
d="M149 78l-81 -78h-171l573 558h334l-27 -131h-206l-17 -85h190l-23 -118h-191l-19 -96h213l-26 -128h-349l16 78h-216zM419 343l-153 -150h122z" />
    <glyph glyph-name="AEacute.smcp" horiz-adv-x="811" 
d="M603 596h-131l58 106h170zM149 78l-81 -78h-171l573 558h334l-27 -131h-206l-17 -85h190l-23 -118h-191l-19 -96h213l-26 -128h-349l16 78h-216zM419 343l-153 -150h122z" />
    <glyph glyph-name="Cacute.smcp" horiz-adv-x="573" 
d="M440 596h-131l58 106h170zM13 250q0 127 103 221q104 95 247 95q126 0 193 -61l-27 -140q-70 70 -174 70q-81 0 -139 -53q-57 -52 -57 -121q0 -61 45.5 -100.5t119.5 -39.5q92 0 166 51l-26 -142q-58 -39 -151 -39q-133 0 -216 73q-84 74 -84 186z" />
    <glyph glyph-name="Ccircumflex.smcp" horiz-adv-x="573" 
d="M347 602h-139l197 117l149 -117h-123l-36 42zM13 250q0 127 103 221q104 95 247 95q126 0 193 -61l-27 -140q-70 70 -174 70q-81 0 -139 -53q-57 -52 -57 -121q0 -61 45.5 -100.5t119.5 -39.5q92 0 166 51l-26 -142q-58 -39 -151 -39q-133 0 -216 73q-84 74 -84 186z" />
    <glyph glyph-name="Ccaron.smcp" horiz-adv-x="573" 
d="M575 702l-197 -117l-149 117h123l36 -42l48 42h139zM13 250q0 127 103 221q104 95 247 95q126 0 193 -61l-27 -140q-70 70 -174 70q-81 0 -139 -53q-57 -52 -57 -121q0 -61 45.5 -100.5t119.5 -39.5q92 0 166 51l-26 -142q-58 -39 -151 -39q-133 0 -216 73
q-84 74 -84 186z" />
    </font>
</defs>
</svg>
